<?xml version="1.0" encoding="utf-8" standalone="no"?>
<!DOCTYPE svg PUBLIC "-//W3C//DTD SVG 1.1//EN"
  "http://www.w3.org/Graphics/SVG/1.1/DTD/svg11.dtd">
<svg height="345.6pt" version="1.1" viewBox="0 0 460.8 345.6" width="460.8pt" xmlns="http://www.w3.org/2000/svg" xmlns:xlink="http://www.w3.org/1999/xlink">
 <metadata>
  <rdf:RDF xmlns:cc="http://creativecommons.org/ns#" xmlns:dc="http://purl.org/dc/elements/1.1/" xmlns:rdf="http://www.w3.org/1999/02/22-rdf-syntax-ns#">
   <cc:Work>
    <dc:type rdf:resource="http://purl.org/dc/dcmitype/StillImage"/>
    <dc:date>2022-04-27T16:21:39.300172</dc:date>
    <dc:format>image/svg+xml</dc:format>
    <dc:creator>
     <cc:Agent>
      <dc:title>Matplotlib v3.4.3, https://matplotlib.org/</dc:title>
     </cc:Agent>
    </dc:creator>
   </cc:Work>
  </rdf:RDF>
 </metadata>
 <defs>
  <style type="text/css">*{stroke-linecap:butt;stroke-linejoin:round;}</style>
 </defs>
 <g id="figure_1">
  <g id="patch_1">
   <path d="M 0 345.6 
L 460.8 345.6 
L 460.8 0 
L 0 0 
z
" style="fill:#ffffff;"/>
  </g>
  <g id="axes_1">
   <g id="patch_2">
    <path d="M 57.6 307.584 
L 414.72 307.584 
L 414.72 41.472 
L 57.6 41.472 
z
" style="fill:#ffffff;"/>
   </g>
   <g id="PathCollection_1">
    <defs>
     <path d="M 0 4.242641 
L 2.545584 0 
L 0 -4.242641 
L -2.545584 0 
z
" id="m212b333ff5" style="stroke:#ffa500;"/>
    </defs>
    <g clip-path="url(#pbcc150e54c)">
     <use style="fill:#ffa500;stroke:#ffa500;" x="73.832727" xlink:href="#m212b333ff5" y="295.488"/>
     <use style="fill:#ffa500;stroke:#ffa500;" x="88.310076" xlink:href="#m212b333ff5" y="210.914341"/>
     <use style="fill:#ffa500;stroke:#ffa500;" x="102.787425" xlink:href="#m212b333ff5" y="155.843122"/>
     <use style="fill:#ffa500;stroke:#ffa500;" x="117.264773" xlink:href="#m212b333ff5" y="120.440195"/>
     <use style="fill:#ffa500;stroke:#ffa500;" x="131.742122" xlink:href="#m212b333ff5" y="96.838244"/>
     <use style="fill:#ffa500;stroke:#ffa500;" x="146.219471" xlink:href="#m212b333ff5" y="81.10361"/>
     <use style="fill:#ffa500;stroke:#ffa500;" x="160.69682" xlink:href="#m212b333ff5" y="71.269463"/>
     <use style="fill:#ffa500;stroke:#ffa500;" x="175.174168" xlink:href="#m212b333ff5" y="63.402146"/>
     <use style="fill:#ffa500;stroke:#ffa500;" x="189.651517" xlink:href="#m212b333ff5" y="59.468488"/>
     <use style="fill:#ffa500;stroke:#ffa500;" x="204.128866" xlink:href="#m212b333ff5" y="57.501659"/>
     <use style="fill:#ffa500;stroke:#ffa500;" x="218.606215" xlink:href="#m212b333ff5" y="88.970927"/>
     <use style="fill:#ffa500;stroke:#ffa500;" x="233.083563" xlink:href="#m212b333ff5" y="151.909463"/>
     <use style="fill:#ffa500;stroke:#ffa500;" x="247.560912" xlink:href="#m212b333ff5" y="193.212878"/>
     <use style="fill:#ffa500;stroke:#ffa500;" x="262.038261" xlink:href="#m212b333ff5" y="222.715317"/>
     <use style="fill:#ffa500;stroke:#ffa500;" x="276.51561" xlink:href="#m212b333ff5" y="244.350439"/>
     <use style="fill:#ffa500;stroke:#ffa500;" x="290.992958" xlink:href="#m212b333ff5" y="260.085073"/>
     <use style="fill:#ffa500;stroke:#ffa500;" x="305.470307" xlink:href="#m212b333ff5" y="271.886049"/>
     <use style="fill:#ffa500;stroke:#ffa500;" x="319.947656" xlink:href="#m212b333ff5" y="277.786537"/>
     <use style="fill:#ffa500;stroke:#ffa500;" x="334.425005" xlink:href="#m212b333ff5" y="283.687024"/>
     <use style="fill:#ffa500;stroke:#ffa500;" x="348.902353" xlink:href="#m212b333ff5" y="287.620683"/>
     <use style="fill:#ffa500;stroke:#ffa500;" x="363.379702" xlink:href="#m212b333ff5" y="289.587512"/>
     <use style="fill:#ffa500;stroke:#ffa500;" x="377.857051" xlink:href="#m212b333ff5" y="293.521171"/>
     <use style="fill:#ffa500;stroke:#ffa500;" x="392.3344" xlink:href="#m212b333ff5" y="293.521171"/>
    </g>
   </g>
   <g id="matplotlib.axis_1">
    <g id="xtick_1">
     <g id="line2d_1">
      <path clip-path="url(#pbcc150e54c)" d="M 73.832727 307.584 
L 73.832727 41.472 
" style="fill:none;stroke:#000000;stroke-linecap:square;stroke-width:0.3;"/>
     </g>
     <g id="line2d_2">
      <defs>
       <path d="M 0 0 
L 0 3.5 
" id="m1194293382" style="stroke:#000000;stroke-width:0.8;"/>
      </defs>
      <g>
       <use style="stroke:#000000;stroke-width:0.8;" x="73.832727" xlink:href="#m1194293382" y="307.584"/>
      </g>
     </g>
     <g id="text_1">
      <!-- 0 -->
      <g transform="translate(70.651477 322.182437)scale(0.1 -0.1)">
       <defs>
        <path d="M 2034 4250 
Q 1547 4250 1301 3770 
Q 1056 3291 1056 2328 
Q 1056 1369 1301 889 
Q 1547 409 2034 409 
Q 2525 409 2770 889 
Q 3016 1369 3016 2328 
Q 3016 3291 2770 3770 
Q 2525 4250 2034 4250 
z
M 2034 4750 
Q 2819 4750 3233 4129 
Q 3647 3509 3647 2328 
Q 3647 1150 3233 529 
Q 2819 -91 2034 -91 
Q 1250 -91 836 529 
Q 422 1150 422 2328 
Q 422 3509 836 4129 
Q 1250 4750 2034 4750 
z
" id="DejaVuSans-30" transform="scale(0.015625)"/>
       </defs>
       <use xlink:href="#DejaVuSans-30"/>
      </g>
     </g>
    </g>
    <g id="xtick_2">
     <g id="line2d_3">
      <path clip-path="url(#pbcc150e54c)" d="M 127.852685 307.584 
L 127.852685 41.472 
" style="fill:none;stroke:#000000;stroke-linecap:square;stroke-width:0.3;"/>
     </g>
     <g id="line2d_4">
      <g>
       <use style="stroke:#000000;stroke-width:0.8;" x="127.852685" xlink:href="#m1194293382" y="307.584"/>
      </g>
     </g>
     <g id="text_2">
      <!-- 2 -->
      <g transform="translate(124.671435 322.182437)scale(0.1 -0.1)">
       <defs>
        <path d="M 1228 531 
L 3431 531 
L 3431 0 
L 469 0 
L 469 531 
Q 828 903 1448 1529 
Q 2069 2156 2228 2338 
Q 2531 2678 2651 2914 
Q 2772 3150 2772 3378 
Q 2772 3750 2511 3984 
Q 2250 4219 1831 4219 
Q 1534 4219 1204 4116 
Q 875 4013 500 3803 
L 500 4441 
Q 881 4594 1212 4672 
Q 1544 4750 1819 4750 
Q 2544 4750 2975 4387 
Q 3406 4025 3406 3419 
Q 3406 3131 3298 2873 
Q 3191 2616 2906 2266 
Q 2828 2175 2409 1742 
Q 1991 1309 1228 531 
z
" id="DejaVuSans-32" transform="scale(0.015625)"/>
       </defs>
       <use xlink:href="#DejaVuSans-32"/>
      </g>
     </g>
    </g>
    <g id="xtick_3">
     <g id="line2d_5">
      <path clip-path="url(#pbcc150e54c)" d="M 181.872643 307.584 
L 181.872643 41.472 
" style="fill:none;stroke:#000000;stroke-linecap:square;stroke-width:0.3;"/>
     </g>
     <g id="line2d_6">
      <g>
       <use style="stroke:#000000;stroke-width:0.8;" x="181.872643" xlink:href="#m1194293382" y="307.584"/>
      </g>
     </g>
     <g id="text_3">
      <!-- 4 -->
      <g transform="translate(178.691393 322.182437)scale(0.1 -0.1)">
       <defs>
        <path d="M 2419 4116 
L 825 1625 
L 2419 1625 
L 2419 4116 
z
M 2253 4666 
L 3047 4666 
L 3047 1625 
L 3713 1625 
L 3713 1100 
L 3047 1100 
L 3047 0 
L 2419 0 
L 2419 1100 
L 313 1100 
L 313 1709 
L 2253 4666 
z
" id="DejaVuSans-34" transform="scale(0.015625)"/>
       </defs>
       <use xlink:href="#DejaVuSans-34"/>
      </g>
     </g>
    </g>
    <g id="xtick_4">
     <g id="line2d_7">
      <path clip-path="url(#pbcc150e54c)" d="M 235.892601 307.584 
L 235.892601 41.472 
" style="fill:none;stroke:#000000;stroke-linecap:square;stroke-width:0.3;"/>
     </g>
     <g id="line2d_8">
      <g>
       <use style="stroke:#000000;stroke-width:0.8;" x="235.892601" xlink:href="#m1194293382" y="307.584"/>
      </g>
     </g>
     <g id="text_4">
      <!-- 6 -->
      <g transform="translate(232.711351 322.182437)scale(0.1 -0.1)">
       <defs>
        <path d="M 2113 2584 
Q 1688 2584 1439 2293 
Q 1191 2003 1191 1497 
Q 1191 994 1439 701 
Q 1688 409 2113 409 
Q 2538 409 2786 701 
Q 3034 994 3034 1497 
Q 3034 2003 2786 2293 
Q 2538 2584 2113 2584 
z
M 3366 4563 
L 3366 3988 
Q 3128 4100 2886 4159 
Q 2644 4219 2406 4219 
Q 1781 4219 1451 3797 
Q 1122 3375 1075 2522 
Q 1259 2794 1537 2939 
Q 1816 3084 2150 3084 
Q 2853 3084 3261 2657 
Q 3669 2231 3669 1497 
Q 3669 778 3244 343 
Q 2819 -91 2113 -91 
Q 1303 -91 875 529 
Q 447 1150 447 2328 
Q 447 3434 972 4092 
Q 1497 4750 2381 4750 
Q 2619 4750 2861 4703 
Q 3103 4656 3366 4563 
z
" id="DejaVuSans-36" transform="scale(0.015625)"/>
       </defs>
       <use xlink:href="#DejaVuSans-36"/>
      </g>
     </g>
    </g>
    <g id="xtick_5">
     <g id="line2d_9">
      <path clip-path="url(#pbcc150e54c)" d="M 289.912559 307.584 
L 289.912559 41.472 
" style="fill:none;stroke:#000000;stroke-linecap:square;stroke-width:0.3;"/>
     </g>
     <g id="line2d_10">
      <g>
       <use style="stroke:#000000;stroke-width:0.8;" x="289.912559" xlink:href="#m1194293382" y="307.584"/>
      </g>
     </g>
     <g id="text_5">
      <!-- 8 -->
      <g transform="translate(286.731309 322.182437)scale(0.1 -0.1)">
       <defs>
        <path d="M 2034 2216 
Q 1584 2216 1326 1975 
Q 1069 1734 1069 1313 
Q 1069 891 1326 650 
Q 1584 409 2034 409 
Q 2484 409 2743 651 
Q 3003 894 3003 1313 
Q 3003 1734 2745 1975 
Q 2488 2216 2034 2216 
z
M 1403 2484 
Q 997 2584 770 2862 
Q 544 3141 544 3541 
Q 544 4100 942 4425 
Q 1341 4750 2034 4750 
Q 2731 4750 3128 4425 
Q 3525 4100 3525 3541 
Q 3525 3141 3298 2862 
Q 3072 2584 2669 2484 
Q 3125 2378 3379 2068 
Q 3634 1759 3634 1313 
Q 3634 634 3220 271 
Q 2806 -91 2034 -91 
Q 1263 -91 848 271 
Q 434 634 434 1313 
Q 434 1759 690 2068 
Q 947 2378 1403 2484 
z
M 1172 3481 
Q 1172 3119 1398 2916 
Q 1625 2713 2034 2713 
Q 2441 2713 2670 2916 
Q 2900 3119 2900 3481 
Q 2900 3844 2670 4047 
Q 2441 4250 2034 4250 
Q 1625 4250 1398 4047 
Q 1172 3844 1172 3481 
z
" id="DejaVuSans-38" transform="scale(0.015625)"/>
       </defs>
       <use xlink:href="#DejaVuSans-38"/>
      </g>
     </g>
    </g>
    <g id="xtick_6">
     <g id="line2d_11">
      <path clip-path="url(#pbcc150e54c)" d="M 343.932517 307.584 
L 343.932517 41.472 
" style="fill:none;stroke:#000000;stroke-linecap:square;stroke-width:0.3;"/>
     </g>
     <g id="line2d_12">
      <g>
       <use style="stroke:#000000;stroke-width:0.8;" x="343.932517" xlink:href="#m1194293382" y="307.584"/>
      </g>
     </g>
     <g id="text_6">
      <!-- 10 -->
      <g transform="translate(337.570017 322.182437)scale(0.1 -0.1)">
       <defs>
        <path d="M 794 531 
L 1825 531 
L 1825 4091 
L 703 3866 
L 703 4441 
L 1819 4666 
L 2450 4666 
L 2450 531 
L 3481 531 
L 3481 0 
L 794 0 
L 794 531 
z
" id="DejaVuSans-31" transform="scale(0.015625)"/>
       </defs>
       <use xlink:href="#DejaVuSans-31"/>
       <use x="63.623047" xlink:href="#DejaVuSans-30"/>
      </g>
     </g>
    </g>
    <g id="xtick_7">
     <g id="line2d_13">
      <path clip-path="url(#pbcc150e54c)" d="M 397.952475 307.584 
L 397.952475 41.472 
" style="fill:none;stroke:#000000;stroke-linecap:square;stroke-width:0.3;"/>
     </g>
     <g id="line2d_14">
      <g>
       <use style="stroke:#000000;stroke-width:0.8;" x="397.952475" xlink:href="#m1194293382" y="307.584"/>
      </g>
     </g>
     <g id="text_7">
      <!-- 12 -->
      <g transform="translate(391.589975 322.182437)scale(0.1 -0.1)">
       <use xlink:href="#DejaVuSans-31"/>
       <use x="63.623047" xlink:href="#DejaVuSans-32"/>
      </g>
     </g>
    </g>
    <g id="xtick_8">
     <g id="line2d_15">
      <path clip-path="url(#pbcc150e54c)" d="M 60.327738 307.584 
L 60.327738 41.472 
" style="fill:none;stroke:#000000;stroke-dasharray:0.2,0.33;stroke-dashoffset:0;stroke-width:0.2;"/>
     </g>
     <g id="line2d_16">
      <defs>
       <path d="M 0 0 
L 0 2 
" id="m9691927d99" style="stroke:#000000;stroke-width:0.6;"/>
      </defs>
      <g>
       <use style="stroke:#000000;stroke-width:0.6;" x="60.327738" xlink:href="#m9691927d99" y="307.584"/>
      </g>
     </g>
    </g>
    <g id="xtick_9">
     <g id="line2d_17">
      <path clip-path="url(#pbcc150e54c)" d="M 87.337717 307.584 
L 87.337717 41.472 
" style="fill:none;stroke:#000000;stroke-dasharray:0.2,0.33;stroke-dashoffset:0;stroke-width:0.2;"/>
     </g>
     <g id="line2d_18">
      <g>
       <use style="stroke:#000000;stroke-width:0.6;" x="87.337717" xlink:href="#m9691927d99" y="307.584"/>
      </g>
     </g>
    </g>
    <g id="xtick_10">
     <g id="line2d_19">
      <path clip-path="url(#pbcc150e54c)" d="M 100.842706 307.584 
L 100.842706 41.472 
" style="fill:none;stroke:#000000;stroke-dasharray:0.2,0.33;stroke-dashoffset:0;stroke-width:0.2;"/>
     </g>
     <g id="line2d_20">
      <g>
       <use style="stroke:#000000;stroke-width:0.6;" x="100.842706" xlink:href="#m9691927d99" y="307.584"/>
      </g>
     </g>
    </g>
    <g id="xtick_11">
     <g id="line2d_21">
      <path clip-path="url(#pbcc150e54c)" d="M 114.347696 307.584 
L 114.347696 41.472 
" style="fill:none;stroke:#000000;stroke-dasharray:0.2,0.33;stroke-dashoffset:0;stroke-width:0.2;"/>
     </g>
     <g id="line2d_22">
      <g>
       <use style="stroke:#000000;stroke-width:0.6;" x="114.347696" xlink:href="#m9691927d99" y="307.584"/>
      </g>
     </g>
    </g>
    <g id="xtick_12">
     <g id="line2d_23">
      <path clip-path="url(#pbcc150e54c)" d="M 141.357675 307.584 
L 141.357675 41.472 
" style="fill:none;stroke:#000000;stroke-dasharray:0.2,0.33;stroke-dashoffset:0;stroke-width:0.2;"/>
     </g>
     <g id="line2d_24">
      <g>
       <use style="stroke:#000000;stroke-width:0.6;" x="141.357675" xlink:href="#m9691927d99" y="307.584"/>
      </g>
     </g>
    </g>
    <g id="xtick_13">
     <g id="line2d_25">
      <path clip-path="url(#pbcc150e54c)" d="M 154.862664 307.584 
L 154.862664 41.472 
" style="fill:none;stroke:#000000;stroke-dasharray:0.2,0.33;stroke-dashoffset:0;stroke-width:0.2;"/>
     </g>
     <g id="line2d_26">
      <g>
       <use style="stroke:#000000;stroke-width:0.6;" x="154.862664" xlink:href="#m9691927d99" y="307.584"/>
      </g>
     </g>
    </g>
    <g id="xtick_14">
     <g id="line2d_27">
      <path clip-path="url(#pbcc150e54c)" d="M 168.367654 307.584 
L 168.367654 41.472 
" style="fill:none;stroke:#000000;stroke-dasharray:0.2,0.33;stroke-dashoffset:0;stroke-width:0.2;"/>
     </g>
     <g id="line2d_28">
      <g>
       <use style="stroke:#000000;stroke-width:0.6;" x="168.367654" xlink:href="#m9691927d99" y="307.584"/>
      </g>
     </g>
    </g>
    <g id="xtick_15">
     <g id="line2d_29">
      <path clip-path="url(#pbcc150e54c)" d="M 195.377633 307.584 
L 195.377633 41.472 
" style="fill:none;stroke:#000000;stroke-dasharray:0.2,0.33;stroke-dashoffset:0;stroke-width:0.2;"/>
     </g>
     <g id="line2d_30">
      <g>
       <use style="stroke:#000000;stroke-width:0.6;" x="195.377633" xlink:href="#m9691927d99" y="307.584"/>
      </g>
     </g>
    </g>
    <g id="xtick_16">
     <g id="line2d_31">
      <path clip-path="url(#pbcc150e54c)" d="M 208.882622 307.584 
L 208.882622 41.472 
" style="fill:none;stroke:#000000;stroke-dasharray:0.2,0.33;stroke-dashoffset:0;stroke-width:0.2;"/>
     </g>
     <g id="line2d_32">
      <g>
       <use style="stroke:#000000;stroke-width:0.6;" x="208.882622" xlink:href="#m9691927d99" y="307.584"/>
      </g>
     </g>
    </g>
    <g id="xtick_17">
     <g id="line2d_33">
      <path clip-path="url(#pbcc150e54c)" d="M 222.387612 307.584 
L 222.387612 41.472 
" style="fill:none;stroke:#000000;stroke-dasharray:0.2,0.33;stroke-dashoffset:0;stroke-width:0.2;"/>
     </g>
     <g id="line2d_34">
      <g>
       <use style="stroke:#000000;stroke-width:0.6;" x="222.387612" xlink:href="#m9691927d99" y="307.584"/>
      </g>
     </g>
    </g>
    <g id="xtick_18">
     <g id="line2d_35">
      <path clip-path="url(#pbcc150e54c)" d="M 249.397591 307.584 
L 249.397591 41.472 
" style="fill:none;stroke:#000000;stroke-dasharray:0.2,0.33;stroke-dashoffset:0;stroke-width:0.2;"/>
     </g>
     <g id="line2d_36">
      <g>
       <use style="stroke:#000000;stroke-width:0.6;" x="249.397591" xlink:href="#m9691927d99" y="307.584"/>
      </g>
     </g>
    </g>
    <g id="xtick_19">
     <g id="line2d_37">
      <path clip-path="url(#pbcc150e54c)" d="M 262.90258 307.584 
L 262.90258 41.472 
" style="fill:none;stroke:#000000;stroke-dasharray:0.2,0.33;stroke-dashoffset:0;stroke-width:0.2;"/>
     </g>
     <g id="line2d_38">
      <g>
       <use style="stroke:#000000;stroke-width:0.6;" x="262.90258" xlink:href="#m9691927d99" y="307.584"/>
      </g>
     </g>
    </g>
    <g id="xtick_20">
     <g id="line2d_39">
      <path clip-path="url(#pbcc150e54c)" d="M 276.40757 307.584 
L 276.40757 41.472 
" style="fill:none;stroke:#000000;stroke-dasharray:0.2,0.33;stroke-dashoffset:0;stroke-width:0.2;"/>
     </g>
     <g id="line2d_40">
      <g>
       <use style="stroke:#000000;stroke-width:0.6;" x="276.40757" xlink:href="#m9691927d99" y="307.584"/>
      </g>
     </g>
    </g>
    <g id="xtick_21">
     <g id="line2d_41">
      <path clip-path="url(#pbcc150e54c)" d="M 303.417549 307.584 
L 303.417549 41.472 
" style="fill:none;stroke:#000000;stroke-dasharray:0.2,0.33;stroke-dashoffset:0;stroke-width:0.2;"/>
     </g>
     <g id="line2d_42">
      <g>
       <use style="stroke:#000000;stroke-width:0.6;" x="303.417549" xlink:href="#m9691927d99" y="307.584"/>
      </g>
     </g>
    </g>
    <g id="xtick_22">
     <g id="line2d_43">
      <path clip-path="url(#pbcc150e54c)" d="M 316.922538 307.584 
L 316.922538 41.472 
" style="fill:none;stroke:#000000;stroke-dasharray:0.2,0.33;stroke-dashoffset:0;stroke-width:0.2;"/>
     </g>
     <g id="line2d_44">
      <g>
       <use style="stroke:#000000;stroke-width:0.6;" x="316.922538" xlink:href="#m9691927d99" y="307.584"/>
      </g>
     </g>
    </g>
    <g id="xtick_23">
     <g id="line2d_45">
      <path clip-path="url(#pbcc150e54c)" d="M 330.427528 307.584 
L 330.427528 41.472 
" style="fill:none;stroke:#000000;stroke-dasharray:0.2,0.33;stroke-dashoffset:0;stroke-width:0.2;"/>
     </g>
     <g id="line2d_46">
      <g>
       <use style="stroke:#000000;stroke-width:0.6;" x="330.427528" xlink:href="#m9691927d99" y="307.584"/>
      </g>
     </g>
    </g>
    <g id="xtick_24">
     <g id="line2d_47">
      <path clip-path="url(#pbcc150e54c)" d="M 357.437507 307.584 
L 357.437507 41.472 
" style="fill:none;stroke:#000000;stroke-dasharray:0.2,0.33;stroke-dashoffset:0;stroke-width:0.2;"/>
     </g>
     <g id="line2d_48">
      <g>
       <use style="stroke:#000000;stroke-width:0.6;" x="357.437507" xlink:href="#m9691927d99" y="307.584"/>
      </g>
     </g>
    </g>
    <g id="xtick_25">
     <g id="line2d_49">
      <path clip-path="url(#pbcc150e54c)" d="M 370.942496 307.584 
L 370.942496 41.472 
" style="fill:none;stroke:#000000;stroke-dasharray:0.2,0.33;stroke-dashoffset:0;stroke-width:0.2;"/>
     </g>
     <g id="line2d_50">
      <g>
       <use style="stroke:#000000;stroke-width:0.6;" x="370.942496" xlink:href="#m9691927d99" y="307.584"/>
      </g>
     </g>
    </g>
    <g id="xtick_26">
     <g id="line2d_51">
      <path clip-path="url(#pbcc150e54c)" d="M 384.447486 307.584 
L 384.447486 41.472 
" style="fill:none;stroke:#000000;stroke-dasharray:0.2,0.33;stroke-dashoffset:0;stroke-width:0.2;"/>
     </g>
     <g id="line2d_52">
      <g>
       <use style="stroke:#000000;stroke-width:0.6;" x="384.447486" xlink:href="#m9691927d99" y="307.584"/>
      </g>
     </g>
    </g>
    <g id="xtick_27">
     <g id="line2d_53">
      <path clip-path="url(#pbcc150e54c)" d="M 411.457465 307.584 
L 411.457465 41.472 
" style="fill:none;stroke:#000000;stroke-dasharray:0.2,0.33;stroke-dashoffset:0;stroke-width:0.2;"/>
     </g>
     <g id="line2d_54">
      <g>
       <use style="stroke:#000000;stroke-width:0.6;" x="411.457465" xlink:href="#m9691927d99" y="307.584"/>
      </g>
     </g>
    </g>
    <g id="text_8">
     <!-- $t, сек.$ -->
     <g transform="translate(220.21 335.860562)scale(0.1 -0.1)">
      <defs>
       <path d="M 2706 3500 
L 2619 3053 
L 1472 3053 
L 1100 1153 
Q 1081 1047 1072 975 
Q 1063 903 1063 863 
Q 1063 663 1183 572 
Q 1303 481 1569 481 
L 2150 481 
L 2053 0 
L 1503 0 
Q 991 0 739 200 
Q 488 400 488 806 
Q 488 878 497 964 
Q 506 1050 525 1153 
L 897 3053 
L 409 3053 
L 500 3500 
L 978 3500 
L 1172 4494 
L 1747 4494 
L 1556 3500 
L 2706 3500 
z
" id="DejaVuSans-Oblique-74" transform="scale(0.015625)"/>
       <path d="M 750 794 
L 1409 794 
L 1409 256 
L 897 -744 
L 494 -744 
L 750 256 
L 750 794 
z
" id="DejaVuSans-2c" transform="scale(0.015625)"/>
       <path d="M 3431 3366 
L 3316 2797 
Q 3109 2947 2876 3022 
Q 2644 3097 2394 3097 
Q 2119 3097 1870 3000 
Q 1622 2903 1453 2725 
Q 1184 2453 1037 2087 
Q 891 1722 891 1331 
Q 891 859 1127 628 
Q 1363 397 1844 397 
Q 2081 397 2348 469 
Q 2616 541 2906 684 
L 2797 116 
Q 2547 13 2283 -39 
Q 2019 -91 1741 -91 
Q 1044 -91 669 257 
Q 294 606 294 1253 
Q 294 1797 489 2255 
Q 684 2713 1069 3078 
Q 1331 3328 1684 3456 
Q 2038 3584 2456 3584 
Q 2700 3584 2940 3529 
Q 3181 3475 3431 3366 
z
" id="DejaVuSans-Oblique-441" transform="scale(0.015625)"/>
       <path d="M 3078 2063 
Q 3088 2113 3092 2166 
Q 3097 2219 3097 2272 
Q 3097 2653 2873 2875 
Q 2650 3097 2266 3097 
Q 1838 3097 1509 2826 
Q 1181 2556 1013 2059 
L 3078 2063 
z
M 3578 1613 
L 903 1613 
Q 884 1494 878 1425 
Q 872 1356 872 1306 
Q 872 872 1139 634 
Q 1406 397 1894 397 
Q 2269 397 2603 481 
Q 2938 566 3225 728 
L 3116 159 
Q 2806 34 2476 -28 
Q 2147 -91 1806 -91 
Q 1078 -91 686 257 
Q 294 606 294 1247 
Q 294 1794 489 2264 
Q 684 2734 1063 3103 
Q 1306 3334 1642 3459 
Q 1978 3584 2356 3584 
Q 2950 3584 3301 3228 
Q 3653 2872 3653 2272 
Q 3653 2128 3634 1964 
Q 3616 1800 3578 1613 
z
" id="DejaVuSans-Oblique-435" transform="scale(0.015625)"/>
       <path d="M 922 3500 
L 1494 3500 
L 1175 1856 
L 3116 3500 
L 3822 3500 
L 2222 2147 
L 3313 0 
L 2669 0 
L 1772 1766 
L 1034 1141 
L 813 0 
L 241 0 
L 922 3500 
z
" id="DejaVuSans-Oblique-43a" transform="scale(0.015625)"/>
       <path d="M 684 794 
L 1344 794 
L 1344 0 
L 684 0 
L 684 794 
z
" id="DejaVuSans-2e" transform="scale(0.015625)"/>
      </defs>
      <use transform="translate(0 0.78125)" xlink:href="#DejaVuSans-Oblique-74"/>
      <use transform="translate(39.208984 0.78125)" xlink:href="#DejaVuSans-2c"/>
      <use transform="translate(90.478516 0.78125)" xlink:href="#DejaVuSans-Oblique-441"/>
      <use transform="translate(145.458984 0.78125)" xlink:href="#DejaVuSans-Oblique-435"/>
      <use transform="translate(206.982422 0.78125)" xlink:href="#DejaVuSans-Oblique-43a"/>
      <use transform="translate(267.382812 0.78125)" xlink:href="#DejaVuSans-2e"/>
     </g>
    </g>
   </g>
   <g id="matplotlib.axis_2">
    <g id="ytick_1">
     <g id="line2d_55">
      <path clip-path="url(#pbcc150e54c)" d="M 57.6 296.471415 
L 414.72 296.471415 
" style="fill:none;stroke:#000000;stroke-linecap:square;stroke-width:0.3;"/>
     </g>
     <g id="line2d_56">
      <defs>
       <path d="M 0 0 
L -3.5 0 
" id="m22c6a5b9a9" style="stroke:#000000;stroke-width:0.8;"/>
      </defs>
      <g>
       <use style="stroke:#000000;stroke-width:0.8;" x="57.6" xlink:href="#m22c6a5b9a9" y="296.471415"/>
      </g>
     </g>
     <g id="text_9">
      <!-- 0.0 -->
      <g transform="translate(34.696875 300.270633)scale(0.1 -0.1)">
       <use xlink:href="#DejaVuSans-30"/>
       <use x="63.623047" xlink:href="#DejaVuSans-2e"/>
       <use x="95.410156" xlink:href="#DejaVuSans-30"/>
      </g>
     </g>
    </g>
    <g id="ytick_2">
     <g id="line2d_57">
      <path clip-path="url(#pbcc150e54c)" d="M 57.6 251.770749 
L 414.72 251.770749 
" style="fill:none;stroke:#000000;stroke-linecap:square;stroke-width:0.3;"/>
     </g>
     <g id="line2d_58">
      <g>
       <use style="stroke:#000000;stroke-width:0.8;" x="57.6" xlink:href="#m22c6a5b9a9" y="251.770749"/>
      </g>
     </g>
     <g id="text_10">
      <!-- 0.5 -->
      <g transform="translate(34.696875 255.569968)scale(0.1 -0.1)">
       <defs>
        <path d="M 691 4666 
L 3169 4666 
L 3169 4134 
L 1269 4134 
L 1269 2991 
Q 1406 3038 1543 3061 
Q 1681 3084 1819 3084 
Q 2600 3084 3056 2656 
Q 3513 2228 3513 1497 
Q 3513 744 3044 326 
Q 2575 -91 1722 -91 
Q 1428 -91 1123 -41 
Q 819 9 494 109 
L 494 744 
Q 775 591 1075 516 
Q 1375 441 1709 441 
Q 2250 441 2565 725 
Q 2881 1009 2881 1497 
Q 2881 1984 2565 2268 
Q 2250 2553 1709 2553 
Q 1456 2553 1204 2497 
Q 953 2441 691 2322 
L 691 4666 
z
" id="DejaVuSans-35" transform="scale(0.015625)"/>
       </defs>
       <use xlink:href="#DejaVuSans-30"/>
       <use x="63.623047" xlink:href="#DejaVuSans-2e"/>
       <use x="95.410156" xlink:href="#DejaVuSans-35"/>
      </g>
     </g>
    </g>
    <g id="ytick_3">
     <g id="line2d_59">
      <path clip-path="url(#pbcc150e54c)" d="M 57.6 207.070084 
L 414.72 207.070084 
" style="fill:none;stroke:#000000;stroke-linecap:square;stroke-width:0.3;"/>
     </g>
     <g id="line2d_60">
      <g>
       <use style="stroke:#000000;stroke-width:0.8;" x="57.6" xlink:href="#m22c6a5b9a9" y="207.070084"/>
      </g>
     </g>
     <g id="text_11">
      <!-- 1.0 -->
      <g transform="translate(34.696875 210.869303)scale(0.1 -0.1)">
       <use xlink:href="#DejaVuSans-31"/>
       <use x="63.623047" xlink:href="#DejaVuSans-2e"/>
       <use x="95.410156" xlink:href="#DejaVuSans-30"/>
      </g>
     </g>
    </g>
    <g id="ytick_4">
     <g id="line2d_61">
      <path clip-path="url(#pbcc150e54c)" d="M 57.6 162.369419 
L 414.72 162.369419 
" style="fill:none;stroke:#000000;stroke-linecap:square;stroke-width:0.3;"/>
     </g>
     <g id="line2d_62">
      <g>
       <use style="stroke:#000000;stroke-width:0.8;" x="57.6" xlink:href="#m22c6a5b9a9" y="162.369419"/>
      </g>
     </g>
     <g id="text_12">
      <!-- 1.5 -->
      <g transform="translate(34.696875 166.168638)scale(0.1 -0.1)">
       <use xlink:href="#DejaVuSans-31"/>
       <use x="63.623047" xlink:href="#DejaVuSans-2e"/>
       <use x="95.410156" xlink:href="#DejaVuSans-35"/>
      </g>
     </g>
    </g>
    <g id="ytick_5">
     <g id="line2d_63">
      <path clip-path="url(#pbcc150e54c)" d="M 57.6 117.668754 
L 414.72 117.668754 
" style="fill:none;stroke:#000000;stroke-linecap:square;stroke-width:0.3;"/>
     </g>
     <g id="line2d_64">
      <g>
       <use style="stroke:#000000;stroke-width:0.8;" x="57.6" xlink:href="#m22c6a5b9a9" y="117.668754"/>
      </g>
     </g>
     <g id="text_13">
      <!-- 2.0 -->
      <g transform="translate(34.696875 121.467973)scale(0.1 -0.1)">
       <use xlink:href="#DejaVuSans-32"/>
       <use x="63.623047" xlink:href="#DejaVuSans-2e"/>
       <use x="95.410156" xlink:href="#DejaVuSans-30"/>
      </g>
     </g>
    </g>
    <g id="ytick_6">
     <g id="line2d_65">
      <path clip-path="url(#pbcc150e54c)" d="M 57.6 72.968089 
L 414.72 72.968089 
" style="fill:none;stroke:#000000;stroke-linecap:square;stroke-width:0.3;"/>
     </g>
     <g id="line2d_66">
      <g>
       <use style="stroke:#000000;stroke-width:0.8;" x="57.6" xlink:href="#m22c6a5b9a9" y="72.968089"/>
      </g>
     </g>
     <g id="text_14">
      <!-- 2.5 -->
      <g transform="translate(34.696875 76.767307)scale(0.1 -0.1)">
       <use xlink:href="#DejaVuSans-32"/>
       <use x="63.623047" xlink:href="#DejaVuSans-2e"/>
       <use x="95.410156" xlink:href="#DejaVuSans-35"/>
      </g>
     </g>
    </g>
    <g id="ytick_7">
     <g id="line2d_67">
      <path clip-path="url(#pbcc150e54c)" d="M 57.6 305.411548 
L 414.72 305.411548 
" style="fill:none;stroke:#000000;stroke-dasharray:0.2,0.33;stroke-dashoffset:0;stroke-width:0.2;"/>
     </g>
     <g id="line2d_68">
      <defs>
       <path d="M 0 0 
L -2 0 
" id="m90c6c08a95" style="stroke:#000000;stroke-width:0.6;"/>
      </defs>
      <g>
       <use style="stroke:#000000;stroke-width:0.6;" x="57.6" xlink:href="#m90c6c08a95" y="305.411548"/>
      </g>
     </g>
    </g>
    <g id="ytick_8">
     <g id="line2d_69">
      <path clip-path="url(#pbcc150e54c)" d="M 57.6 287.531282 
L 414.72 287.531282 
" style="fill:none;stroke:#000000;stroke-dasharray:0.2,0.33;stroke-dashoffset:0;stroke-width:0.2;"/>
     </g>
     <g id="line2d_70">
      <g>
       <use style="stroke:#000000;stroke-width:0.6;" x="57.6" xlink:href="#m90c6c08a95" y="287.531282"/>
      </g>
     </g>
    </g>
    <g id="ytick_9">
     <g id="line2d_71">
      <path clip-path="url(#pbcc150e54c)" d="M 57.6 278.591149 
L 414.72 278.591149 
" style="fill:none;stroke:#000000;stroke-dasharray:0.2,0.33;stroke-dashoffset:0;stroke-width:0.2;"/>
     </g>
     <g id="line2d_72">
      <g>
       <use style="stroke:#000000;stroke-width:0.6;" x="57.6" xlink:href="#m90c6c08a95" y="278.591149"/>
      </g>
     </g>
    </g>
    <g id="ytick_10">
     <g id="line2d_73">
      <path clip-path="url(#pbcc150e54c)" d="M 57.6 269.651016 
L 414.72 269.651016 
" style="fill:none;stroke:#000000;stroke-dasharray:0.2,0.33;stroke-dashoffset:0;stroke-width:0.2;"/>
     </g>
     <g id="line2d_74">
      <g>
       <use style="stroke:#000000;stroke-width:0.6;" x="57.6" xlink:href="#m90c6c08a95" y="269.651016"/>
      </g>
     </g>
    </g>
    <g id="ytick_11">
     <g id="line2d_75">
      <path clip-path="url(#pbcc150e54c)" d="M 57.6 260.710882 
L 414.72 260.710882 
" style="fill:none;stroke:#000000;stroke-dasharray:0.2,0.33;stroke-dashoffset:0;stroke-width:0.2;"/>
     </g>
     <g id="line2d_76">
      <g>
       <use style="stroke:#000000;stroke-width:0.6;" x="57.6" xlink:href="#m90c6c08a95" y="260.710882"/>
      </g>
     </g>
    </g>
    <g id="ytick_12">
     <g id="line2d_77">
      <path clip-path="url(#pbcc150e54c)" d="M 57.6 242.830616 
L 414.72 242.830616 
" style="fill:none;stroke:#000000;stroke-dasharray:0.2,0.33;stroke-dashoffset:0;stroke-width:0.2;"/>
     </g>
     <g id="line2d_78">
      <g>
       <use style="stroke:#000000;stroke-width:0.6;" x="57.6" xlink:href="#m90c6c08a95" y="242.830616"/>
      </g>
     </g>
    </g>
    <g id="ytick_13">
     <g id="line2d_79">
      <path clip-path="url(#pbcc150e54c)" d="M 57.6 233.890483 
L 414.72 233.890483 
" style="fill:none;stroke:#000000;stroke-dasharray:0.2,0.33;stroke-dashoffset:0;stroke-width:0.2;"/>
     </g>
     <g id="line2d_80">
      <g>
       <use style="stroke:#000000;stroke-width:0.6;" x="57.6" xlink:href="#m90c6c08a95" y="233.890483"/>
      </g>
     </g>
    </g>
    <g id="ytick_14">
     <g id="line2d_81">
      <path clip-path="url(#pbcc150e54c)" d="M 57.6 224.95035 
L 414.72 224.95035 
" style="fill:none;stroke:#000000;stroke-dasharray:0.2,0.33;stroke-dashoffset:0;stroke-width:0.2;"/>
     </g>
     <g id="line2d_82">
      <g>
       <use style="stroke:#000000;stroke-width:0.6;" x="57.6" xlink:href="#m90c6c08a95" y="224.95035"/>
      </g>
     </g>
    </g>
    <g id="ytick_15">
     <g id="line2d_83">
      <path clip-path="url(#pbcc150e54c)" d="M 57.6 216.010217 
L 414.72 216.010217 
" style="fill:none;stroke:#000000;stroke-dasharray:0.2,0.33;stroke-dashoffset:0;stroke-width:0.2;"/>
     </g>
     <g id="line2d_84">
      <g>
       <use style="stroke:#000000;stroke-width:0.6;" x="57.6" xlink:href="#m90c6c08a95" y="216.010217"/>
      </g>
     </g>
    </g>
    <g id="ytick_16">
     <g id="line2d_85">
      <path clip-path="url(#pbcc150e54c)" d="M 57.6 198.129951 
L 414.72 198.129951 
" style="fill:none;stroke:#000000;stroke-dasharray:0.2,0.33;stroke-dashoffset:0;stroke-width:0.2;"/>
     </g>
     <g id="line2d_86">
      <g>
       <use style="stroke:#000000;stroke-width:0.6;" x="57.6" xlink:href="#m90c6c08a95" y="198.129951"/>
      </g>
     </g>
    </g>
    <g id="ytick_17">
     <g id="line2d_87">
      <path clip-path="url(#pbcc150e54c)" d="M 57.6 189.189818 
L 414.72 189.189818 
" style="fill:none;stroke:#000000;stroke-dasharray:0.2,0.33;stroke-dashoffset:0;stroke-width:0.2;"/>
     </g>
     <g id="line2d_88">
      <g>
       <use style="stroke:#000000;stroke-width:0.6;" x="57.6" xlink:href="#m90c6c08a95" y="189.189818"/>
      </g>
     </g>
    </g>
    <g id="ytick_18">
     <g id="line2d_89">
      <path clip-path="url(#pbcc150e54c)" d="M 57.6 180.249685 
L 414.72 180.249685 
" style="fill:none;stroke:#000000;stroke-dasharray:0.2,0.33;stroke-dashoffset:0;stroke-width:0.2;"/>
     </g>
     <g id="line2d_90">
      <g>
       <use style="stroke:#000000;stroke-width:0.6;" x="57.6" xlink:href="#m90c6c08a95" y="180.249685"/>
      </g>
     </g>
    </g>
    <g id="ytick_19">
     <g id="line2d_91">
      <path clip-path="url(#pbcc150e54c)" d="M 57.6 171.309552 
L 414.72 171.309552 
" style="fill:none;stroke:#000000;stroke-dasharray:0.2,0.33;stroke-dashoffset:0;stroke-width:0.2;"/>
     </g>
     <g id="line2d_92">
      <g>
       <use style="stroke:#000000;stroke-width:0.6;" x="57.6" xlink:href="#m90c6c08a95" y="171.309552"/>
      </g>
     </g>
    </g>
    <g id="ytick_20">
     <g id="line2d_93">
      <path clip-path="url(#pbcc150e54c)" d="M 57.6 153.429286 
L 414.72 153.429286 
" style="fill:none;stroke:#000000;stroke-dasharray:0.2,0.33;stroke-dashoffset:0;stroke-width:0.2;"/>
     </g>
     <g id="line2d_94">
      <g>
       <use style="stroke:#000000;stroke-width:0.6;" x="57.6" xlink:href="#m90c6c08a95" y="153.429286"/>
      </g>
     </g>
    </g>
    <g id="ytick_21">
     <g id="line2d_95">
      <path clip-path="url(#pbcc150e54c)" d="M 57.6 144.489153 
L 414.72 144.489153 
" style="fill:none;stroke:#000000;stroke-dasharray:0.2,0.33;stroke-dashoffset:0;stroke-width:0.2;"/>
     </g>
     <g id="line2d_96">
      <g>
       <use style="stroke:#000000;stroke-width:0.6;" x="57.6" xlink:href="#m90c6c08a95" y="144.489153"/>
      </g>
     </g>
    </g>
    <g id="ytick_22">
     <g id="line2d_97">
      <path clip-path="url(#pbcc150e54c)" d="M 57.6 135.54902 
L 414.72 135.54902 
" style="fill:none;stroke:#000000;stroke-dasharray:0.2,0.33;stroke-dashoffset:0;stroke-width:0.2;"/>
     </g>
     <g id="line2d_98">
      <g>
       <use style="stroke:#000000;stroke-width:0.6;" x="57.6" xlink:href="#m90c6c08a95" y="135.54902"/>
      </g>
     </g>
    </g>
    <g id="ytick_23">
     <g id="line2d_99">
      <path clip-path="url(#pbcc150e54c)" d="M 57.6 126.608887 
L 414.72 126.608887 
" style="fill:none;stroke:#000000;stroke-dasharray:0.2,0.33;stroke-dashoffset:0;stroke-width:0.2;"/>
     </g>
     <g id="line2d_100">
      <g>
       <use style="stroke:#000000;stroke-width:0.6;" x="57.6" xlink:href="#m90c6c08a95" y="126.608887"/>
      </g>
     </g>
    </g>
    <g id="ytick_24">
     <g id="line2d_101">
      <path clip-path="url(#pbcc150e54c)" d="M 57.6 108.728621 
L 414.72 108.728621 
" style="fill:none;stroke:#000000;stroke-dasharray:0.2,0.33;stroke-dashoffset:0;stroke-width:0.2;"/>
     </g>
     <g id="line2d_102">
      <g>
       <use style="stroke:#000000;stroke-width:0.6;" x="57.6" xlink:href="#m90c6c08a95" y="108.728621"/>
      </g>
     </g>
    </g>
    <g id="ytick_25">
     <g id="line2d_103">
      <path clip-path="url(#pbcc150e54c)" d="M 57.6 99.788488 
L 414.72 99.788488 
" style="fill:none;stroke:#000000;stroke-dasharray:0.2,0.33;stroke-dashoffset:0;stroke-width:0.2;"/>
     </g>
     <g id="line2d_104">
      <g>
       <use style="stroke:#000000;stroke-width:0.6;" x="57.6" xlink:href="#m90c6c08a95" y="99.788488"/>
      </g>
     </g>
    </g>
    <g id="ytick_26">
     <g id="line2d_105">
      <path clip-path="url(#pbcc150e54c)" d="M 57.6 90.848355 
L 414.72 90.848355 
" style="fill:none;stroke:#000000;stroke-dasharray:0.2,0.33;stroke-dashoffset:0;stroke-width:0.2;"/>
     </g>
     <g id="line2d_106">
      <g>
       <use style="stroke:#000000;stroke-width:0.6;" x="57.6" xlink:href="#m90c6c08a95" y="90.848355"/>
      </g>
     </g>
    </g>
    <g id="ytick_27">
     <g id="line2d_107">
      <path clip-path="url(#pbcc150e54c)" d="M 57.6 81.908222 
L 414.72 81.908222 
" style="fill:none;stroke:#000000;stroke-dasharray:0.2,0.33;stroke-dashoffset:0;stroke-width:0.2;"/>
     </g>
     <g id="line2d_108">
      <g>
       <use style="stroke:#000000;stroke-width:0.6;" x="57.6" xlink:href="#m90c6c08a95" y="81.908222"/>
      </g>
     </g>
    </g>
    <g id="ytick_28">
     <g id="line2d_109">
      <path clip-path="url(#pbcc150e54c)" d="M 57.6 64.027956 
L 414.72 64.027956 
" style="fill:none;stroke:#000000;stroke-dasharray:0.2,0.33;stroke-dashoffset:0;stroke-width:0.2;"/>
     </g>
     <g id="line2d_110">
      <g>
       <use style="stroke:#000000;stroke-width:0.6;" x="57.6" xlink:href="#m90c6c08a95" y="64.027956"/>
      </g>
     </g>
    </g>
    <g id="ytick_29">
     <g id="line2d_111">
      <path clip-path="url(#pbcc150e54c)" d="M 57.6 55.087823 
L 414.72 55.087823 
" style="fill:none;stroke:#000000;stroke-dasharray:0.2,0.33;stroke-dashoffset:0;stroke-width:0.2;"/>
     </g>
     <g id="line2d_112">
      <g>
       <use style="stroke:#000000;stroke-width:0.6;" x="57.6" xlink:href="#m90c6c08a95" y="55.087823"/>
      </g>
     </g>
    </g>
    <g id="ytick_30">
     <g id="line2d_113">
      <path clip-path="url(#pbcc150e54c)" d="M 57.6 46.14769 
L 414.72 46.14769 
" style="fill:none;stroke:#000000;stroke-dasharray:0.2,0.33;stroke-dashoffset:0;stroke-width:0.2;"/>
     </g>
     <g id="line2d_114">
      <g>
       <use style="stroke:#000000;stroke-width:0.6;" x="57.6" xlink:href="#m90c6c08a95" y="46.14769"/>
      </g>
     </g>
    </g>
    <g id="text_15">
     <!-- $U, В.$ -->
     <g transform="translate(28.617188 186.778)rotate(-90)scale(0.1 -0.1)">
      <defs>
       <path d="M 991 4666 
L 1625 4666 
L 1075 1831 
Q 1041 1641 1027 1517 
Q 1013 1394 1013 1300 
Q 1013 869 1253 645 
Q 1494 422 1959 422 
Q 2563 422 2898 753 
Q 3234 1084 3378 1831 
L 3928 4666 
L 4563 4666 
L 4000 1753 
Q 3816 809 3300 359 
Q 2784 -91 1888 -91 
Q 1188 -91 780 261 
Q 372 613 372 1216 
Q 372 1325 387 1461 
Q 403 1597 434 1753 
L 991 4666 
z
" id="DejaVuSans-Oblique-55" transform="scale(0.015625)"/>
       <path d="M 1081 4666 
L 2694 4666 
Q 3350 4666 3675 4422 
Q 4000 4178 4000 3688 
Q 4000 3238 3720 2911 
Q 3441 2584 2988 2516 
Q 3375 2428 3569 2181 
Q 3763 1934 3763 1522 
Q 3763 819 3242 409 
Q 2722 0 1819 0 
L 172 0 
L 1081 4666 
z
M 1234 2228 
L 903 519 
L 1919 519 
Q 2491 519 2800 781 
Q 3109 1044 3109 1522 
Q 3109 1891 2904 2059 
Q 2700 2228 2247 2228 
L 1234 2228 
z
M 1606 4147 
L 1331 2741 
L 2272 2741 
Q 2775 2741 3058 2959 
Q 3341 3178 3341 3566 
Q 3341 3869 3150 4008 
Q 2959 4147 2541 4147 
L 1606 4147 
z
" id="DejaVuSans-Oblique-412" transform="scale(0.015625)"/>
      </defs>
      <use transform="translate(0 0.09375)" xlink:href="#DejaVuSans-Oblique-55"/>
      <use transform="translate(73.193359 0.09375)" xlink:href="#DejaVuSans-2c"/>
      <use transform="translate(124.462891 0.09375)" xlink:href="#DejaVuSans-Oblique-412"/>
      <use transform="translate(193.066406 0.09375)" xlink:href="#DejaVuSans-2e"/>
     </g>
    </g>
   </g>
   <g id="line2d_115">
    <path clip-path="url(#pbcc150e54c)" d="M 73.832727 295.488 
L 73.832727 291.554341 
L 74.194661 291.554341 
L 74.194661 289.587512 
L 74.556595 289.587512 
L 74.556595 287.620683 
L 74.918528 287.620683 
L 74.918528 285.653854 
L 75.280462 285.653854 
L 75.280462 281.720195 
L 75.642396 281.720195 
L 75.642396 279.753366 
L 76.00433 279.753366 
L 76.00433 277.786537 
L 76.366263 277.786537 
L 76.366263 273.852878 
L 77.090131 273.852878 
L 77.090131 269.91922 
L 77.813998 269.91922 
L 77.813998 265.985561 
L 78.537866 265.985561 
L 78.537866 260.085073 
L 78.899799 260.085073 
L 78.899799 258.118244 
L 79.261733 258.118244 
L 79.261733 256.151415 
L 79.623667 256.151415 
L 79.623667 254.184585 
L 79.9856 254.184585 
L 79.9856 252.217756 
L 80.347534 252.217756 
L 80.347534 250.250927 
L 80.709468 250.250927 
L 80.709468 248.284098 
L 81.071402 248.284098 
L 81.071402 246.317268 
L 81.433335 246.317268 
L 81.433335 244.350439 
L 81.795269 244.350439 
L 81.795269 242.38361 
L 82.157203 242.38361 
L 82.157203 240.41678 
L 82.519137 240.41678 
L 82.519137 238.449951 
L 82.88107 238.449951 
L 82.88107 236.483122 
L 83.243004 236.483122 
L 83.243004 234.516293 
L 83.966871 234.516293 
L 83.966871 230.582634 
L 84.328805 230.582634 
L 84.328805 228.615805 
L 84.690739 228.615805 
L 84.690739 226.648976 
L 85.052673 226.648976 
L 85.052673 224.682146 
L 85.414606 224.682146 
L 85.414606 222.715317 
L 86.138474 222.715317 
L 86.138474 218.781659 
L 86.862341 218.781659 
L 86.862341 216.814829 
L 87.224275 216.814829 
L 87.224275 214.848 
L 87.586209 214.848 
L 87.586209 212.881171 
L 87.948142 212.881171 
L 87.948142 210.914341 
L 88.310076 210.914341 
L 88.310076 208.947512 
L 88.67201 208.947512 
L 88.67201 206.980683 
L 89.033943 206.980683 
L 89.033943 205.013854 
L 89.395877 205.013854 
L 89.395877 203.047024 
L 90.119745 203.047024 
L 90.119745 201.080195 
L 90.481678 201.080195 
L 90.481678 199.113366 
L 90.843612 199.113366 
L 90.843612 197.146537 
L 91.205546 197.146537 
L 91.205546 195.179707 
L 91.929413 195.179707 
L 91.929413 193.212878 
L 92.291347 193.212878 
L 92.291347 191.246049 
L 92.653281 191.246049 
L 92.653281 189.27922 
L 93.015214 189.27922 
L 93.015214 187.31239 
L 93.739082 187.31239 
L 93.739082 185.345561 
L 94.101016 185.345561 
L 94.101016 183.378732 
L 94.824883 183.378732 
L 94.824883 181.411902 
L 95.186817 181.411902 
L 95.186817 179.445073 
L 95.910684 179.445073 
L 95.910684 177.478244 
L 96.272618 177.478244 
L 96.272618 175.511415 
L 96.996485 175.511415 
L 96.996485 173.544585 
L 97.358419 173.544585 
L 97.358419 171.577756 
L 98.44422 171.577756 
L 98.44422 167.644098 
L 99.168088 167.644098 
L 99.168088 165.677268 
L 99.891955 165.677268 
L 99.891955 163.710439 
L 100.253889 163.710439 
L 100.253889 161.74361 
L 100.977756 161.74361 
L 100.977756 159.77678 
L 101.701624 159.77678 
L 101.701624 157.809951 
L 102.063557 157.809951 
L 102.063557 155.843122 
L 103.149358 155.843122 
L 103.149358 153.876293 
L 103.511292 153.876293 
L 103.511292 151.909463 
L 104.597093 151.909463 
L 104.597093 149.942634 
L 104.959027 149.942634 
L 104.959027 147.975805 
L 105.682894 147.975805 
L 105.682894 146.008976 
L 106.406762 146.008976 
L 106.406762 144.042146 
L 107.130629 144.042146 
L 107.130629 142.075317 
L 107.854497 142.075317 
L 107.854497 140.108488 
L 109.302232 140.108488 
L 109.302232 136.174829 
L 110.388033 136.174829 
L 110.388033 134.208 
L 111.1119 134.208 
L 111.1119 132.241171 
L 112.197701 132.241171 
L 112.197701 130.274341 
L 112.921569 130.274341 
L 112.921569 128.307512 
L 113.645436 128.307512 
L 113.645436 126.340683 
L 115.093171 126.340683 
L 115.093171 124.373854 
L 115.455105 124.373854 
L 115.455105 122.407024 
L 116.540906 122.407024 
L 116.540906 120.440195 
L 117.626707 120.440195 
L 117.626707 118.473366 
L 118.350575 118.473366 
L 118.350575 116.506537 
L 119.79831 116.506537 
L 119.79831 114.539707 
L 120.522177 114.539707 
L 120.522177 112.572878 
L 121.607978 112.572878 
L 121.607978 110.606049 
L 123.055713 110.606049 
L 123.055713 108.63922 
L 123.417647 108.63922 
L 123.417647 106.67239 
L 125.951183 106.67239 
L 125.951183 104.705561 
L 126.313116 104.705561 
L 126.313116 102.738732 
L 128.122785 102.738732 
L 128.122785 100.771902 
L 129.57052 100.771902 
L 129.57052 98.805073 
L 130.656321 98.805073 
L 130.656321 96.838244 
L 131.742122 96.838244 
L 131.742122 94.871415 
L 133.551791 94.871415 
L 133.551791 92.904585 
L 135.361459 92.904585 
L 135.361459 90.937756 
L 137.171128 90.937756 
L 137.171128 88.970927 
L 138.980797 88.970927 
L 138.980797 87.004098 
L 140.066598 87.004098 
L 140.066598 85.037268 
L 140.428531 85.037268 
L 140.428531 87.004098 
L 140.790465 87.004098 
L 140.790465 85.037268 
L 142.2382 85.037268 
L 142.2382 83.070439 
L 145.13367 83.070439 
L 145.13367 81.10361 
L 147.305272 81.10361 
L 147.305272 79.13678 
L 149.476874 79.13678 
L 149.476874 77.169951 
L 151.286543 77.169951 
L 151.286543 75.203122 
L 155.629748 75.203122 
L 155.629748 73.236293 
L 158.887151 73.236293 
L 158.887151 71.269463 
L 159.249085 71.269463 
L 159.249085 73.236293 
L 159.611019 73.236293 
L 159.611019 71.269463 
L 161.782621 71.269463 
L 161.782621 69.302634 
L 162.144555 69.302634 
L 162.144555 71.269463 
L 162.506488 71.269463 
L 162.506488 69.302634 
L 166.125825 69.302634 
L 166.125825 67.335805 
L 169.745163 67.335805 
L 169.745163 65.368976 
L 173.3645 65.368976 
L 173.3645 63.402146 
L 173.726434 63.402146 
L 173.726434 65.368976 
L 174.450301 65.368976 
L 174.450301 63.402146 
L 178.069638 63.402146 
L 178.069638 61.435317 
L 178.431572 61.435317 
L 178.431572 63.402146 
L 179.155439 63.402146 
L 179.155439 61.435317 
L 179.517373 61.435317 
L 179.517373 63.402146 
L 180.24124 63.402146 
L 180.24124 61.435317 
L 183.498644 61.435317 
L 183.498644 59.468488 
L 183.860578 59.468488 
L 183.860578 61.435317 
L 184.584445 61.435317 
L 184.584445 59.468488 
L 185.308313 59.468488 
L 185.308313 61.435317 
L 186.756047 61.435317 
L 186.756047 59.468488 
L 193.994722 59.468488 
L 193.994722 57.501659 
L 194.356656 57.501659 
L 194.356656 59.468488 
L 194.718589 59.468488 
L 194.718589 57.501659 
L 203.043065 57.501659 
L 203.043065 55.534829 
L 203.766932 55.534829 
L 203.766932 57.501659 
L 204.4908 57.501659 
L 204.4908 55.534829 
L 205.214667 55.534829 
L 205.214667 57.501659 
L 205.576601 57.501659 
L 205.576601 55.534829 
L 212.091408 55.534829 
L 212.091408 53.568 
L 212.453341 53.568 
L 212.453341 57.501659 
L 212.815275 57.501659 
L 212.815275 59.468488 
L 213.539143 59.468488 
L 213.539143 63.402146 
L 213.901076 63.402146 
L 213.901076 65.368976 
L 214.26301 65.368976 
L 214.26301 67.335805 
L 214.624944 67.335805 
L 214.624944 71.269463 
L 215.348811 71.269463 
L 215.348811 75.203122 
L 216.072679 75.203122 
L 216.072679 79.13678 
L 216.434612 79.13678 
L 216.434612 81.10361 
L 216.796546 81.10361 
L 216.796546 83.070439 
L 217.520413 83.070439 
L 217.520413 87.004098 
L 218.244281 87.004098 
L 218.244281 88.970927 
L 218.606215 88.970927 
L 218.606215 90.937756 
L 218.968148 90.937756 
L 218.968148 92.904585 
L 219.330082 92.904585 
L 219.330082 94.871415 
L 219.692016 94.871415 
L 219.692016 96.838244 
L 220.05395 96.838244 
L 220.05395 98.805073 
L 220.415883 98.805073 
L 220.415883 100.771902 
L 220.777817 100.771902 
L 220.777817 102.738732 
L 221.139751 102.738732 
L 221.139751 104.705561 
L 221.501684 104.705561 
L 221.501684 106.67239 
L 222.225552 106.67239 
L 222.225552 108.63922 
L 222.587486 108.63922 
L 222.587486 110.606049 
L 222.949419 110.606049 
L 222.949419 112.572878 
L 223.311353 112.572878 
L 223.311353 114.539707 
L 223.673287 114.539707 
L 223.673287 116.506537 
L 224.397154 116.506537 
L 224.397154 120.440195 
L 225.121022 120.440195 
L 225.121022 122.407024 
L 225.844889 122.407024 
L 225.844889 124.373854 
L 226.206823 124.373854 
L 226.206823 126.340683 
L 226.568756 126.340683 
L 226.568756 128.307512 
L 226.93069 128.307512 
L 226.93069 130.274341 
L 227.292624 130.274341 
L 227.292624 132.241171 
L 228.016491 132.241171 
L 228.016491 134.208 
L 228.378425 134.208 
L 228.378425 136.174829 
L 228.740359 136.174829 
L 228.740359 138.141659 
L 229.102292 138.141659 
L 229.102292 140.108488 
L 229.82616 140.108488 
L 229.82616 142.075317 
L 230.188094 142.075317 
L 230.188094 144.042146 
L 230.911961 144.042146 
L 230.911961 146.008976 
L 231.635829 146.008976 
L 231.635829 147.975805 
L 231.997762 147.975805 
L 231.997762 149.942634 
L 232.359696 149.942634 
L 232.359696 151.909463 
L 233.083563 151.909463 
L 233.083563 153.876293 
L 233.807431 153.876293 
L 233.807431 155.843122 
L 234.169365 155.843122 
L 234.169365 157.809951 
L 234.893232 157.809951 
L 234.893232 159.77678 
L 235.255166 159.77678 
L 235.255166 161.74361 
L 235.979033 161.74361 
L 235.979033 163.710439 
L 236.702901 163.710439 
L 236.702901 165.677268 
L 237.426768 165.677268 
L 237.426768 167.644098 
L 238.150635 167.644098 
L 238.150635 169.610927 
L 238.874503 169.610927 
L 238.874503 171.577756 
L 239.59837 171.577756 
L 239.59837 173.544585 
L 240.322238 173.544585 
L 240.322238 175.511415 
L 240.684171 175.511415 
L 240.684171 177.478244 
L 241.769973 177.478244 
L 241.769973 179.445073 
L 242.49384 179.445073 
L 242.49384 181.411902 
L 243.217708 181.411902 
L 243.217708 183.378732 
L 243.579641 183.378732 
L 243.579641 185.345561 
L 244.665442 185.345561 
L 244.665442 187.31239 
L 245.38931 187.31239 
L 245.38931 189.27922 
L 246.113177 189.27922 
L 246.113177 191.246049 
L 246.837045 191.246049 
L 246.837045 193.212878 
L 247.922846 193.212878 
L 247.922846 195.179707 
L 248.646713 195.179707 
L 248.646713 197.146537 
L 249.370581 197.146537 
L 249.370581 199.113366 
L 250.094448 199.113366 
L 250.094448 201.080195 
L 251.542183 201.080195 
L 251.542183 203.047024 
L 251.904117 203.047024 
L 251.904117 205.013854 
L 252.989918 205.013854 
L 252.989918 206.980683 
L 253.713785 206.980683 
L 253.713785 208.947512 
L 255.16152 208.947512 
L 255.16152 210.914341 
L 255.885388 210.914341 
L 255.885388 212.881171 
L 256.971189 212.881171 
L 256.971189 214.848 
L 257.695056 214.848 
L 257.695056 216.814829 
L 258.780857 216.814829 
L 258.780857 218.781659 
L 260.228592 218.781659 
L 260.228592 220.748488 
L 261.314393 220.748488 
L 261.314393 222.715317 
L 262.400195 222.715317 
L 262.400195 224.682146 
L 263.847929 224.682146 
L 263.847929 226.648976 
L 264.571797 226.648976 
L 264.571797 228.615805 
L 266.019532 228.615805 
L 266.019532 230.582634 
L 267.105333 230.582634 
L 267.105333 232.549463 
L 267.8292 232.549463 
L 267.8292 234.516293 
L 270.362736 234.516293 
L 270.362736 236.483122 
L 271.448538 236.483122 
L 271.448538 238.449951 
L 272.534339 238.449951 
L 272.534339 240.41678 
L 274.344007 240.41678 
L 274.344007 242.38361 
L 275.791742 242.38361 
L 275.791742 244.350439 
L 276.877543 244.350439 
L 276.877543 246.317268 
L 278.687212 246.317268 
L 278.687212 248.284098 
L 280.496881 248.284098 
L 280.496881 250.250927 
L 280.858814 250.250927 
L 280.858814 248.284098 
L 281.220748 248.284098 
L 281.220748 250.250927 
L 282.306549 250.250927 
L 282.306549 252.217756 
L 284.116218 252.217756 
L 284.116218 254.184585 
L 285.925886 254.184585 
L 285.925886 256.151415 
L 287.735555 256.151415 
L 287.735555 258.118244 
L 290.269091 258.118244 
L 290.269091 260.085073 
L 292.07876 260.085073 
L 292.07876 262.051902 
L 293.888428 262.051902 
L 293.888428 264.018732 
L 294.250362 264.018732 
L 294.250362 262.051902 
L 294.612296 262.051902 
L 294.612296 264.018732 
L 296.06003 264.018732 
L 296.06003 265.985561 
L 300.041301 265.985561 
L 300.041301 267.95239 
L 302.936771 267.95239 
L 302.936771 269.91922 
L 305.108373 269.91922 
L 305.108373 271.886049 
L 308.727711 271.886049 
L 308.727711 273.852878 
L 312.708981 273.852878 
L 312.708981 275.819707 
L 315.966385 275.819707 
L 315.966385 277.786537 
L 316.328319 277.786537 
L 316.328319 275.819707 
L 316.690252 275.819707 
L 316.690252 277.786537 
L 321.033457 277.786537 
L 321.033457 279.753366 
L 324.652794 279.753366 
L 324.652794 281.720195 
L 330.805667 281.720195 
L 330.805667 283.687024 
L 336.958541 283.687024 
L 336.958541 285.653854 
L 337.320474 285.653854 
L 337.320474 283.687024 
L 337.682408 283.687024 
L 337.682408 285.653854 
L 343.835281 285.653854 
L 343.835281 287.620683 
L 351.797823 287.620683 
L 351.797823 289.587512 
L 352.159757 289.587512 
L 352.159757 287.620683 
L 353.607492 287.620683 
L 353.607492 289.587512 
L 354.331359 289.587512 
L 354.331359 287.620683 
L 354.693293 287.620683 
L 354.693293 289.587512 
L 362.293901 289.587512 
L 362.293901 291.554341 
L 362.655835 291.554341 
L 362.655835 289.587512 
L 365.913238 289.587512 
L 365.913238 291.554341 
L 366.999039 291.554341 
L 366.999039 289.587512 
L 367.360973 289.587512 
L 367.360973 291.554341 
L 377.495117 291.554341 
L 377.495117 293.521171 
L 377.857051 293.521171 
L 377.857051 291.554341 
L 378.942852 291.554341 
L 378.942852 293.521171 
L 398.125339 293.521171 
L 398.125339 295.488 
L 398.487273 295.488 
L 398.487273 295.488 
" style="fill:none;stroke:#1f77b4;stroke-linecap:square;stroke-width:1.5;"/>
   </g>
   <g id="patch_3">
    <path d="M 57.6 307.584 
L 57.6 41.472 
" style="fill:none;stroke:#000000;stroke-linecap:square;stroke-linejoin:miter;stroke-width:0.8;"/>
   </g>
   <g id="patch_4">
    <path d="M 414.72 307.584 
L 414.72 41.472 
" style="fill:none;stroke:#000000;stroke-linecap:square;stroke-linejoin:miter;stroke-width:0.8;"/>
   </g>
   <g id="patch_5">
    <path d="M 57.6 307.584 
L 414.72 307.584 
" style="fill:none;stroke:#000000;stroke-linecap:square;stroke-linejoin:miter;stroke-width:0.8;"/>
   </g>
   <g id="patch_6">
    <path d="M 57.6 41.472 
L 414.72 41.472 
" style="fill:none;stroke:#000000;stroke-linecap:square;stroke-linejoin:miter;stroke-width:0.8;"/>
   </g>
   <g id="text_16">
    <!-- Время заряда: 5.1 сек. -->
    <g transform="translate(212.453341 53.568)scale(0.1 -0.1)">
     <defs>
      <path d="M 1259 2228 
L 1259 519 
L 2272 519 
Q 2781 519 3026 730 
Q 3272 941 3272 1375 
Q 3272 1813 3026 2020 
Q 2781 2228 2272 2228 
L 1259 2228 
z
M 1259 4147 
L 1259 2741 
L 2194 2741 
Q 2656 2741 2882 2914 
Q 3109 3088 3109 3444 
Q 3109 3797 2882 3972 
Q 2656 4147 2194 4147 
L 1259 4147 
z
M 628 4666 
L 2241 4666 
Q 2963 4666 3353 4366 
Q 3744 4066 3744 3513 
Q 3744 3084 3544 2831 
Q 3344 2578 2956 2516 
Q 3422 2416 3680 2098 
Q 3938 1781 3938 1306 
Q 3938 681 3513 340 
Q 3088 0 2303 0 
L 628 0 
L 628 4666 
z
" id="DejaVuSans-412" transform="scale(0.015625)"/>
      <path d="M 1159 525 
L 1159 -1331 
L 581 -1331 
L 581 3500 
L 1159 3500 
L 1159 2969 
Q 1341 3281 1617 3432 
Q 1894 3584 2278 3584 
Q 2916 3584 3314 3078 
Q 3713 2572 3713 1747 
Q 3713 922 3314 415 
Q 2916 -91 2278 -91 
Q 1894 -91 1617 61 
Q 1341 213 1159 525 
z
M 3116 1747 
Q 3116 2381 2855 2742 
Q 2594 3103 2138 3103 
Q 1681 3103 1420 2742 
Q 1159 2381 1159 1747 
Q 1159 1113 1420 752 
Q 1681 391 2138 391 
Q 2594 391 2855 752 
Q 3116 1113 3116 1747 
z
" id="DejaVuSans-440" transform="scale(0.015625)"/>
      <path d="M 3597 1894 
L 3597 1613 
L 953 1613 
Q 991 1019 1311 708 
Q 1631 397 2203 397 
Q 2534 397 2845 478 
Q 3156 559 3463 722 
L 3463 178 
Q 3153 47 2828 -22 
Q 2503 -91 2169 -91 
Q 1331 -91 842 396 
Q 353 884 353 1716 
Q 353 2575 817 3079 
Q 1281 3584 2069 3584 
Q 2775 3584 3186 3129 
Q 3597 2675 3597 1894 
z
M 3022 2063 
Q 3016 2534 2758 2815 
Q 2500 3097 2075 3097 
Q 1594 3097 1305 2825 
Q 1016 2553 972 2059 
L 3022 2063 
z
" id="DejaVuSans-435" transform="scale(0.015625)"/>
      <path d="M 581 3500 
L 1422 3500 
L 2416 1156 
L 3413 3500 
L 4247 3500 
L 4247 0 
L 3669 0 
L 3669 2950 
L 2703 672 
L 2128 672 
L 1159 2950 
L 1159 0 
L 581 0 
L 581 3500 
z
" id="DejaVuSans-43c" transform="scale(0.015625)"/>
      <path d="M 1181 2491 
Q 1181 2231 1381 2084 
Q 1581 1938 1953 1938 
L 2728 1938 
L 2728 3041 
L 1953 3041 
Q 1581 3041 1381 2897 
Q 1181 2753 1181 2491 
z
M 363 0 
L 1431 1534 
Q 1069 1616 828 1830 
Q 588 2044 588 2491 
Q 588 2997 923 3248 
Q 1259 3500 1938 3500 
L 3306 3500 
L 3306 0 
L 2728 0 
L 2728 1478 
L 2013 1478 
L 981 0 
L 363 0 
z
" id="DejaVuSans-44f" transform="scale(0.015625)"/>
      <path id="DejaVuSans-20" transform="scale(0.015625)"/>
      <path d="M 2206 1888 
Q 2594 1813 2809 1584 
Q 3025 1356 3025 1019 
Q 3025 478 2622 193 
Q 2219 -91 1475 -91 
Q 1225 -91 961 -47 
Q 697 -3 416 84 
L 416 619 
Q 638 503 903 445 
Q 1169 388 1459 388 
Q 1931 388 2195 563 
Q 2459 738 2459 1019 
Q 2459 1294 2225 1461 
Q 1991 1628 1563 1628 
L 1100 1628 
L 1100 2103 
L 1584 2103 
Q 1947 2103 2158 2242 
Q 2369 2381 2369 2600 
Q 2369 2800 2151 2944 
Q 1934 3088 1563 3088 
Q 1341 3088 1089 3047 
Q 838 3006 534 2916 
L 534 3438 
Q 841 3513 1106 3550 
Q 1372 3588 1609 3588 
Q 2222 3588 2576 3342 
Q 2931 3097 2931 2656 
Q 2931 2366 2743 2164 
Q 2556 1963 2206 1888 
z
" id="DejaVuSans-437" transform="scale(0.015625)"/>
      <path d="M 2194 1759 
Q 1497 1759 1228 1600 
Q 959 1441 959 1056 
Q 959 750 1161 570 
Q 1363 391 1709 391 
Q 2188 391 2477 730 
Q 2766 1069 2766 1631 
L 2766 1759 
L 2194 1759 
z
M 3341 1997 
L 3341 0 
L 2766 0 
L 2766 531 
Q 2569 213 2275 61 
Q 1981 -91 1556 -91 
Q 1019 -91 701 211 
Q 384 513 384 1019 
Q 384 1609 779 1909 
Q 1175 2209 1959 2209 
L 2766 2209 
L 2766 2266 
Q 2766 2663 2505 2880 
Q 2244 3097 1772 3097 
Q 1472 3097 1187 3025 
Q 903 2953 641 2809 
L 641 3341 
Q 956 3463 1253 3523 
Q 1550 3584 1831 3584 
Q 2591 3584 2966 3190 
Q 3341 2797 3341 1997 
z
" id="DejaVuSans-430" transform="scale(0.015625)"/>
      <path d="M 1384 459 
L 3053 459 
L 3053 3041 
L 1844 3041 
L 1844 2603 
Q 1844 1316 1475 628 
L 1384 459 
z
M 550 459 
Q 834 584 959 850 
Q 1266 1509 1266 2838 
L 1266 3500 
L 3631 3500 
L 3631 459 
L 4091 459 
L 4091 -884 
L 3631 -884 
L 3631 0 
L 794 0 
L 794 -884 
L 334 -884 
L 334 459 
L 550 459 
z
" id="DejaVuSans-434" transform="scale(0.015625)"/>
      <path d="M 750 794 
L 1409 794 
L 1409 0 
L 750 0 
L 750 794 
z
M 750 3309 
L 1409 3309 
L 1409 2516 
L 750 2516 
L 750 3309 
z
" id="DejaVuSans-3a" transform="scale(0.015625)"/>
      <path d="M 3122 3366 
L 3122 2828 
Q 2878 2963 2633 3030 
Q 2388 3097 2138 3097 
Q 1578 3097 1268 2742 
Q 959 2388 959 1747 
Q 959 1106 1268 751 
Q 1578 397 2138 397 
Q 2388 397 2633 464 
Q 2878 531 3122 666 
L 3122 134 
Q 2881 22 2623 -34 
Q 2366 -91 2075 -91 
Q 1284 -91 818 406 
Q 353 903 353 1747 
Q 353 2603 823 3093 
Q 1294 3584 2113 3584 
Q 2378 3584 2631 3529 
Q 2884 3475 3122 3366 
z
" id="DejaVuSans-441" transform="scale(0.015625)"/>
      <path d="M 581 3500 
L 1153 3500 
L 1153 1856 
L 2775 3500 
L 3481 3500 
L 2144 2147 
L 3653 0 
L 3009 0 
L 1769 1766 
L 1153 1141 
L 1153 0 
L 581 0 
L 581 3500 
z
" id="DejaVuSans-43a" transform="scale(0.015625)"/>
     </defs>
     <use xlink:href="#DejaVuSans-412"/>
     <use x="68.603516" xlink:href="#DejaVuSans-440"/>
     <use x="132.080078" xlink:href="#DejaVuSans-435"/>
     <use x="193.603516" xlink:href="#DejaVuSans-43c"/>
     <use x="269.042969" xlink:href="#DejaVuSans-44f"/>
     <use x="329.199219" xlink:href="#DejaVuSans-20"/>
     <use x="360.986328" xlink:href="#DejaVuSans-437"/>
     <use x="414.160156" xlink:href="#DejaVuSans-430"/>
     <use x="475.439453" xlink:href="#DejaVuSans-440"/>
     <use x="538.916016" xlink:href="#DejaVuSans-44f"/>
     <use x="599.072266" xlink:href="#DejaVuSans-434"/>
     <use x="668.212891" xlink:href="#DejaVuSans-430"/>
     <use x="729.492188" xlink:href="#DejaVuSans-3a"/>
     <use x="763.183594" xlink:href="#DejaVuSans-20"/>
     <use x="794.970703" xlink:href="#DejaVuSans-35"/>
     <use x="858.59375" xlink:href="#DejaVuSans-2e"/>
     <use x="890.380859" xlink:href="#DejaVuSans-31"/>
     <use x="954.003906" xlink:href="#DejaVuSans-20"/>
     <use x="985.791016" xlink:href="#DejaVuSans-441"/>
     <use x="1040.771484" xlink:href="#DejaVuSans-435"/>
     <use x="1102.294922" xlink:href="#DejaVuSans-43a"/>
     <use x="1162.695312" xlink:href="#DejaVuSans-2e"/>
    </g>
   </g>
   <g id="text_17">
    <!-- Время разряда: 6.9 сек. -->
    <g transform="translate(208.882622 296.471415)scale(0.1 -0.1)">
     <defs>
      <path d="M 703 97 
L 703 672 
Q 941 559 1184 500 
Q 1428 441 1663 441 
Q 2288 441 2617 861 
Q 2947 1281 2994 2138 
Q 2813 1869 2534 1725 
Q 2256 1581 1919 1581 
Q 1219 1581 811 2004 
Q 403 2428 403 3163 
Q 403 3881 828 4315 
Q 1253 4750 1959 4750 
Q 2769 4750 3195 4129 
Q 3622 3509 3622 2328 
Q 3622 1225 3098 567 
Q 2575 -91 1691 -91 
Q 1453 -91 1209 -44 
Q 966 3 703 97 
z
M 1959 2075 
Q 2384 2075 2632 2365 
Q 2881 2656 2881 3163 
Q 2881 3666 2632 3958 
Q 2384 4250 1959 4250 
Q 1534 4250 1286 3958 
Q 1038 3666 1038 3163 
Q 1038 2656 1286 2365 
Q 1534 2075 1959 2075 
z
" id="DejaVuSans-39" transform="scale(0.015625)"/>
     </defs>
     <use xlink:href="#DejaVuSans-412"/>
     <use x="68.603516" xlink:href="#DejaVuSans-440"/>
     <use x="132.080078" xlink:href="#DejaVuSans-435"/>
     <use x="193.603516" xlink:href="#DejaVuSans-43c"/>
     <use x="269.042969" xlink:href="#DejaVuSans-44f"/>
     <use x="329.199219" xlink:href="#DejaVuSans-20"/>
     <use x="360.986328" xlink:href="#DejaVuSans-440"/>
     <use x="424.462891" xlink:href="#DejaVuSans-430"/>
     <use x="485.742188" xlink:href="#DejaVuSans-437"/>
     <use x="538.916016" xlink:href="#DejaVuSans-440"/>
     <use x="602.392578" xlink:href="#DejaVuSans-44f"/>
     <use x="662.548828" xlink:href="#DejaVuSans-434"/>
     <use x="731.689453" xlink:href="#DejaVuSans-430"/>
     <use x="792.96875" xlink:href="#DejaVuSans-3a"/>
     <use x="826.660156" xlink:href="#DejaVuSans-20"/>
     <use x="858.447266" xlink:href="#DejaVuSans-36"/>
     <use x="922.070312" xlink:href="#DejaVuSans-2e"/>
     <use x="953.857422" xlink:href="#DejaVuSans-39"/>
     <use x="1017.480469" xlink:href="#DejaVuSans-20"/>
     <use x="1049.267578" xlink:href="#DejaVuSans-441"/>
     <use x="1104.248047" xlink:href="#DejaVuSans-435"/>
     <use x="1165.771484" xlink:href="#DejaVuSans-43a"/>
     <use x="1226.171875" xlink:href="#DejaVuSans-2e"/>
    </g>
   </g>
   <g id="text_18">
    <!-- Зарядка и разрядка RC-цепи -->
    <g transform="translate(144.78375 35.472)scale(0.12 -0.12)">
     <defs>
      <path d="M 1828 4750 
Q 2597 4750 3084 4423 
Q 3572 4097 3572 3541 
Q 3572 3153 3350 2886 
Q 3128 2619 2719 2516 
Q 3172 2419 3426 2112 
Q 3681 1806 3681 1356 
Q 3681 638 3126 273 
Q 2572 -91 1828 -91 
Q 1447 -91 1003 12 
Q 559 116 422 203 
L 422 853 
Q 900 575 1164 508 
Q 1428 441 1816 441 
Q 2403 441 2728 666 
Q 3053 891 3053 1356 
Q 3053 1769 2764 2001 
Q 2475 2234 1866 2234 
L 1228 2234 
L 1228 2753 
L 1891 2753 
Q 2450 2753 2697 2939 
Q 2944 3125 2944 3475 
Q 2944 3834 2689 4026 
Q 2434 4219 1816 4219 
Q 1397 4219 1253 4181 
Q 1109 4144 469 3903 
L 469 4519 
Q 822 4644 1190 4697 
Q 1559 4750 1828 4750 
z
" id="DejaVuSans-417" transform="scale(0.015625)"/>
      <path d="M 3578 3500 
L 3578 0 
L 3006 0 
L 3006 2809 
L 1319 0 
L 581 0 
L 581 3500 
L 1153 3500 
L 1153 697 
L 2838 3500 
L 3578 3500 
z
" id="DejaVuSans-438" transform="scale(0.015625)"/>
      <path d="M 2841 2188 
Q 3044 2119 3236 1894 
Q 3428 1669 3622 1275 
L 4263 0 
L 3584 0 
L 2988 1197 
Q 2756 1666 2539 1819 
Q 2322 1972 1947 1972 
L 1259 1972 
L 1259 0 
L 628 0 
L 628 4666 
L 2053 4666 
Q 2853 4666 3247 4331 
Q 3641 3997 3641 3322 
Q 3641 2881 3436 2590 
Q 3231 2300 2841 2188 
z
M 1259 4147 
L 1259 2491 
L 2053 2491 
Q 2509 2491 2742 2702 
Q 2975 2913 2975 3322 
Q 2975 3731 2742 3939 
Q 2509 4147 2053 4147 
L 1259 4147 
z
" id="DejaVuSans-52" transform="scale(0.015625)"/>
      <path d="M 4122 4306 
L 4122 3641 
Q 3803 3938 3442 4084 
Q 3081 4231 2675 4231 
Q 1875 4231 1450 3742 
Q 1025 3253 1025 2328 
Q 1025 1406 1450 917 
Q 1875 428 2675 428 
Q 3081 428 3442 575 
Q 3803 722 4122 1019 
L 4122 359 
Q 3791 134 3420 21 
Q 3050 -91 2638 -91 
Q 1578 -91 968 557 
Q 359 1206 359 2328 
Q 359 3453 968 4101 
Q 1578 4750 2638 4750 
Q 3056 4750 3426 4639 
Q 3797 4528 4122 4306 
z
" id="DejaVuSans-43" transform="scale(0.015625)"/>
      <path d="M 313 2009 
L 1997 2009 
L 1997 1497 
L 313 1497 
L 313 2009 
z
" id="DejaVuSans-2d" transform="scale(0.015625)"/>
      <path d="M 3603 0 
L 581 0 
L 581 3500 
L 1159 3500 
L 1159 459 
L 3025 459 
L 3025 3500 
L 3603 3500 
L 3603 459 
L 4063 459 
L 4063 -884 
L 3603 -884 
L 3603 0 
z
" id="DejaVuSans-446" transform="scale(0.015625)"/>
      <path d="M 3603 3500 
L 3603 0 
L 3025 0 
L 3025 3041 
L 1159 3041 
L 1159 0 
L 581 0 
L 581 3500 
L 3603 3500 
z
" id="DejaVuSans-43f" transform="scale(0.015625)"/>
     </defs>
     <use xlink:href="#DejaVuSans-417"/>
     <use x="64.111328" xlink:href="#DejaVuSans-430"/>
     <use x="125.390625" xlink:href="#DejaVuSans-440"/>
     <use x="188.867188" xlink:href="#DejaVuSans-44f"/>
     <use x="249.023438" xlink:href="#DejaVuSans-434"/>
     <use x="318.164062" xlink:href="#DejaVuSans-43a"/>
     <use x="378.564453" xlink:href="#DejaVuSans-430"/>
     <use x="439.84375" xlink:href="#DejaVuSans-20"/>
     <use x="471.630859" xlink:href="#DejaVuSans-438"/>
     <use x="536.621094" xlink:href="#DejaVuSans-20"/>
     <use x="568.408203" xlink:href="#DejaVuSans-440"/>
     <use x="631.884766" xlink:href="#DejaVuSans-430"/>
     <use x="693.164062" xlink:href="#DejaVuSans-437"/>
     <use x="746.337891" xlink:href="#DejaVuSans-440"/>
     <use x="809.814453" xlink:href="#DejaVuSans-44f"/>
     <use x="869.970703" xlink:href="#DejaVuSans-434"/>
     <use x="939.111328" xlink:href="#DejaVuSans-43a"/>
     <use x="999.511719" xlink:href="#DejaVuSans-430"/>
     <use x="1060.791016" xlink:href="#DejaVuSans-20"/>
     <use x="1092.578125" xlink:href="#DejaVuSans-52"/>
     <use x="1157.060547" xlink:href="#DejaVuSans-43"/>
     <use x="1226.884766" xlink:href="#DejaVuSans-2d"/>
     <use x="1262.96875" xlink:href="#DejaVuSans-446"/>
     <use x="1331.035156" xlink:href="#DejaVuSans-435"/>
     <use x="1392.558594" xlink:href="#DejaVuSans-43f"/>
     <use x="1457.939453" xlink:href="#DejaVuSans-438"/>
    </g>
   </g>
   <g id="legend_1">
    <g id="patch_7">
     <path d="M 242.504375 93.506375 
L 407.72 93.506375 
Q 409.72 93.506375 409.72 91.506375 
L 409.72 48.472 
Q 409.72 46.472 407.72 46.472 
L 242.504375 46.472 
Q 240.504375 46.472 240.504375 48.472 
L 240.504375 91.506375 
Q 240.504375 93.506375 242.504375 93.506375 
z
" style="fill:#ffffff;opacity:0.8;stroke:#cccccc;stroke-linejoin:miter;"/>
    </g>
    <g id="text_19">
     <!-- Данные о графике: -->
     <g transform="translate(274.171562 58.070438)scale(0.1 -0.1)">
      <defs>
       <path d="M 1459 531 
L 3522 531 
L 3522 4134 
L 2006 4134 
L 2006 3472 
Q 2006 1913 1656 878 
Q 1584 666 1459 531 
z
M 538 531 
Q 956 728 1075 1103 
Q 1378 2066 1378 3784 
L 1378 4666 
L 4153 4666 
L 4153 531 
L 4684 531 
L 4684 -1003 
L 4153 -1003 
L 4153 0 
L 847 0 
L 847 -1003 
L 316 -1003 
L 316 531 
L 538 531 
z
" id="DejaVuSans-414" transform="scale(0.015625)"/>
       <path d="M 581 3500 
L 1159 3500 
L 1159 2072 
L 3025 2072 
L 3025 3500 
L 3603 3500 
L 3603 0 
L 3025 0 
L 3025 1613 
L 1159 1613 
L 1159 0 
L 581 0 
L 581 3500 
z
" id="DejaVuSans-43d" transform="scale(0.015625)"/>
       <path d="M 3907 3500 
L 4482 3500 
L 4482 0 
L 3907 0 
L 3907 3500 
z
M 4195 3584 
L 4195 3584 
z
M 2781 1038 
Q 2781 1319 2576 1466 
Q 2372 1613 1978 1613 
L 1159 1613 
L 1159 459 
L 1978 459 
Q 2372 459 2576 607 
Q 2781 756 2781 1038 
z
M 581 3500 
L 1159 3500 
L 1159 2072 
L 2003 2072 
Q 2672 2072 3033 1817 
Q 3394 1563 3394 1038 
Q 3394 513 3033 256 
Q 2672 0 2003 0 
L 581 0 
L 581 3500 
z
" id="DejaVuSans-44b" transform="scale(0.015625)"/>
       <path d="M 1959 3097 
Q 1497 3097 1228 2736 
Q 959 2375 959 1747 
Q 959 1119 1226 758 
Q 1494 397 1959 397 
Q 2419 397 2687 759 
Q 2956 1122 2956 1747 
Q 2956 2369 2687 2733 
Q 2419 3097 1959 3097 
z
M 1959 3584 
Q 2709 3584 3137 3096 
Q 3566 2609 3566 1747 
Q 3566 888 3137 398 
Q 2709 -91 1959 -91 
Q 1206 -91 779 398 
Q 353 888 353 1747 
Q 353 2609 779 3096 
Q 1206 3584 1959 3584 
z
" id="DejaVuSans-43e" transform="scale(0.015625)"/>
       <path d="M 581 0 
L 581 3500 
L 3050 3500 
L 3050 3041 
L 1159 3041 
L 1159 0 
L 581 0 
z
" id="DejaVuSans-433" transform="scale(0.015625)"/>
       <path d="M 947 1747 
Q 947 1013 1173 702 
Q 1400 391 1784 391 
Q 2091 391 2447 916 
L 2447 2578 
Q 2091 3103 1784 3103 
Q 1400 3103 1173 2792 
Q 947 2481 947 1747 
z
M 2447 -1331 
L 2447 447 
Q 2269 153 2064 31 
Q 1859 -91 1600 -91 
Q 1078 -91 714 392 
Q 350 875 350 1734 
Q 350 2594 714 3089 
Q 1078 3584 1600 3584 
Q 1859 3584 2064 3465 
Q 2269 3347 2447 3053 
L 2447 4666 
L 3025 4666 
L 3025 3053 
Q 3203 3347 3408 3465 
Q 3613 3584 3872 3584 
Q 4394 3584 4758 3089 
Q 5122 2594 5122 1734 
Q 5122 875 4758 392 
Q 4394 -91 3872 -91 
Q 3613 -91 3408 31 
Q 3203 153 3025 447 
L 3025 -1331 
L 2447 -1331 
z
M 4525 1747 
Q 4525 2481 4298 2792 
Q 4072 3103 3688 3103 
Q 3381 3103 3025 2578 
L 3025 916 
Q 3381 391 3688 391 
Q 4072 391 4298 702 
Q 4525 1013 4525 1747 
z
" id="DejaVuSans-444" transform="scale(0.015625)"/>
      </defs>
      <use xlink:href="#DejaVuSans-414"/>
      <use x="78.125" xlink:href="#DejaVuSans-430"/>
      <use x="139.404297" xlink:href="#DejaVuSans-43d"/>
      <use x="204.785156" xlink:href="#DejaVuSans-43d"/>
      <use x="270.166016" xlink:href="#DejaVuSans-44b"/>
      <use x="349.121094" xlink:href="#DejaVuSans-435"/>
      <use x="410.644531" xlink:href="#DejaVuSans-20"/>
      <use x="442.431641" xlink:href="#DejaVuSans-43e"/>
      <use x="503.613281" xlink:href="#DejaVuSans-20"/>
      <use x="535.400391" xlink:href="#DejaVuSans-433"/>
      <use x="587.939453" xlink:href="#DejaVuSans-440"/>
      <use x="651.416016" xlink:href="#DejaVuSans-430"/>
      <use x="712.695312" xlink:href="#DejaVuSans-444"/>
      <use x="798.193359" xlink:href="#DejaVuSans-438"/>
      <use x="863.183594" xlink:href="#DejaVuSans-43a"/>
      <use x="923.583984" xlink:href="#DejaVuSans-435"/>
      <use x="985.107422" xlink:href="#DejaVuSans-3a"/>
     </g>
    </g>
    <g id="line2d_116">
     <path d="M 244.504375 69.248563 
L 264.504375 69.248563 
" style="fill:none;stroke:#1f77b4;stroke-linecap:square;stroke-width:1.5;"/>
    </g>
    <g id="line2d_117"/>
    <g id="text_20">
     <!-- Зависимость V(t) -->
     <g transform="translate(272.504375 72.748563)scale(0.1 -0.1)">
      <defs>
       <path d="M 1156 1613 
L 1156 459 
L 1975 459 
Q 2369 459 2575 607 
Q 2781 756 2781 1038 
Q 2781 1319 2575 1466 
Q 2369 1613 1975 1613 
L 1156 1613 
z
M 1156 3041 
L 1156 2072 
L 1913 2072 
Q 2238 2072 2444 2201 
Q 2650 2331 2650 2563 
Q 2650 2794 2444 2917 
Q 2238 3041 1913 3041 
L 1156 3041 
z
M 581 3500 
L 1950 3500 
Q 2566 3500 2897 3275 
Q 3228 3050 3228 2634 
Q 3228 2313 3059 2123 
Q 2891 1934 2559 1888 
Q 2956 1813 3175 1575 
Q 3394 1338 3394 981 
Q 3394 513 3033 256 
Q 2672 0 2003 0 
L 581 0 
L 581 3500 
z
" id="DejaVuSans-432" transform="scale(0.015625)"/>
       <path d="M 188 3500 
L 3541 3500 
L 3541 3041 
L 2147 3041 
L 2147 0 
L 1581 0 
L 1581 3041 
L 188 3041 
L 188 3500 
z
" id="DejaVuSans-442" transform="scale(0.015625)"/>
       <path d="M 2781 1038 
Q 2781 1319 2576 1466 
Q 2372 1613 1978 1613 
L 1159 1613 
L 1159 459 
L 1978 459 
Q 2372 459 2576 607 
Q 2781 756 2781 1038 
z
M 581 3500 
L 1159 3500 
L 1159 2072 
L 2003 2072 
Q 2672 2072 3033 1817 
Q 3394 1563 3394 1038 
Q 3394 513 3033 256 
Q 2672 0 2003 0 
L 581 0 
L 581 3500 
z
" id="DejaVuSans-44c" transform="scale(0.015625)"/>
       <path d="M 1831 0 
L 50 4666 
L 709 4666 
L 2188 738 
L 3669 4666 
L 4325 4666 
L 2547 0 
L 1831 0 
z
" id="DejaVuSans-56" transform="scale(0.015625)"/>
       <path d="M 1984 4856 
Q 1566 4138 1362 3434 
Q 1159 2731 1159 2009 
Q 1159 1288 1364 580 
Q 1569 -128 1984 -844 
L 1484 -844 
Q 1016 -109 783 600 
Q 550 1309 550 2009 
Q 550 2706 781 3412 
Q 1013 4119 1484 4856 
L 1984 4856 
z
" id="DejaVuSans-28" transform="scale(0.015625)"/>
       <path d="M 1172 4494 
L 1172 3500 
L 2356 3500 
L 2356 3053 
L 1172 3053 
L 1172 1153 
Q 1172 725 1289 603 
Q 1406 481 1766 481 
L 2356 481 
L 2356 0 
L 1766 0 
Q 1100 0 847 248 
Q 594 497 594 1153 
L 594 3053 
L 172 3053 
L 172 3500 
L 594 3500 
L 594 4494 
L 1172 4494 
z
" id="DejaVuSans-74" transform="scale(0.015625)"/>
       <path d="M 513 4856 
L 1013 4856 
Q 1481 4119 1714 3412 
Q 1947 2706 1947 2009 
Q 1947 1309 1714 600 
Q 1481 -109 1013 -844 
L 513 -844 
Q 928 -128 1133 580 
Q 1338 1288 1338 2009 
Q 1338 2731 1133 3434 
Q 928 4138 513 4856 
z
" id="DejaVuSans-29" transform="scale(0.015625)"/>
      </defs>
      <use xlink:href="#DejaVuSans-417"/>
      <use x="64.111328" xlink:href="#DejaVuSans-430"/>
      <use x="125.390625" xlink:href="#DejaVuSans-432"/>
      <use x="184.326172" xlink:href="#DejaVuSans-438"/>
      <use x="249.316406" xlink:href="#DejaVuSans-441"/>
      <use x="304.296875" xlink:href="#DejaVuSans-438"/>
      <use x="369.287109" xlink:href="#DejaVuSans-43c"/>
      <use x="444.726562" xlink:href="#DejaVuSans-43e"/>
      <use x="505.908203" xlink:href="#DejaVuSans-441"/>
      <use x="560.888672" xlink:href="#DejaVuSans-442"/>
      <use x="619.140625" xlink:href="#DejaVuSans-44c"/>
      <use x="678.076172" xlink:href="#DejaVuSans-20"/>
      <use x="709.863281" xlink:href="#DejaVuSans-56"/>
      <use x="778.271484" xlink:href="#DejaVuSans-28"/>
      <use x="817.285156" xlink:href="#DejaVuSans-74"/>
      <use x="856.494141" xlink:href="#DejaVuSans-29"/>
     </g>
    </g>
    <g id="PathCollection_2">
     <g>
      <use style="fill:#ffa500;stroke:#ffa500;" x="254.504375" xlink:href="#m212b333ff5" y="84.801688"/>
     </g>
    </g>
    <g id="text_21">
     <!-- Точечное представление -->
     <g transform="translate(272.504375 87.426688)scale(0.1 -0.1)">
      <defs>
       <path d="M -19 4666 
L 3928 4666 
L 3928 4134 
L 2272 4134 
L 2272 0 
L 1638 0 
L 1638 4134 
L -19 4134 
L -19 4666 
z
" id="DejaVuSans-422" transform="scale(0.015625)"/>
       <path d="M 2625 0 
L 2625 1472 
L 1553 1472 
Q 1075 1472 756 1769 
Q 469 2038 469 2613 
L 469 3500 
L 1044 3500 
L 1044 2666 
Q 1044 2300 1206 2116 
Q 1372 1931 1697 1931 
L 2625 1931 
L 2625 3500 
L 3200 3500 
L 3200 0 
L 2625 0 
z
" id="DejaVuSans-447" transform="scale(0.015625)"/>
       <path d="M 238 0 
L 238 478 
Q 806 566 981 959 
Q 1194 1513 1194 2928 
L 1194 3500 
L 3559 3500 
L 3559 0 
L 2984 0 
L 2984 3041 
L 1769 3041 
L 1769 2694 
Q 1769 1344 1494 738 
Q 1200 91 238 0 
z
" id="DejaVuSans-43b" transform="scale(0.015625)"/>
      </defs>
      <use xlink:href="#DejaVuSans-422"/>
      <use x="61.083984" xlink:href="#DejaVuSans-43e"/>
      <use x="122.265625" xlink:href="#DejaVuSans-447"/>
      <use x="181.347656" xlink:href="#DejaVuSans-435"/>
      <use x="242.871094" xlink:href="#DejaVuSans-447"/>
      <use x="301.953125" xlink:href="#DejaVuSans-43d"/>
      <use x="367.333984" xlink:href="#DejaVuSans-43e"/>
      <use x="428.515625" xlink:href="#DejaVuSans-435"/>
      <use x="490.039062" xlink:href="#DejaVuSans-20"/>
      <use x="521.826172" xlink:href="#DejaVuSans-43f"/>
      <use x="587.207031" xlink:href="#DejaVuSans-440"/>
      <use x="650.683594" xlink:href="#DejaVuSans-435"/>
      <use x="712.207031" xlink:href="#DejaVuSans-434"/>
      <use x="781.347656" xlink:href="#DejaVuSans-441"/>
      <use x="836.328125" xlink:href="#DejaVuSans-442"/>
      <use x="894.580078" xlink:href="#DejaVuSans-430"/>
      <use x="955.859375" xlink:href="#DejaVuSans-432"/>
      <use x="1014.794922" xlink:href="#DejaVuSans-43b"/>
      <use x="1078.710938" xlink:href="#DejaVuSans-435"/>
      <use x="1140.234375" xlink:href="#DejaVuSans-43d"/>
      <use x="1205.615234" xlink:href="#DejaVuSans-438"/>
      <use x="1270.605469" xlink:href="#DejaVuSans-435"/>
     </g>
    </g>
   </g>
  </g>
 </g>
 <defs>
  <clipPath id="pbcc150e54c">
   <rect height="266.112" width="357.12" x="57.6" y="41.472"/>
  </clipPath>
 </defs>
</svg>
