<?xml version="1.0" encoding="utf-8" standalone="no"?>
<!DOCTYPE svg PUBLIC "-//W3C//DTD SVG 1.1//EN"
  "http://www.w3.org/Graphics/SVG/1.1/DTD/svg11.dtd">
<svg height="345.6pt" version="1.1" viewBox="0 0 460.8 345.6" width="460.8pt" xmlns="http://www.w3.org/2000/svg" xmlns:xlink="http://www.w3.org/1999/xlink">
 <metadata>
  <rdf:RDF xmlns:cc="http://creativecommons.org/ns#" xmlns:dc="http://purl.org/dc/elements/1.1/" xmlns:rdf="http://www.w3.org/1999/02/22-rdf-syntax-ns#">
   <cc:Work>
    <dc:type rdf:resource="http://purl.org/dc/dcmitype/StillImage"/>
    <dc:date>2022-04-27T16:46:57.532763</dc:date>
    <dc:format>image/svg+xml</dc:format>
    <dc:creator>
     <cc:Agent>
      <dc:title>Matplotlib v3.4.3, https://matplotlib.org/</dc:title>
     </cc:Agent>
    </dc:creator>
   </cc:Work>
  </rdf:RDF>
 </metadata>
 <defs>
  <style type="text/css">*{stroke-linecap:butt;stroke-linejoin:round;}</style>
 </defs>
 <g id="figure_1">
  <g id="patch_1">
   <path d="M 0 345.6 
L 460.8 345.6 
L 460.8 0 
L 0 0 
z
" style="fill:#ffffff;"/>
  </g>
  <g id="axes_1">
   <g id="patch_2">
    <path d="M 57.6 307.584 
L 414.72 307.584 
L 414.72 41.472 
L 57.6 41.472 
z
" style="fill:#ffffff;"/>
   </g>
   <g id="PathCollection_1">
    <defs>
     <path d="M -0 4.242641 
L 2.545584 0 
L 0 -4.242641 
L -2.545584 -0 
z
" id="mffb0733143" style="stroke:#000000;"/>
    </defs>
    <g clip-path="url(#pccb0598d0e)">
     <use style="stroke:#000000;" x="57.6" xlink:href="#mffb0733143" y="306.747648"/>
     <use style="stroke:#000000;" x="65.57568" xlink:href="#mffb0733143" y="266.602752"/>
     <use style="stroke:#000000;" x="73.55136" xlink:href="#mffb0733143" y="234.821376"/>
     <use style="stroke:#000000;" x="81.52704" xlink:href="#mffb0733143" y="208.058112"/>
     <use style="stroke:#000000;" x="89.50272" xlink:href="#mffb0733143" y="187.985664"/>
     <use style="stroke:#000000;" x="97.4784" xlink:href="#mffb0733143" y="171.258624"/>
     <use style="stroke:#000000;" x="105.45408" xlink:href="#mffb0733143" y="157.876992"/>
     <use style="stroke:#000000;" x="113.42976" xlink:href="#mffb0733143" y="146.168064"/>
     <use style="stroke:#000000;" x="121.40544" xlink:href="#mffb0733143" y="137.804544"/>
     <use style="stroke:#000000;" x="129.38112" xlink:href="#mffb0733143" y="131.113728"/>
     <use style="stroke:#000000;" x="137.3568" xlink:href="#mffb0733143" y="124.422912"/>
     <use style="stroke:#000000;" x="145.33248" xlink:href="#mffb0733143" y="119.4048"/>
     <use style="stroke:#000000;" x="153.30816" xlink:href="#mffb0733143" y="116.059392"/>
     <use style="stroke:#000000;" x="161.28384" xlink:href="#mffb0733143" y="112.713984"/>
     <use style="stroke:#000000;" x="169.25952" xlink:href="#mffb0733143" y="109.368576"/>
     <use style="stroke:#000000;" x="177.2352" xlink:href="#mffb0733143" y="107.695872"/>
     <use style="stroke:#000000;" x="185.21088" xlink:href="#mffb0733143" y="106.023168"/>
     <use style="stroke:#000000;" x="193.18656" xlink:href="#mffb0733143" y="104.350464"/>
     <use style="stroke:#000000;" x="201.16224" xlink:href="#mffb0733143" y="104.350464"/>
     <use style="stroke:#000000;" x="209.13792" xlink:href="#mffb0733143" y="102.67776"/>
     <use style="stroke:#000000;" x="217.1136" xlink:href="#mffb0733143" y="131.113728"/>
     <use style="stroke:#000000;" x="225.08928" xlink:href="#mffb0733143" y="159.549696"/>
     <use style="stroke:#000000;" x="233.06496" xlink:href="#mffb0733143" y="184.640256"/>
     <use style="stroke:#000000;" x="241.04064" xlink:href="#mffb0733143" y="203.04"/>
     <use style="stroke:#000000;" x="249.01632" xlink:href="#mffb0733143" y="219.76704"/>
     <use style="stroke:#000000;" x="256.992" xlink:href="#mffb0733143" y="233.148672"/>
     <use style="stroke:#000000;" x="264.96768" xlink:href="#mffb0733143" y="244.8576"/>
     <use style="stroke:#000000;" x="272.94336" xlink:href="#mffb0733143" y="254.893824"/>
     <use style="stroke:#000000;" x="280.91904" xlink:href="#mffb0733143" y="263.257344"/>
     <use style="stroke:#000000;" x="288.89472" xlink:href="#mffb0733143" y="269.94816"/>
     <use style="stroke:#000000;" x="296.8704" xlink:href="#mffb0733143" y="276.638976"/>
     <use style="stroke:#000000;" x="304.84608" xlink:href="#mffb0733143" y="281.657088"/>
     <use style="stroke:#000000;" x="312.82176" xlink:href="#mffb0733143" y="286.6752"/>
     <use style="stroke:#000000;" x="320.79744" xlink:href="#mffb0733143" y="288.347904"/>
     <use style="stroke:#000000;" x="328.77312" xlink:href="#mffb0733143" y="291.693312"/>
     <use style="stroke:#000000;" x="336.7488" xlink:href="#mffb0733143" y="295.03872"/>
     <use style="stroke:#000000;" x="344.72448" xlink:href="#mffb0733143" y="296.711424"/>
     <use style="stroke:#000000;" x="352.70016" xlink:href="#mffb0733143" y="298.384128"/>
     <use style="stroke:#000000;" x="360.67584" xlink:href="#mffb0733143" y="300.056832"/>
     <use style="stroke:#000000;" x="368.65152" xlink:href="#mffb0733143" y="301.729536"/>
     <use style="stroke:#000000;" x="376.6272" xlink:href="#mffb0733143" y="301.729536"/>
     <use style="stroke:#000000;" x="384.60288" xlink:href="#mffb0733143" y="303.40224"/>
     <use style="stroke:#000000;" x="392.57856" xlink:href="#mffb0733143" y="305.074944"/>
     <use style="stroke:#000000;" x="400.55424" xlink:href="#mffb0733143" y="305.074944"/>
     <use style="stroke:#000000;" x="408.52992" xlink:href="#mffb0733143" y="305.074944"/>
    </g>
   </g>
   <g id="matplotlib.axis_1">
    <g id="xtick_1">
     <g id="line2d_1">
      <path clip-path="url(#pccb0598d0e)" d="M 57.6 307.584 
L 57.6 41.472 
" style="fill:none;stroke:#000000;stroke-linecap:square;stroke-width:0.3;"/>
     </g>
     <g id="line2d_2">
      <defs>
       <path d="M 0 0 
L 0 3.5 
" id="m4647e6b148" style="stroke:#000000;stroke-width:0.8;"/>
      </defs>
      <g>
       <use style="stroke:#000000;stroke-width:0.8;" x="57.6" xlink:href="#m4647e6b148" y="307.584"/>
      </g>
     </g>
     <g id="text_1">
      <!-- 0 -->
      <g transform="translate(54.41875 322.182437)scale(0.1 -0.1)">
       <defs>
        <path d="M 2034 4250 
Q 1547 4250 1301 3770 
Q 1056 3291 1056 2328 
Q 1056 1369 1301 889 
Q 1547 409 2034 409 
Q 2525 409 2770 889 
Q 3016 1369 3016 2328 
Q 3016 3291 2770 3770 
Q 2525 4250 2034 4250 
z
M 2034 4750 
Q 2819 4750 3233 4129 
Q 3647 3509 3647 2328 
Q 3647 1150 3233 529 
Q 2819 -91 2034 -91 
Q 1250 -91 836 529 
Q 422 1150 422 2328 
Q 422 3509 836 4129 
Q 1250 4750 2034 4750 
z
" id="DejaVuSans-30" transform="scale(0.015625)"/>
       </defs>
       <use xlink:href="#DejaVuSans-30"/>
      </g>
     </g>
    </g>
    <g id="xtick_2">
     <g id="line2d_3">
      <path clip-path="url(#pccb0598d0e)" d="M 117.12 307.584 
L 117.12 41.472 
" style="fill:none;stroke:#000000;stroke-linecap:square;stroke-width:0.3;"/>
     </g>
     <g id="line2d_4">
      <g>
       <use style="stroke:#000000;stroke-width:0.8;" x="117.12" xlink:href="#m4647e6b148" y="307.584"/>
      </g>
     </g>
     <g id="text_2">
      <!-- 2 -->
      <g transform="translate(113.93875 322.182437)scale(0.1 -0.1)">
       <defs>
        <path d="M 1228 531 
L 3431 531 
L 3431 0 
L 469 0 
L 469 531 
Q 828 903 1448 1529 
Q 2069 2156 2228 2338 
Q 2531 2678 2651 2914 
Q 2772 3150 2772 3378 
Q 2772 3750 2511 3984 
Q 2250 4219 1831 4219 
Q 1534 4219 1204 4116 
Q 875 4013 500 3803 
L 500 4441 
Q 881 4594 1212 4672 
Q 1544 4750 1819 4750 
Q 2544 4750 2975 4387 
Q 3406 4025 3406 3419 
Q 3406 3131 3298 2873 
Q 3191 2616 2906 2266 
Q 2828 2175 2409 1742 
Q 1991 1309 1228 531 
z
" id="DejaVuSans-32" transform="scale(0.015625)"/>
       </defs>
       <use xlink:href="#DejaVuSans-32"/>
      </g>
     </g>
    </g>
    <g id="xtick_3">
     <g id="line2d_5">
      <path clip-path="url(#pccb0598d0e)" d="M 176.64 307.584 
L 176.64 41.472 
" style="fill:none;stroke:#000000;stroke-linecap:square;stroke-width:0.3;"/>
     </g>
     <g id="line2d_6">
      <g>
       <use style="stroke:#000000;stroke-width:0.8;" x="176.64" xlink:href="#m4647e6b148" y="307.584"/>
      </g>
     </g>
     <g id="text_3">
      <!-- 4 -->
      <g transform="translate(173.45875 322.182437)scale(0.1 -0.1)">
       <defs>
        <path d="M 2419 4116 
L 825 1625 
L 2419 1625 
L 2419 4116 
z
M 2253 4666 
L 3047 4666 
L 3047 1625 
L 3713 1625 
L 3713 1100 
L 3047 1100 
L 3047 0 
L 2419 0 
L 2419 1100 
L 313 1100 
L 313 1709 
L 2253 4666 
z
" id="DejaVuSans-34" transform="scale(0.015625)"/>
       </defs>
       <use xlink:href="#DejaVuSans-34"/>
      </g>
     </g>
    </g>
    <g id="xtick_4">
     <g id="line2d_7">
      <path clip-path="url(#pccb0598d0e)" d="M 236.16 307.584 
L 236.16 41.472 
" style="fill:none;stroke:#000000;stroke-linecap:square;stroke-width:0.3;"/>
     </g>
     <g id="line2d_8">
      <g>
       <use style="stroke:#000000;stroke-width:0.8;" x="236.16" xlink:href="#m4647e6b148" y="307.584"/>
      </g>
     </g>
     <g id="text_4">
      <!-- 6 -->
      <g transform="translate(232.97875 322.182437)scale(0.1 -0.1)">
       <defs>
        <path d="M 2113 2584 
Q 1688 2584 1439 2293 
Q 1191 2003 1191 1497 
Q 1191 994 1439 701 
Q 1688 409 2113 409 
Q 2538 409 2786 701 
Q 3034 994 3034 1497 
Q 3034 2003 2786 2293 
Q 2538 2584 2113 2584 
z
M 3366 4563 
L 3366 3988 
Q 3128 4100 2886 4159 
Q 2644 4219 2406 4219 
Q 1781 4219 1451 3797 
Q 1122 3375 1075 2522 
Q 1259 2794 1537 2939 
Q 1816 3084 2150 3084 
Q 2853 3084 3261 2657 
Q 3669 2231 3669 1497 
Q 3669 778 3244 343 
Q 2819 -91 2113 -91 
Q 1303 -91 875 529 
Q 447 1150 447 2328 
Q 447 3434 972 4092 
Q 1497 4750 2381 4750 
Q 2619 4750 2861 4703 
Q 3103 4656 3366 4563 
z
" id="DejaVuSans-36" transform="scale(0.015625)"/>
       </defs>
       <use xlink:href="#DejaVuSans-36"/>
      </g>
     </g>
    </g>
    <g id="xtick_5">
     <g id="line2d_9">
      <path clip-path="url(#pccb0598d0e)" d="M 295.68 307.584 
L 295.68 41.472 
" style="fill:none;stroke:#000000;stroke-linecap:square;stroke-width:0.3;"/>
     </g>
     <g id="line2d_10">
      <g>
       <use style="stroke:#000000;stroke-width:0.8;" x="295.68" xlink:href="#m4647e6b148" y="307.584"/>
      </g>
     </g>
     <g id="text_5">
      <!-- 8 -->
      <g transform="translate(292.49875 322.182437)scale(0.1 -0.1)">
       <defs>
        <path d="M 2034 2216 
Q 1584 2216 1326 1975 
Q 1069 1734 1069 1313 
Q 1069 891 1326 650 
Q 1584 409 2034 409 
Q 2484 409 2743 651 
Q 3003 894 3003 1313 
Q 3003 1734 2745 1975 
Q 2488 2216 2034 2216 
z
M 1403 2484 
Q 997 2584 770 2862 
Q 544 3141 544 3541 
Q 544 4100 942 4425 
Q 1341 4750 2034 4750 
Q 2731 4750 3128 4425 
Q 3525 4100 3525 3541 
Q 3525 3141 3298 2862 
Q 3072 2584 2669 2484 
Q 3125 2378 3379 2068 
Q 3634 1759 3634 1313 
Q 3634 634 3220 271 
Q 2806 -91 2034 -91 
Q 1263 -91 848 271 
Q 434 634 434 1313 
Q 434 1759 690 2068 
Q 947 2378 1403 2484 
z
M 1172 3481 
Q 1172 3119 1398 2916 
Q 1625 2713 2034 2713 
Q 2441 2713 2670 2916 
Q 2900 3119 2900 3481 
Q 2900 3844 2670 4047 
Q 2441 4250 2034 4250 
Q 1625 4250 1398 4047 
Q 1172 3844 1172 3481 
z
" id="DejaVuSans-38" transform="scale(0.015625)"/>
       </defs>
       <use xlink:href="#DejaVuSans-38"/>
      </g>
     </g>
    </g>
    <g id="xtick_6">
     <g id="line2d_11">
      <path clip-path="url(#pccb0598d0e)" d="M 355.2 307.584 
L 355.2 41.472 
" style="fill:none;stroke:#000000;stroke-linecap:square;stroke-width:0.3;"/>
     </g>
     <g id="line2d_12">
      <g>
       <use style="stroke:#000000;stroke-width:0.8;" x="355.2" xlink:href="#m4647e6b148" y="307.584"/>
      </g>
     </g>
     <g id="text_6">
      <!-- 10 -->
      <g transform="translate(348.8375 322.182437)scale(0.1 -0.1)">
       <defs>
        <path d="M 794 531 
L 1825 531 
L 1825 4091 
L 703 3866 
L 703 4441 
L 1819 4666 
L 2450 4666 
L 2450 531 
L 3481 531 
L 3481 0 
L 794 0 
L 794 531 
z
" id="DejaVuSans-31" transform="scale(0.015625)"/>
       </defs>
       <use xlink:href="#DejaVuSans-31"/>
       <use x="63.623047" xlink:href="#DejaVuSans-30"/>
      </g>
     </g>
    </g>
    <g id="xtick_7">
     <g id="line2d_13">
      <path clip-path="url(#pccb0598d0e)" d="M 414.72 307.584 
L 414.72 41.472 
" style="fill:none;stroke:#000000;stroke-linecap:square;stroke-width:0.3;"/>
     </g>
     <g id="line2d_14">
      <g>
       <use style="stroke:#000000;stroke-width:0.8;" x="414.72" xlink:href="#m4647e6b148" y="307.584"/>
      </g>
     </g>
     <g id="text_7">
      <!-- 12 -->
      <g transform="translate(408.3575 322.182437)scale(0.1 -0.1)">
       <use xlink:href="#DejaVuSans-31"/>
       <use x="63.623047" xlink:href="#DejaVuSans-32"/>
      </g>
     </g>
    </g>
    <g id="xtick_8">
     <g id="line2d_15">
      <path clip-path="url(#pccb0598d0e)" d="M 72.48 307.584 
L 72.48 41.472 
" style="fill:none;stroke:#000000;stroke-dasharray:0.2,0.33;stroke-dashoffset:0;stroke-width:0.2;"/>
     </g>
     <g id="line2d_16">
      <defs>
       <path d="M 0 0 
L 0 2 
" id="m27be6c3094" style="stroke:#000000;stroke-width:0.6;"/>
      </defs>
      <g>
       <use style="stroke:#000000;stroke-width:0.6;" x="72.48" xlink:href="#m27be6c3094" y="307.584"/>
      </g>
     </g>
    </g>
    <g id="xtick_9">
     <g id="line2d_17">
      <path clip-path="url(#pccb0598d0e)" d="M 87.36 307.584 
L 87.36 41.472 
" style="fill:none;stroke:#000000;stroke-dasharray:0.2,0.33;stroke-dashoffset:0;stroke-width:0.2;"/>
     </g>
     <g id="line2d_18">
      <g>
       <use style="stroke:#000000;stroke-width:0.6;" x="87.36" xlink:href="#m27be6c3094" y="307.584"/>
      </g>
     </g>
    </g>
    <g id="xtick_10">
     <g id="line2d_19">
      <path clip-path="url(#pccb0598d0e)" d="M 102.24 307.584 
L 102.24 41.472 
" style="fill:none;stroke:#000000;stroke-dasharray:0.2,0.33;stroke-dashoffset:0;stroke-width:0.2;"/>
     </g>
     <g id="line2d_20">
      <g>
       <use style="stroke:#000000;stroke-width:0.6;" x="102.24" xlink:href="#m27be6c3094" y="307.584"/>
      </g>
     </g>
    </g>
    <g id="xtick_11">
     <g id="line2d_21">
      <path clip-path="url(#pccb0598d0e)" d="M 132 307.584 
L 132 41.472 
" style="fill:none;stroke:#000000;stroke-dasharray:0.2,0.33;stroke-dashoffset:0;stroke-width:0.2;"/>
     </g>
     <g id="line2d_22">
      <g>
       <use style="stroke:#000000;stroke-width:0.6;" x="132" xlink:href="#m27be6c3094" y="307.584"/>
      </g>
     </g>
    </g>
    <g id="xtick_12">
     <g id="line2d_23">
      <path clip-path="url(#pccb0598d0e)" d="M 146.88 307.584 
L 146.88 41.472 
" style="fill:none;stroke:#000000;stroke-dasharray:0.2,0.33;stroke-dashoffset:0;stroke-width:0.2;"/>
     </g>
     <g id="line2d_24">
      <g>
       <use style="stroke:#000000;stroke-width:0.6;" x="146.88" xlink:href="#m27be6c3094" y="307.584"/>
      </g>
     </g>
    </g>
    <g id="xtick_13">
     <g id="line2d_25">
      <path clip-path="url(#pccb0598d0e)" d="M 161.76 307.584 
L 161.76 41.472 
" style="fill:none;stroke:#000000;stroke-dasharray:0.2,0.33;stroke-dashoffset:0;stroke-width:0.2;"/>
     </g>
     <g id="line2d_26">
      <g>
       <use style="stroke:#000000;stroke-width:0.6;" x="161.76" xlink:href="#m27be6c3094" y="307.584"/>
      </g>
     </g>
    </g>
    <g id="xtick_14">
     <g id="line2d_27">
      <path clip-path="url(#pccb0598d0e)" d="M 191.52 307.584 
L 191.52 41.472 
" style="fill:none;stroke:#000000;stroke-dasharray:0.2,0.33;stroke-dashoffset:0;stroke-width:0.2;"/>
     </g>
     <g id="line2d_28">
      <g>
       <use style="stroke:#000000;stroke-width:0.6;" x="191.52" xlink:href="#m27be6c3094" y="307.584"/>
      </g>
     </g>
    </g>
    <g id="xtick_15">
     <g id="line2d_29">
      <path clip-path="url(#pccb0598d0e)" d="M 206.4 307.584 
L 206.4 41.472 
" style="fill:none;stroke:#000000;stroke-dasharray:0.2,0.33;stroke-dashoffset:0;stroke-width:0.2;"/>
     </g>
     <g id="line2d_30">
      <g>
       <use style="stroke:#000000;stroke-width:0.6;" x="206.4" xlink:href="#m27be6c3094" y="307.584"/>
      </g>
     </g>
    </g>
    <g id="xtick_16">
     <g id="line2d_31">
      <path clip-path="url(#pccb0598d0e)" d="M 221.28 307.584 
L 221.28 41.472 
" style="fill:none;stroke:#000000;stroke-dasharray:0.2,0.33;stroke-dashoffset:0;stroke-width:0.2;"/>
     </g>
     <g id="line2d_32">
      <g>
       <use style="stroke:#000000;stroke-width:0.6;" x="221.28" xlink:href="#m27be6c3094" y="307.584"/>
      </g>
     </g>
    </g>
    <g id="xtick_17">
     <g id="line2d_33">
      <path clip-path="url(#pccb0598d0e)" d="M 251.04 307.584 
L 251.04 41.472 
" style="fill:none;stroke:#000000;stroke-dasharray:0.2,0.33;stroke-dashoffset:0;stroke-width:0.2;"/>
     </g>
     <g id="line2d_34">
      <g>
       <use style="stroke:#000000;stroke-width:0.6;" x="251.04" xlink:href="#m27be6c3094" y="307.584"/>
      </g>
     </g>
    </g>
    <g id="xtick_18">
     <g id="line2d_35">
      <path clip-path="url(#pccb0598d0e)" d="M 265.92 307.584 
L 265.92 41.472 
" style="fill:none;stroke:#000000;stroke-dasharray:0.2,0.33;stroke-dashoffset:0;stroke-width:0.2;"/>
     </g>
     <g id="line2d_36">
      <g>
       <use style="stroke:#000000;stroke-width:0.6;" x="265.92" xlink:href="#m27be6c3094" y="307.584"/>
      </g>
     </g>
    </g>
    <g id="xtick_19">
     <g id="line2d_37">
      <path clip-path="url(#pccb0598d0e)" d="M 280.8 307.584 
L 280.8 41.472 
" style="fill:none;stroke:#000000;stroke-dasharray:0.2,0.33;stroke-dashoffset:0;stroke-width:0.2;"/>
     </g>
     <g id="line2d_38">
      <g>
       <use style="stroke:#000000;stroke-width:0.6;" x="280.8" xlink:href="#m27be6c3094" y="307.584"/>
      </g>
     </g>
    </g>
    <g id="xtick_20">
     <g id="line2d_39">
      <path clip-path="url(#pccb0598d0e)" d="M 310.56 307.584 
L 310.56 41.472 
" style="fill:none;stroke:#000000;stroke-dasharray:0.2,0.33;stroke-dashoffset:0;stroke-width:0.2;"/>
     </g>
     <g id="line2d_40">
      <g>
       <use style="stroke:#000000;stroke-width:0.6;" x="310.56" xlink:href="#m27be6c3094" y="307.584"/>
      </g>
     </g>
    </g>
    <g id="xtick_21">
     <g id="line2d_41">
      <path clip-path="url(#pccb0598d0e)" d="M 325.44 307.584 
L 325.44 41.472 
" style="fill:none;stroke:#000000;stroke-dasharray:0.2,0.33;stroke-dashoffset:0;stroke-width:0.2;"/>
     </g>
     <g id="line2d_42">
      <g>
       <use style="stroke:#000000;stroke-width:0.6;" x="325.44" xlink:href="#m27be6c3094" y="307.584"/>
      </g>
     </g>
    </g>
    <g id="xtick_22">
     <g id="line2d_43">
      <path clip-path="url(#pccb0598d0e)" d="M 340.32 307.584 
L 340.32 41.472 
" style="fill:none;stroke:#000000;stroke-dasharray:0.2,0.33;stroke-dashoffset:0;stroke-width:0.2;"/>
     </g>
     <g id="line2d_44">
      <g>
       <use style="stroke:#000000;stroke-width:0.6;" x="340.32" xlink:href="#m27be6c3094" y="307.584"/>
      </g>
     </g>
    </g>
    <g id="xtick_23">
     <g id="line2d_45">
      <path clip-path="url(#pccb0598d0e)" d="M 370.08 307.584 
L 370.08 41.472 
" style="fill:none;stroke:#000000;stroke-dasharray:0.2,0.33;stroke-dashoffset:0;stroke-width:0.2;"/>
     </g>
     <g id="line2d_46">
      <g>
       <use style="stroke:#000000;stroke-width:0.6;" x="370.08" xlink:href="#m27be6c3094" y="307.584"/>
      </g>
     </g>
    </g>
    <g id="xtick_24">
     <g id="line2d_47">
      <path clip-path="url(#pccb0598d0e)" d="M 384.96 307.584 
L 384.96 41.472 
" style="fill:none;stroke:#000000;stroke-dasharray:0.2,0.33;stroke-dashoffset:0;stroke-width:0.2;"/>
     </g>
     <g id="line2d_48">
      <g>
       <use style="stroke:#000000;stroke-width:0.6;" x="384.96" xlink:href="#m27be6c3094" y="307.584"/>
      </g>
     </g>
    </g>
    <g id="xtick_25">
     <g id="line2d_49">
      <path clip-path="url(#pccb0598d0e)" d="M 399.84 307.584 
L 399.84 41.472 
" style="fill:none;stroke:#000000;stroke-dasharray:0.2,0.33;stroke-dashoffset:0;stroke-width:0.2;"/>
     </g>
     <g id="line2d_50">
      <g>
       <use style="stroke:#000000;stroke-width:0.6;" x="399.84" xlink:href="#m27be6c3094" y="307.584"/>
      </g>
     </g>
    </g>
    <g id="text_8">
     <!-- $t, сек.$ -->
     <g transform="translate(220.21 335.860562)scale(0.1 -0.1)">
      <defs>
       <path d="M 2706 3500 
L 2619 3053 
L 1472 3053 
L 1100 1153 
Q 1081 1047 1072 975 
Q 1063 903 1063 863 
Q 1063 663 1183 572 
Q 1303 481 1569 481 
L 2150 481 
L 2053 0 
L 1503 0 
Q 991 0 739 200 
Q 488 400 488 806 
Q 488 878 497 964 
Q 506 1050 525 1153 
L 897 3053 
L 409 3053 
L 500 3500 
L 978 3500 
L 1172 4494 
L 1747 4494 
L 1556 3500 
L 2706 3500 
z
" id="DejaVuSans-Oblique-74" transform="scale(0.015625)"/>
       <path d="M 750 794 
L 1409 794 
L 1409 256 
L 897 -744 
L 494 -744 
L 750 256 
L 750 794 
z
" id="DejaVuSans-2c" transform="scale(0.015625)"/>
       <path d="M 3431 3366 
L 3316 2797 
Q 3109 2947 2876 3022 
Q 2644 3097 2394 3097 
Q 2119 3097 1870 3000 
Q 1622 2903 1453 2725 
Q 1184 2453 1037 2087 
Q 891 1722 891 1331 
Q 891 859 1127 628 
Q 1363 397 1844 397 
Q 2081 397 2348 469 
Q 2616 541 2906 684 
L 2797 116 
Q 2547 13 2283 -39 
Q 2019 -91 1741 -91 
Q 1044 -91 669 257 
Q 294 606 294 1253 
Q 294 1797 489 2255 
Q 684 2713 1069 3078 
Q 1331 3328 1684 3456 
Q 2038 3584 2456 3584 
Q 2700 3584 2940 3529 
Q 3181 3475 3431 3366 
z
" id="DejaVuSans-Oblique-441" transform="scale(0.015625)"/>
       <path d="M 3078 2063 
Q 3088 2113 3092 2166 
Q 3097 2219 3097 2272 
Q 3097 2653 2873 2875 
Q 2650 3097 2266 3097 
Q 1838 3097 1509 2826 
Q 1181 2556 1013 2059 
L 3078 2063 
z
M 3578 1613 
L 903 1613 
Q 884 1494 878 1425 
Q 872 1356 872 1306 
Q 872 872 1139 634 
Q 1406 397 1894 397 
Q 2269 397 2603 481 
Q 2938 566 3225 728 
L 3116 159 
Q 2806 34 2476 -28 
Q 2147 -91 1806 -91 
Q 1078 -91 686 257 
Q 294 606 294 1247 
Q 294 1794 489 2264 
Q 684 2734 1063 3103 
Q 1306 3334 1642 3459 
Q 1978 3584 2356 3584 
Q 2950 3584 3301 3228 
Q 3653 2872 3653 2272 
Q 3653 2128 3634 1964 
Q 3616 1800 3578 1613 
z
" id="DejaVuSans-Oblique-435" transform="scale(0.015625)"/>
       <path d="M 922 3500 
L 1494 3500 
L 1175 1856 
L 3116 3500 
L 3822 3500 
L 2222 2147 
L 3313 0 
L 2669 0 
L 1772 1766 
L 1034 1141 
L 813 0 
L 241 0 
L 922 3500 
z
" id="DejaVuSans-Oblique-43a" transform="scale(0.015625)"/>
       <path d="M 684 794 
L 1344 794 
L 1344 0 
L 684 0 
L 684 794 
z
" id="DejaVuSans-2e" transform="scale(0.015625)"/>
      </defs>
      <use transform="translate(0 0.78125)" xlink:href="#DejaVuSans-Oblique-74"/>
      <use transform="translate(39.208984 0.78125)" xlink:href="#DejaVuSans-2c"/>
      <use transform="translate(90.478516 0.78125)" xlink:href="#DejaVuSans-Oblique-441"/>
      <use transform="translate(145.458984 0.78125)" xlink:href="#DejaVuSans-Oblique-435"/>
      <use transform="translate(206.982422 0.78125)" xlink:href="#DejaVuSans-Oblique-43a"/>
      <use transform="translate(267.382812 0.78125)" xlink:href="#DejaVuSans-2e"/>
     </g>
    </g>
   </g>
   <g id="matplotlib.axis_2">
    <g id="ytick_1">
     <g id="line2d_51">
      <path clip-path="url(#pccb0598d0e)" d="M 57.6 307.584 
L 414.72 307.584 
" style="fill:none;stroke:#000000;stroke-linecap:square;stroke-width:0.3;"/>
     </g>
     <g id="line2d_52">
      <defs>
       <path d="M 0 0 
L -3.5 0 
" id="m87ed599351" style="stroke:#000000;stroke-width:0.8;"/>
      </defs>
      <g>
       <use style="stroke:#000000;stroke-width:0.8;" x="57.6" xlink:href="#m87ed599351" y="307.584"/>
      </g>
     </g>
     <g id="text_9">
      <!-- 0.0 -->
      <g transform="translate(34.696875 311.383219)scale(0.1 -0.1)">
       <use xlink:href="#DejaVuSans-30"/>
       <use x="63.623047" xlink:href="#DejaVuSans-2e"/>
       <use x="95.410156" xlink:href="#DejaVuSans-30"/>
      </g>
     </g>
    </g>
    <g id="ytick_2">
     <g id="line2d_53">
      <path clip-path="url(#pccb0598d0e)" d="M 57.6 269.568 
L 414.72 269.568 
" style="fill:none;stroke:#000000;stroke-linecap:square;stroke-width:0.3;"/>
     </g>
     <g id="line2d_54">
      <g>
       <use style="stroke:#000000;stroke-width:0.8;" x="57.6" xlink:href="#m87ed599351" y="269.568"/>
      </g>
     </g>
     <g id="text_10">
      <!-- 0.5 -->
      <g transform="translate(34.696875 273.367219)scale(0.1 -0.1)">
       <defs>
        <path d="M 691 4666 
L 3169 4666 
L 3169 4134 
L 1269 4134 
L 1269 2991 
Q 1406 3038 1543 3061 
Q 1681 3084 1819 3084 
Q 2600 3084 3056 2656 
Q 3513 2228 3513 1497 
Q 3513 744 3044 326 
Q 2575 -91 1722 -91 
Q 1428 -91 1123 -41 
Q 819 9 494 109 
L 494 744 
Q 775 591 1075 516 
Q 1375 441 1709 441 
Q 2250 441 2565 725 
Q 2881 1009 2881 1497 
Q 2881 1984 2565 2268 
Q 2250 2553 1709 2553 
Q 1456 2553 1204 2497 
Q 953 2441 691 2322 
L 691 4666 
z
" id="DejaVuSans-35" transform="scale(0.015625)"/>
       </defs>
       <use xlink:href="#DejaVuSans-30"/>
       <use x="63.623047" xlink:href="#DejaVuSans-2e"/>
       <use x="95.410156" xlink:href="#DejaVuSans-35"/>
      </g>
     </g>
    </g>
    <g id="ytick_3">
     <g id="line2d_55">
      <path clip-path="url(#pccb0598d0e)" d="M 57.6 231.552 
L 414.72 231.552 
" style="fill:none;stroke:#000000;stroke-linecap:square;stroke-width:0.3;"/>
     </g>
     <g id="line2d_56">
      <g>
       <use style="stroke:#000000;stroke-width:0.8;" x="57.6" xlink:href="#m87ed599351" y="231.552"/>
      </g>
     </g>
     <g id="text_11">
      <!-- 1.0 -->
      <g transform="translate(34.696875 235.351219)scale(0.1 -0.1)">
       <use xlink:href="#DejaVuSans-31"/>
       <use x="63.623047" xlink:href="#DejaVuSans-2e"/>
       <use x="95.410156" xlink:href="#DejaVuSans-30"/>
      </g>
     </g>
    </g>
    <g id="ytick_4">
     <g id="line2d_57">
      <path clip-path="url(#pccb0598d0e)" d="M 57.6 193.536 
L 414.72 193.536 
" style="fill:none;stroke:#000000;stroke-linecap:square;stroke-width:0.3;"/>
     </g>
     <g id="line2d_58">
      <g>
       <use style="stroke:#000000;stroke-width:0.8;" x="57.6" xlink:href="#m87ed599351" y="193.536"/>
      </g>
     </g>
     <g id="text_12">
      <!-- 1.5 -->
      <g transform="translate(34.696875 197.335219)scale(0.1 -0.1)">
       <use xlink:href="#DejaVuSans-31"/>
       <use x="63.623047" xlink:href="#DejaVuSans-2e"/>
       <use x="95.410156" xlink:href="#DejaVuSans-35"/>
      </g>
     </g>
    </g>
    <g id="ytick_5">
     <g id="line2d_59">
      <path clip-path="url(#pccb0598d0e)" d="M 57.6 155.52 
L 414.72 155.52 
" style="fill:none;stroke:#000000;stroke-linecap:square;stroke-width:0.3;"/>
     </g>
     <g id="line2d_60">
      <g>
       <use style="stroke:#000000;stroke-width:0.8;" x="57.6" xlink:href="#m87ed599351" y="155.52"/>
      </g>
     </g>
     <g id="text_13">
      <!-- 2.0 -->
      <g transform="translate(34.696875 159.319219)scale(0.1 -0.1)">
       <use xlink:href="#DejaVuSans-32"/>
       <use x="63.623047" xlink:href="#DejaVuSans-2e"/>
       <use x="95.410156" xlink:href="#DejaVuSans-30"/>
      </g>
     </g>
    </g>
    <g id="ytick_6">
     <g id="line2d_61">
      <path clip-path="url(#pccb0598d0e)" d="M 57.6 117.504 
L 414.72 117.504 
" style="fill:none;stroke:#000000;stroke-linecap:square;stroke-width:0.3;"/>
     </g>
     <g id="line2d_62">
      <g>
       <use style="stroke:#000000;stroke-width:0.8;" x="57.6" xlink:href="#m87ed599351" y="117.504"/>
      </g>
     </g>
     <g id="text_14">
      <!-- 2.5 -->
      <g transform="translate(34.696875 121.303219)scale(0.1 -0.1)">
       <use xlink:href="#DejaVuSans-32"/>
       <use x="63.623047" xlink:href="#DejaVuSans-2e"/>
       <use x="95.410156" xlink:href="#DejaVuSans-35"/>
      </g>
     </g>
    </g>
    <g id="ytick_7">
     <g id="line2d_63">
      <path clip-path="url(#pccb0598d0e)" d="M 57.6 79.488 
L 414.72 79.488 
" style="fill:none;stroke:#000000;stroke-linecap:square;stroke-width:0.3;"/>
     </g>
     <g id="line2d_64">
      <g>
       <use style="stroke:#000000;stroke-width:0.8;" x="57.6" xlink:href="#m87ed599351" y="79.488"/>
      </g>
     </g>
     <g id="text_15">
      <!-- 3.0 -->
      <g transform="translate(34.696875 83.287219)scale(0.1 -0.1)">
       <defs>
        <path d="M 2597 2516 
Q 3050 2419 3304 2112 
Q 3559 1806 3559 1356 
Q 3559 666 3084 287 
Q 2609 -91 1734 -91 
Q 1441 -91 1130 -33 
Q 819 25 488 141 
L 488 750 
Q 750 597 1062 519 
Q 1375 441 1716 441 
Q 2309 441 2620 675 
Q 2931 909 2931 1356 
Q 2931 1769 2642 2001 
Q 2353 2234 1838 2234 
L 1294 2234 
L 1294 2753 
L 1863 2753 
Q 2328 2753 2575 2939 
Q 2822 3125 2822 3475 
Q 2822 3834 2567 4026 
Q 2313 4219 1838 4219 
Q 1578 4219 1281 4162 
Q 984 4106 628 3988 
L 628 4550 
Q 988 4650 1302 4700 
Q 1616 4750 1894 4750 
Q 2613 4750 3031 4423 
Q 3450 4097 3450 3541 
Q 3450 3153 3228 2886 
Q 3006 2619 2597 2516 
z
" id="DejaVuSans-33" transform="scale(0.015625)"/>
       </defs>
       <use xlink:href="#DejaVuSans-33"/>
       <use x="63.623047" xlink:href="#DejaVuSans-2e"/>
       <use x="95.410156" xlink:href="#DejaVuSans-30"/>
      </g>
     </g>
    </g>
    <g id="ytick_8">
     <g id="line2d_65">
      <path clip-path="url(#pccb0598d0e)" d="M 57.6 41.472 
L 414.72 41.472 
" style="fill:none;stroke:#000000;stroke-linecap:square;stroke-width:0.3;"/>
     </g>
     <g id="line2d_66">
      <g>
       <use style="stroke:#000000;stroke-width:0.8;" x="57.6" xlink:href="#m87ed599351" y="41.472"/>
      </g>
     </g>
     <g id="text_16">
      <!-- 3.5 -->
      <g transform="translate(34.696875 45.271219)scale(0.1 -0.1)">
       <use xlink:href="#DejaVuSans-33"/>
       <use x="63.623047" xlink:href="#DejaVuSans-2e"/>
       <use x="95.410156" xlink:href="#DejaVuSans-35"/>
      </g>
     </g>
    </g>
    <g id="ytick_9">
     <g id="line2d_67">
      <path clip-path="url(#pccb0598d0e)" d="M 57.6 299.9808 
L 414.72 299.9808 
" style="fill:none;stroke:#000000;stroke-dasharray:0.2,0.33;stroke-dashoffset:0;stroke-width:0.2;"/>
     </g>
     <g id="line2d_68">
      <defs>
       <path d="M 0 0 
L -2 0 
" id="m9f8f7122a9" style="stroke:#000000;stroke-width:0.6;"/>
      </defs>
      <g>
       <use style="stroke:#000000;stroke-width:0.6;" x="57.6" xlink:href="#m9f8f7122a9" y="299.9808"/>
      </g>
     </g>
    </g>
    <g id="ytick_10">
     <g id="line2d_69">
      <path clip-path="url(#pccb0598d0e)" d="M 57.6 292.3776 
L 414.72 292.3776 
" style="fill:none;stroke:#000000;stroke-dasharray:0.2,0.33;stroke-dashoffset:0;stroke-width:0.2;"/>
     </g>
     <g id="line2d_70">
      <g>
       <use style="stroke:#000000;stroke-width:0.6;" x="57.6" xlink:href="#m9f8f7122a9" y="292.3776"/>
      </g>
     </g>
    </g>
    <g id="ytick_11">
     <g id="line2d_71">
      <path clip-path="url(#pccb0598d0e)" d="M 57.6 284.7744 
L 414.72 284.7744 
" style="fill:none;stroke:#000000;stroke-dasharray:0.2,0.33;stroke-dashoffset:0;stroke-width:0.2;"/>
     </g>
     <g id="line2d_72">
      <g>
       <use style="stroke:#000000;stroke-width:0.6;" x="57.6" xlink:href="#m9f8f7122a9" y="284.7744"/>
      </g>
     </g>
    </g>
    <g id="ytick_12">
     <g id="line2d_73">
      <path clip-path="url(#pccb0598d0e)" d="M 57.6 277.1712 
L 414.72 277.1712 
" style="fill:none;stroke:#000000;stroke-dasharray:0.2,0.33;stroke-dashoffset:0;stroke-width:0.2;"/>
     </g>
     <g id="line2d_74">
      <g>
       <use style="stroke:#000000;stroke-width:0.6;" x="57.6" xlink:href="#m9f8f7122a9" y="277.1712"/>
      </g>
     </g>
    </g>
    <g id="ytick_13">
     <g id="line2d_75">
      <path clip-path="url(#pccb0598d0e)" d="M 57.6 261.9648 
L 414.72 261.9648 
" style="fill:none;stroke:#000000;stroke-dasharray:0.2,0.33;stroke-dashoffset:0;stroke-width:0.2;"/>
     </g>
     <g id="line2d_76">
      <g>
       <use style="stroke:#000000;stroke-width:0.6;" x="57.6" xlink:href="#m9f8f7122a9" y="261.9648"/>
      </g>
     </g>
    </g>
    <g id="ytick_14">
     <g id="line2d_77">
      <path clip-path="url(#pccb0598d0e)" d="M 57.6 254.3616 
L 414.72 254.3616 
" style="fill:none;stroke:#000000;stroke-dasharray:0.2,0.33;stroke-dashoffset:0;stroke-width:0.2;"/>
     </g>
     <g id="line2d_78">
      <g>
       <use style="stroke:#000000;stroke-width:0.6;" x="57.6" xlink:href="#m9f8f7122a9" y="254.3616"/>
      </g>
     </g>
    </g>
    <g id="ytick_15">
     <g id="line2d_79">
      <path clip-path="url(#pccb0598d0e)" d="M 57.6 246.7584 
L 414.72 246.7584 
" style="fill:none;stroke:#000000;stroke-dasharray:0.2,0.33;stroke-dashoffset:0;stroke-width:0.2;"/>
     </g>
     <g id="line2d_80">
      <g>
       <use style="stroke:#000000;stroke-width:0.6;" x="57.6" xlink:href="#m9f8f7122a9" y="246.7584"/>
      </g>
     </g>
    </g>
    <g id="ytick_16">
     <g id="line2d_81">
      <path clip-path="url(#pccb0598d0e)" d="M 57.6 239.1552 
L 414.72 239.1552 
" style="fill:none;stroke:#000000;stroke-dasharray:0.2,0.33;stroke-dashoffset:0;stroke-width:0.2;"/>
     </g>
     <g id="line2d_82">
      <g>
       <use style="stroke:#000000;stroke-width:0.6;" x="57.6" xlink:href="#m9f8f7122a9" y="239.1552"/>
      </g>
     </g>
    </g>
    <g id="ytick_17">
     <g id="line2d_83">
      <path clip-path="url(#pccb0598d0e)" d="M 57.6 223.9488 
L 414.72 223.9488 
" style="fill:none;stroke:#000000;stroke-dasharray:0.2,0.33;stroke-dashoffset:0;stroke-width:0.2;"/>
     </g>
     <g id="line2d_84">
      <g>
       <use style="stroke:#000000;stroke-width:0.6;" x="57.6" xlink:href="#m9f8f7122a9" y="223.9488"/>
      </g>
     </g>
    </g>
    <g id="ytick_18">
     <g id="line2d_85">
      <path clip-path="url(#pccb0598d0e)" d="M 57.6 216.3456 
L 414.72 216.3456 
" style="fill:none;stroke:#000000;stroke-dasharray:0.2,0.33;stroke-dashoffset:0;stroke-width:0.2;"/>
     </g>
     <g id="line2d_86">
      <g>
       <use style="stroke:#000000;stroke-width:0.6;" x="57.6" xlink:href="#m9f8f7122a9" y="216.3456"/>
      </g>
     </g>
    </g>
    <g id="ytick_19">
     <g id="line2d_87">
      <path clip-path="url(#pccb0598d0e)" d="M 57.6 208.7424 
L 414.72 208.7424 
" style="fill:none;stroke:#000000;stroke-dasharray:0.2,0.33;stroke-dashoffset:0;stroke-width:0.2;"/>
     </g>
     <g id="line2d_88">
      <g>
       <use style="stroke:#000000;stroke-width:0.6;" x="57.6" xlink:href="#m9f8f7122a9" y="208.7424"/>
      </g>
     </g>
    </g>
    <g id="ytick_20">
     <g id="line2d_89">
      <path clip-path="url(#pccb0598d0e)" d="M 57.6 201.1392 
L 414.72 201.1392 
" style="fill:none;stroke:#000000;stroke-dasharray:0.2,0.33;stroke-dashoffset:0;stroke-width:0.2;"/>
     </g>
     <g id="line2d_90">
      <g>
       <use style="stroke:#000000;stroke-width:0.6;" x="57.6" xlink:href="#m9f8f7122a9" y="201.1392"/>
      </g>
     </g>
    </g>
    <g id="ytick_21">
     <g id="line2d_91">
      <path clip-path="url(#pccb0598d0e)" d="M 57.6 185.9328 
L 414.72 185.9328 
" style="fill:none;stroke:#000000;stroke-dasharray:0.2,0.33;stroke-dashoffset:0;stroke-width:0.2;"/>
     </g>
     <g id="line2d_92">
      <g>
       <use style="stroke:#000000;stroke-width:0.6;" x="57.6" xlink:href="#m9f8f7122a9" y="185.9328"/>
      </g>
     </g>
    </g>
    <g id="ytick_22">
     <g id="line2d_93">
      <path clip-path="url(#pccb0598d0e)" d="M 57.6 178.3296 
L 414.72 178.3296 
" style="fill:none;stroke:#000000;stroke-dasharray:0.2,0.33;stroke-dashoffset:0;stroke-width:0.2;"/>
     </g>
     <g id="line2d_94">
      <g>
       <use style="stroke:#000000;stroke-width:0.6;" x="57.6" xlink:href="#m9f8f7122a9" y="178.3296"/>
      </g>
     </g>
    </g>
    <g id="ytick_23">
     <g id="line2d_95">
      <path clip-path="url(#pccb0598d0e)" d="M 57.6 170.7264 
L 414.72 170.7264 
" style="fill:none;stroke:#000000;stroke-dasharray:0.2,0.33;stroke-dashoffset:0;stroke-width:0.2;"/>
     </g>
     <g id="line2d_96">
      <g>
       <use style="stroke:#000000;stroke-width:0.6;" x="57.6" xlink:href="#m9f8f7122a9" y="170.7264"/>
      </g>
     </g>
    </g>
    <g id="ytick_24">
     <g id="line2d_97">
      <path clip-path="url(#pccb0598d0e)" d="M 57.6 163.1232 
L 414.72 163.1232 
" style="fill:none;stroke:#000000;stroke-dasharray:0.2,0.33;stroke-dashoffset:0;stroke-width:0.2;"/>
     </g>
     <g id="line2d_98">
      <g>
       <use style="stroke:#000000;stroke-width:0.6;" x="57.6" xlink:href="#m9f8f7122a9" y="163.1232"/>
      </g>
     </g>
    </g>
    <g id="ytick_25">
     <g id="line2d_99">
      <path clip-path="url(#pccb0598d0e)" d="M 57.6 147.9168 
L 414.72 147.9168 
" style="fill:none;stroke:#000000;stroke-dasharray:0.2,0.33;stroke-dashoffset:0;stroke-width:0.2;"/>
     </g>
     <g id="line2d_100">
      <g>
       <use style="stroke:#000000;stroke-width:0.6;" x="57.6" xlink:href="#m9f8f7122a9" y="147.9168"/>
      </g>
     </g>
    </g>
    <g id="ytick_26">
     <g id="line2d_101">
      <path clip-path="url(#pccb0598d0e)" d="M 57.6 140.3136 
L 414.72 140.3136 
" style="fill:none;stroke:#000000;stroke-dasharray:0.2,0.33;stroke-dashoffset:0;stroke-width:0.2;"/>
     </g>
     <g id="line2d_102">
      <g>
       <use style="stroke:#000000;stroke-width:0.6;" x="57.6" xlink:href="#m9f8f7122a9" y="140.3136"/>
      </g>
     </g>
    </g>
    <g id="ytick_27">
     <g id="line2d_103">
      <path clip-path="url(#pccb0598d0e)" d="M 57.6 132.7104 
L 414.72 132.7104 
" style="fill:none;stroke:#000000;stroke-dasharray:0.2,0.33;stroke-dashoffset:0;stroke-width:0.2;"/>
     </g>
     <g id="line2d_104">
      <g>
       <use style="stroke:#000000;stroke-width:0.6;" x="57.6" xlink:href="#m9f8f7122a9" y="132.7104"/>
      </g>
     </g>
    </g>
    <g id="ytick_28">
     <g id="line2d_105">
      <path clip-path="url(#pccb0598d0e)" d="M 57.6 125.1072 
L 414.72 125.1072 
" style="fill:none;stroke:#000000;stroke-dasharray:0.2,0.33;stroke-dashoffset:0;stroke-width:0.2;"/>
     </g>
     <g id="line2d_106">
      <g>
       <use style="stroke:#000000;stroke-width:0.6;" x="57.6" xlink:href="#m9f8f7122a9" y="125.1072"/>
      </g>
     </g>
    </g>
    <g id="ytick_29">
     <g id="line2d_107">
      <path clip-path="url(#pccb0598d0e)" d="M 57.6 109.9008 
L 414.72 109.9008 
" style="fill:none;stroke:#000000;stroke-dasharray:0.2,0.33;stroke-dashoffset:0;stroke-width:0.2;"/>
     </g>
     <g id="line2d_108">
      <g>
       <use style="stroke:#000000;stroke-width:0.6;" x="57.6" xlink:href="#m9f8f7122a9" y="109.9008"/>
      </g>
     </g>
    </g>
    <g id="ytick_30">
     <g id="line2d_109">
      <path clip-path="url(#pccb0598d0e)" d="M 57.6 102.2976 
L 414.72 102.2976 
" style="fill:none;stroke:#000000;stroke-dasharray:0.2,0.33;stroke-dashoffset:0;stroke-width:0.2;"/>
     </g>
     <g id="line2d_110">
      <g>
       <use style="stroke:#000000;stroke-width:0.6;" x="57.6" xlink:href="#m9f8f7122a9" y="102.2976"/>
      </g>
     </g>
    </g>
    <g id="ytick_31">
     <g id="line2d_111">
      <path clip-path="url(#pccb0598d0e)" d="M 57.6 94.6944 
L 414.72 94.6944 
" style="fill:none;stroke:#000000;stroke-dasharray:0.2,0.33;stroke-dashoffset:0;stroke-width:0.2;"/>
     </g>
     <g id="line2d_112">
      <g>
       <use style="stroke:#000000;stroke-width:0.6;" x="57.6" xlink:href="#m9f8f7122a9" y="94.6944"/>
      </g>
     </g>
    </g>
    <g id="ytick_32">
     <g id="line2d_113">
      <path clip-path="url(#pccb0598d0e)" d="M 57.6 87.0912 
L 414.72 87.0912 
" style="fill:none;stroke:#000000;stroke-dasharray:0.2,0.33;stroke-dashoffset:0;stroke-width:0.2;"/>
     </g>
     <g id="line2d_114">
      <g>
       <use style="stroke:#000000;stroke-width:0.6;" x="57.6" xlink:href="#m9f8f7122a9" y="87.0912"/>
      </g>
     </g>
    </g>
    <g id="ytick_33">
     <g id="line2d_115">
      <path clip-path="url(#pccb0598d0e)" d="M 57.6 71.8848 
L 414.72 71.8848 
" style="fill:none;stroke:#000000;stroke-dasharray:0.2,0.33;stroke-dashoffset:0;stroke-width:0.2;"/>
     </g>
     <g id="line2d_116">
      <g>
       <use style="stroke:#000000;stroke-width:0.6;" x="57.6" xlink:href="#m9f8f7122a9" y="71.8848"/>
      </g>
     </g>
    </g>
    <g id="ytick_34">
     <g id="line2d_117">
      <path clip-path="url(#pccb0598d0e)" d="M 57.6 64.2816 
L 414.72 64.2816 
" style="fill:none;stroke:#000000;stroke-dasharray:0.2,0.33;stroke-dashoffset:0;stroke-width:0.2;"/>
     </g>
     <g id="line2d_118">
      <g>
       <use style="stroke:#000000;stroke-width:0.6;" x="57.6" xlink:href="#m9f8f7122a9" y="64.2816"/>
      </g>
     </g>
    </g>
    <g id="ytick_35">
     <g id="line2d_119">
      <path clip-path="url(#pccb0598d0e)" d="M 57.6 56.6784 
L 414.72 56.6784 
" style="fill:none;stroke:#000000;stroke-dasharray:0.2,0.33;stroke-dashoffset:0;stroke-width:0.2;"/>
     </g>
     <g id="line2d_120">
      <g>
       <use style="stroke:#000000;stroke-width:0.6;" x="57.6" xlink:href="#m9f8f7122a9" y="56.6784"/>
      </g>
     </g>
    </g>
    <g id="ytick_36">
     <g id="line2d_121">
      <path clip-path="url(#pccb0598d0e)" d="M 57.6 49.0752 
L 414.72 49.0752 
" style="fill:none;stroke:#000000;stroke-dasharray:0.2,0.33;stroke-dashoffset:0;stroke-width:0.2;"/>
     </g>
     <g id="line2d_122">
      <g>
       <use style="stroke:#000000;stroke-width:0.6;" x="57.6" xlink:href="#m9f8f7122a9" y="49.0752"/>
      </g>
     </g>
    </g>
    <g id="text_17">
     <!-- $U, В.$ -->
     <g transform="translate(28.617188 186.778)rotate(-90)scale(0.1 -0.1)">
      <defs>
       <path d="M 991 4666 
L 1625 4666 
L 1075 1831 
Q 1041 1641 1027 1517 
Q 1013 1394 1013 1300 
Q 1013 869 1253 645 
Q 1494 422 1959 422 
Q 2563 422 2898 753 
Q 3234 1084 3378 1831 
L 3928 4666 
L 4563 4666 
L 4000 1753 
Q 3816 809 3300 359 
Q 2784 -91 1888 -91 
Q 1188 -91 780 261 
Q 372 613 372 1216 
Q 372 1325 387 1461 
Q 403 1597 434 1753 
L 991 4666 
z
" id="DejaVuSans-Oblique-55" transform="scale(0.015625)"/>
       <path d="M 1081 4666 
L 2694 4666 
Q 3350 4666 3675 4422 
Q 4000 4178 4000 3688 
Q 4000 3238 3720 2911 
Q 3441 2584 2988 2516 
Q 3375 2428 3569 2181 
Q 3763 1934 3763 1522 
Q 3763 819 3242 409 
Q 2722 0 1819 0 
L 172 0 
L 1081 4666 
z
M 1234 2228 
L 903 519 
L 1919 519 
Q 2491 519 2800 781 
Q 3109 1044 3109 1522 
Q 3109 1891 2904 2059 
Q 2700 2228 2247 2228 
L 1234 2228 
z
M 1606 4147 
L 1331 2741 
L 2272 2741 
Q 2775 2741 3058 2959 
Q 3341 3178 3341 3566 
Q 3341 3869 3150 4008 
Q 2959 4147 2541 4147 
L 1606 4147 
z
" id="DejaVuSans-Oblique-412" transform="scale(0.015625)"/>
      </defs>
      <use transform="translate(0 0.09375)" xlink:href="#DejaVuSans-Oblique-55"/>
      <use transform="translate(73.193359 0.09375)" xlink:href="#DejaVuSans-2c"/>
      <use transform="translate(124.462891 0.09375)" xlink:href="#DejaVuSans-Oblique-412"/>
      <use transform="translate(193.066406 0.09375)" xlink:href="#DejaVuSans-2e"/>
     </g>
    </g>
   </g>
   <g id="line2d_123">
    <path clip-path="url(#pccb0598d0e)" d="M 57.6 306.747648 
L 57.6 303.40224 
L 57.998784 303.40224 
L 57.998784 301.729536 
L 58.397568 301.729536 
L 58.397568 300.056832 
L 58.796352 300.056832 
L 58.796352 298.384128 
L 59.195136 298.384128 
L 59.195136 295.03872 
L 59.59392 295.03872 
L 59.59392 293.366016 
L 59.992704 293.366016 
L 59.992704 291.693312 
L 60.391488 291.693312 
L 60.391488 288.347904 
L 61.189056 288.347904 
L 61.189056 285.002496 
L 61.986624 285.002496 
L 61.986624 281.657088 
L 62.784192 281.657088 
L 62.784192 276.638976 
L 63.182976 276.638976 
L 63.182976 274.966272 
L 63.58176 274.966272 
L 63.58176 273.293568 
L 63.980544 273.293568 
L 63.980544 271.620864 
L 64.379328 271.620864 
L 64.379328 269.94816 
L 64.778112 269.94816 
L 64.778112 268.275456 
L 65.176896 268.275456 
L 65.176896 266.602752 
L 65.57568 266.602752 
L 65.57568 264.930048 
L 65.974464 264.930048 
L 65.974464 263.257344 
L 66.373248 263.257344 
L 66.373248 261.58464 
L 66.772032 261.58464 
L 66.772032 259.911936 
L 67.170816 259.911936 
L 67.170816 258.239232 
L 67.5696 258.239232 
L 67.5696 256.566528 
L 67.968384 256.566528 
L 67.968384 254.893824 
L 68.765952 254.893824 
L 68.765952 251.548416 
L 69.164736 251.548416 
L 69.164736 249.875712 
L 69.56352 249.875712 
L 69.56352 248.203008 
L 69.962304 248.203008 
L 69.962304 246.530304 
L 70.361088 246.530304 
L 70.361088 244.8576 
L 71.158656 244.8576 
L 71.158656 241.512192 
L 71.956224 241.512192 
L 71.956224 239.839488 
L 72.355008 239.839488 
L 72.355008 238.166784 
L 72.753792 238.166784 
L 72.753792 236.49408 
L 73.152576 236.49408 
L 73.152576 234.821376 
L 73.55136 234.821376 
L 73.55136 233.148672 
L 73.950144 233.148672 
L 73.950144 231.475968 
L 74.348928 231.475968 
L 74.348928 229.803264 
L 74.747712 229.803264 
L 74.747712 228.13056 
L 75.54528 228.13056 
L 75.54528 226.457856 
L 75.944064 226.457856 
L 75.944064 224.785152 
L 76.342848 224.785152 
L 76.342848 223.112448 
L 76.741632 223.112448 
L 76.741632 221.439744 
L 77.5392 221.439744 
L 77.5392 219.76704 
L 77.937984 219.76704 
L 77.937984 218.094336 
L 78.336768 218.094336 
L 78.336768 216.421632 
L 78.735552 216.421632 
L 78.735552 214.748928 
L 79.53312 214.748928 
L 79.53312 213.076224 
L 79.931904 213.076224 
L 79.931904 211.40352 
L 80.729472 211.40352 
L 80.729472 209.730816 
L 81.128256 209.730816 
L 81.128256 208.058112 
L 81.925824 208.058112 
L 81.925824 206.385408 
L 82.324608 206.385408 
L 82.324608 204.712704 
L 83.122176 204.712704 
L 83.122176 203.04 
L 83.52096 203.04 
L 83.52096 201.367296 
L 84.717312 201.367296 
L 84.717312 198.021888 
L 85.51488 198.021888 
L 85.51488 196.349184 
L 86.312448 196.349184 
L 86.312448 194.67648 
L 86.711232 194.67648 
L 86.711232 193.003776 
L 87.5088 193.003776 
L 87.5088 191.331072 
L 88.306368 191.331072 
L 88.306368 189.658368 
L 88.705152 189.658368 
L 88.705152 187.985664 
L 89.901504 187.985664 
L 89.901504 186.31296 
L 90.300288 186.31296 
L 90.300288 184.640256 
L 91.49664 184.640256 
L 91.49664 182.967552 
L 91.895424 182.967552 
L 91.895424 181.294848 
L 92.692992 181.294848 
L 92.692992 179.622144 
L 93.49056 179.622144 
L 93.49056 177.94944 
L 94.288128 177.94944 
L 94.288128 176.276736 
L 95.085696 176.276736 
L 95.085696 174.604032 
L 96.680832 174.604032 
L 96.680832 171.258624 
L 97.877184 171.258624 
L 97.877184 169.58592 
L 98.674752 169.58592 
L 98.674752 167.913216 
L 99.871104 167.913216 
L 99.871104 166.240512 
L 100.668672 166.240512 
L 100.668672 164.567808 
L 101.46624 164.567808 
L 101.46624 162.895104 
L 103.061376 162.895104 
L 103.061376 161.2224 
L 103.46016 161.2224 
L 103.46016 159.549696 
L 104.656512 159.549696 
L 104.656512 157.876992 
L 105.852864 157.876992 
L 105.852864 156.204288 
L 106.650432 156.204288 
L 106.650432 154.531584 
L 108.245568 154.531584 
L 108.245568 152.85888 
L 109.043136 152.85888 
L 109.043136 151.186176 
L 110.239488 151.186176 
L 110.239488 149.513472 
L 111.834624 149.513472 
L 111.834624 147.840768 
L 112.233408 147.840768 
L 112.233408 146.168064 
L 115.024896 146.168064 
L 115.024896 144.49536 
L 115.42368 144.49536 
L 115.42368 142.822656 
L 117.4176 142.822656 
L 117.4176 141.149952 
L 119.012736 141.149952 
L 119.012736 139.477248 
L 120.209088 139.477248 
L 120.209088 137.804544 
L 121.40544 137.804544 
L 121.40544 136.13184 
L 123.39936 136.13184 
L 123.39936 134.459136 
L 125.39328 134.459136 
L 125.39328 132.786432 
L 127.3872 132.786432 
L 127.3872 131.113728 
L 129.38112 131.113728 
L 129.38112 129.441024 
L 130.577472 129.441024 
L 130.577472 127.76832 
L 130.976256 127.76832 
L 130.976256 129.441024 
L 131.37504 129.441024 
L 131.37504 127.76832 
L 132.970176 127.76832 
L 132.970176 126.095616 
L 136.160448 126.095616 
L 136.160448 124.422912 
L 138.553152 124.422912 
L 138.553152 122.750208 
L 140.945856 122.750208 
L 140.945856 121.077504 
L 142.939776 121.077504 
L 142.939776 119.4048 
L 147.725184 119.4048 
L 147.725184 117.732096 
L 151.31424 117.732096 
L 151.31424 116.059392 
L 151.713024 116.059392 
L 151.713024 117.732096 
L 152.111808 117.732096 
L 152.111808 116.059392 
L 154.504512 116.059392 
L 154.504512 114.386688 
L 154.903296 114.386688 
L 154.903296 116.059392 
L 155.30208 116.059392 
L 155.30208 114.386688 
L 159.28992 114.386688 
L 159.28992 112.713984 
L 163.27776 112.713984 
L 163.27776 111.04128 
L 167.2656 111.04128 
L 167.2656 109.368576 
L 167.664384 109.368576 
L 167.664384 111.04128 
L 168.461952 111.04128 
L 168.461952 109.368576 
L 172.449792 109.368576 
L 172.449792 107.695872 
L 172.848576 107.695872 
L 172.848576 109.368576 
L 173.646144 109.368576 
L 173.646144 107.695872 
L 174.044928 107.695872 
L 174.044928 109.368576 
L 174.842496 109.368576 
L 174.842496 107.695872 
L 178.431552 107.695872 
L 178.431552 106.023168 
L 178.830336 106.023168 
L 178.830336 107.695872 
L 179.627904 107.695872 
L 179.627904 106.023168 
L 180.425472 106.023168 
L 180.425472 107.695872 
L 182.020608 107.695872 
L 182.020608 106.023168 
L 189.996288 106.023168 
L 189.996288 104.350464 
L 190.395072 104.350464 
L 190.395072 106.023168 
L 190.793856 106.023168 
L 190.793856 104.350464 
L 199.965888 104.350464 
L 199.965888 102.67776 
L 200.763456 102.67776 
L 200.763456 104.350464 
L 201.561024 104.350464 
L 201.561024 102.67776 
L 202.358592 102.67776 
L 202.358592 104.350464 
L 202.757376 104.350464 
L 202.757376 102.67776 
L 209.935488 102.67776 
L 209.935488 101.005056 
L 210.334272 101.005056 
L 210.334272 104.350464 
L 210.733056 104.350464 
L 210.733056 106.023168 
L 211.530624 106.023168 
L 211.530624 109.368576 
L 211.929408 109.368576 
L 211.929408 111.04128 
L 212.328192 111.04128 
L 212.328192 112.713984 
L 212.726976 112.713984 
L 212.726976 116.059392 
L 213.524544 116.059392 
L 213.524544 119.4048 
L 214.322112 119.4048 
L 214.322112 122.750208 
L 214.720896 122.750208 
L 214.720896 124.422912 
L 215.11968 124.422912 
L 215.11968 126.095616 
L 215.917248 126.095616 
L 215.917248 129.441024 
L 216.714816 129.441024 
L 216.714816 131.113728 
L 217.1136 131.113728 
L 217.1136 132.786432 
L 217.512384 132.786432 
L 217.512384 134.459136 
L 217.911168 134.459136 
L 217.911168 136.13184 
L 218.309952 136.13184 
L 218.309952 137.804544 
L 218.708736 137.804544 
L 218.708736 139.477248 
L 219.10752 139.477248 
L 219.10752 141.149952 
L 219.506304 141.149952 
L 219.506304 142.822656 
L 219.905088 142.822656 
L 219.905088 144.49536 
L 220.303872 144.49536 
L 220.303872 146.168064 
L 221.10144 146.168064 
L 221.10144 147.840768 
L 221.500224 147.840768 
L 221.500224 149.513472 
L 221.899008 149.513472 
L 221.899008 151.186176 
L 222.297792 151.186176 
L 222.297792 152.85888 
L 222.696576 152.85888 
L 222.696576 154.531584 
L 223.494144 154.531584 
L 223.494144 157.876992 
L 224.291712 157.876992 
L 224.291712 159.549696 
L 225.08928 159.549696 
L 225.08928 161.2224 
L 225.488064 161.2224 
L 225.488064 162.895104 
L 225.886848 162.895104 
L 225.886848 164.567808 
L 226.285632 164.567808 
L 226.285632 166.240512 
L 226.684416 166.240512 
L 226.684416 167.913216 
L 227.481984 167.913216 
L 227.481984 169.58592 
L 227.880768 169.58592 
L 227.880768 171.258624 
L 228.279552 171.258624 
L 228.279552 172.931328 
L 228.678336 172.931328 
L 228.678336 174.604032 
L 229.475904 174.604032 
L 229.475904 176.276736 
L 229.874688 176.276736 
L 229.874688 177.94944 
L 230.672256 177.94944 
L 230.672256 179.622144 
L 231.469824 179.622144 
L 231.469824 181.294848 
L 231.868608 181.294848 
L 231.868608 182.967552 
L 232.267392 182.967552 
L 232.267392 184.640256 
L 233.06496 184.640256 
L 233.06496 186.31296 
L 233.862528 186.31296 
L 233.862528 187.985664 
L 234.261312 187.985664 
L 234.261312 189.658368 
L 235.05888 189.658368 
L 235.05888 191.331072 
L 235.457664 191.331072 
L 235.457664 193.003776 
L 236.255232 193.003776 
L 236.255232 194.67648 
L 237.0528 194.67648 
L 237.0528 196.349184 
L 237.850368 196.349184 
L 237.850368 198.021888 
L 238.647936 198.021888 
L 238.647936 199.694592 
L 239.445504 199.694592 
L 239.445504 201.367296 
L 240.243072 201.367296 
L 240.243072 203.04 
L 241.04064 203.04 
L 241.04064 204.712704 
L 241.439424 204.712704 
L 241.439424 206.385408 
L 242.635776 206.385408 
L 242.635776 208.058112 
L 243.433344 208.058112 
L 243.433344 209.730816 
L 244.230912 209.730816 
L 244.230912 211.40352 
L 244.629696 211.40352 
L 244.629696 213.076224 
L 245.826048 213.076224 
L 245.826048 214.748928 
L 246.623616 214.748928 
L 246.623616 216.421632 
L 247.421184 216.421632 
L 247.421184 218.094336 
L 248.218752 218.094336 
L 248.218752 219.76704 
L 249.415104 219.76704 
L 249.415104 221.439744 
L 250.212672 221.439744 
L 250.212672 223.112448 
L 251.01024 223.112448 
L 251.01024 224.785152 
L 251.807808 224.785152 
L 251.807808 226.457856 
L 253.402944 226.457856 
L 253.402944 228.13056 
L 253.801728 228.13056 
L 253.801728 229.803264 
L 254.99808 229.803264 
L 254.99808 231.475968 
L 255.795648 231.475968 
L 255.795648 233.148672 
L 257.390784 233.148672 
L 257.390784 234.821376 
L 258.188352 234.821376 
L 258.188352 236.49408 
L 259.384704 236.49408 
L 259.384704 238.166784 
L 260.182272 238.166784 
L 260.182272 239.839488 
L 261.378624 239.839488 
L 261.378624 241.512192 
L 262.97376 241.512192 
L 262.97376 243.184896 
L 264.170112 243.184896 
L 264.170112 244.8576 
L 265.366464 244.8576 
L 265.366464 246.530304 
L 266.9616 246.530304 
L 266.9616 248.203008 
L 267.759168 248.203008 
L 267.759168 249.875712 
L 269.354304 249.875712 
L 269.354304 251.548416 
L 270.550656 251.548416 
L 270.550656 253.22112 
L 271.348224 253.22112 
L 271.348224 254.893824 
L 274.139712 254.893824 
L 274.139712 256.566528 
L 275.336064 256.566528 
L 275.336064 258.239232 
L 276.532416 258.239232 
L 276.532416 259.911936 
L 278.526336 259.911936 
L 278.526336 261.58464 
L 280.121472 261.58464 
L 280.121472 263.257344 
L 281.317824 263.257344 
L 281.317824 264.930048 
L 283.311744 264.930048 
L 283.311744 266.602752 
L 285.305664 266.602752 
L 285.305664 268.275456 
L 285.704448 268.275456 
L 285.704448 266.602752 
L 286.103232 266.602752 
L 286.103232 268.275456 
L 287.299584 268.275456 
L 287.299584 269.94816 
L 289.293504 269.94816 
L 289.293504 271.620864 
L 291.287424 271.620864 
L 291.287424 273.293568 
L 293.281344 273.293568 
L 293.281344 274.966272 
L 296.072832 274.966272 
L 296.072832 276.638976 
L 298.066752 276.638976 
L 298.066752 278.31168 
L 300.060672 278.31168 
L 300.060672 279.984384 
L 300.459456 279.984384 
L 300.459456 278.31168 
L 300.85824 278.31168 
L 300.85824 279.984384 
L 302.453376 279.984384 
L 302.453376 281.657088 
L 306.84 281.657088 
L 306.84 283.329792 
L 310.030272 283.329792 
L 310.030272 285.002496 
L 312.422976 285.002496 
L 312.422976 286.6752 
L 316.410816 286.6752 
L 316.410816 288.347904 
L 320.79744 288.347904 
L 320.79744 290.020608 
L 324.386496 290.020608 
L 324.386496 291.693312 
L 324.78528 291.693312 
L 324.78528 290.020608 
L 325.184064 290.020608 
L 325.184064 291.693312 
L 329.969472 291.693312 
L 329.969472 293.366016 
L 333.957312 293.366016 
L 333.957312 295.03872 
L 340.73664 295.03872 
L 340.73664 296.711424 
L 347.515968 296.711424 
L 347.515968 298.384128 
L 347.914752 298.384128 
L 347.914752 296.711424 
L 348.313536 296.711424 
L 348.313536 298.384128 
L 355.092864 298.384128 
L 355.092864 300.056832 
L 363.866112 300.056832 
L 363.866112 301.729536 
L 364.264896 301.729536 
L 364.264896 300.056832 
L 365.860032 300.056832 
L 365.860032 301.729536 
L 366.6576 301.729536 
L 366.6576 300.056832 
L 367.056384 300.056832 
L 367.056384 301.729536 
L 375.430848 301.729536 
L 375.430848 303.40224 
L 375.829632 303.40224 
L 375.829632 301.729536 
L 379.418688 301.729536 
L 379.418688 303.40224 
L 380.61504 303.40224 
L 380.61504 301.729536 
L 381.013824 301.729536 
L 381.013824 303.40224 
L 392.179776 303.40224 
L 392.179776 305.074944 
L 392.57856 305.074944 
L 392.57856 303.40224 
L 393.774912 303.40224 
L 393.774912 305.074944 
L 414.910464 305.074944 
L 414.910464 306.747648 
L 415.309248 306.747648 
L 415.309248 306.747648 
" style="fill:none;stroke:#1f77b4;stroke-linecap:square;stroke-width:1.5;"/>
   </g>
   <g id="patch_3">
    <path d="M 57.6 307.584 
L 57.6 41.472 
" style="fill:none;stroke:#000000;stroke-linecap:square;stroke-linejoin:miter;stroke-width:0.8;"/>
   </g>
   <g id="patch_4">
    <path d="M 414.72 307.584 
L 414.72 41.472 
" style="fill:none;stroke:#000000;stroke-linecap:square;stroke-linejoin:miter;stroke-width:0.8;"/>
   </g>
   <g id="patch_5">
    <path d="M 57.6 307.584 
L 414.72 307.584 
" style="fill:none;stroke:#000000;stroke-linecap:square;stroke-linejoin:miter;stroke-width:0.8;"/>
   </g>
   <g id="patch_6">
    <path d="M 57.6 41.472 
L 414.72 41.472 
" style="fill:none;stroke:#000000;stroke-linecap:square;stroke-linejoin:miter;stroke-width:0.8;"/>
   </g>
   <g id="text_18">
    <!-- Время заряда: 5.1 сек. -->
    <g transform="translate(295.68 193.536)scale(0.1 -0.1)">
     <defs>
      <path d="M 1259 2228 
L 1259 519 
L 2272 519 
Q 2781 519 3026 730 
Q 3272 941 3272 1375 
Q 3272 1813 3026 2020 
Q 2781 2228 2272 2228 
L 1259 2228 
z
M 1259 4147 
L 1259 2741 
L 2194 2741 
Q 2656 2741 2882 2914 
Q 3109 3088 3109 3444 
Q 3109 3797 2882 3972 
Q 2656 4147 2194 4147 
L 1259 4147 
z
M 628 4666 
L 2241 4666 
Q 2963 4666 3353 4366 
Q 3744 4066 3744 3513 
Q 3744 3084 3544 2831 
Q 3344 2578 2956 2516 
Q 3422 2416 3680 2098 
Q 3938 1781 3938 1306 
Q 3938 681 3513 340 
Q 3088 0 2303 0 
L 628 0 
L 628 4666 
z
" id="DejaVuSans-412" transform="scale(0.015625)"/>
      <path d="M 1159 525 
L 1159 -1331 
L 581 -1331 
L 581 3500 
L 1159 3500 
L 1159 2969 
Q 1341 3281 1617 3432 
Q 1894 3584 2278 3584 
Q 2916 3584 3314 3078 
Q 3713 2572 3713 1747 
Q 3713 922 3314 415 
Q 2916 -91 2278 -91 
Q 1894 -91 1617 61 
Q 1341 213 1159 525 
z
M 3116 1747 
Q 3116 2381 2855 2742 
Q 2594 3103 2138 3103 
Q 1681 3103 1420 2742 
Q 1159 2381 1159 1747 
Q 1159 1113 1420 752 
Q 1681 391 2138 391 
Q 2594 391 2855 752 
Q 3116 1113 3116 1747 
z
" id="DejaVuSans-440" transform="scale(0.015625)"/>
      <path d="M 3597 1894 
L 3597 1613 
L 953 1613 
Q 991 1019 1311 708 
Q 1631 397 2203 397 
Q 2534 397 2845 478 
Q 3156 559 3463 722 
L 3463 178 
Q 3153 47 2828 -22 
Q 2503 -91 2169 -91 
Q 1331 -91 842 396 
Q 353 884 353 1716 
Q 353 2575 817 3079 
Q 1281 3584 2069 3584 
Q 2775 3584 3186 3129 
Q 3597 2675 3597 1894 
z
M 3022 2063 
Q 3016 2534 2758 2815 
Q 2500 3097 2075 3097 
Q 1594 3097 1305 2825 
Q 1016 2553 972 2059 
L 3022 2063 
z
" id="DejaVuSans-435" transform="scale(0.015625)"/>
      <path d="M 581 3500 
L 1422 3500 
L 2416 1156 
L 3413 3500 
L 4247 3500 
L 4247 0 
L 3669 0 
L 3669 2950 
L 2703 672 
L 2128 672 
L 1159 2950 
L 1159 0 
L 581 0 
L 581 3500 
z
" id="DejaVuSans-43c" transform="scale(0.015625)"/>
      <path d="M 1181 2491 
Q 1181 2231 1381 2084 
Q 1581 1938 1953 1938 
L 2728 1938 
L 2728 3041 
L 1953 3041 
Q 1581 3041 1381 2897 
Q 1181 2753 1181 2491 
z
M 363 0 
L 1431 1534 
Q 1069 1616 828 1830 
Q 588 2044 588 2491 
Q 588 2997 923 3248 
Q 1259 3500 1938 3500 
L 3306 3500 
L 3306 0 
L 2728 0 
L 2728 1478 
L 2013 1478 
L 981 0 
L 363 0 
z
" id="DejaVuSans-44f" transform="scale(0.015625)"/>
      <path id="DejaVuSans-20" transform="scale(0.015625)"/>
      <path d="M 2206 1888 
Q 2594 1813 2809 1584 
Q 3025 1356 3025 1019 
Q 3025 478 2622 193 
Q 2219 -91 1475 -91 
Q 1225 -91 961 -47 
Q 697 -3 416 84 
L 416 619 
Q 638 503 903 445 
Q 1169 388 1459 388 
Q 1931 388 2195 563 
Q 2459 738 2459 1019 
Q 2459 1294 2225 1461 
Q 1991 1628 1563 1628 
L 1100 1628 
L 1100 2103 
L 1584 2103 
Q 1947 2103 2158 2242 
Q 2369 2381 2369 2600 
Q 2369 2800 2151 2944 
Q 1934 3088 1563 3088 
Q 1341 3088 1089 3047 
Q 838 3006 534 2916 
L 534 3438 
Q 841 3513 1106 3550 
Q 1372 3588 1609 3588 
Q 2222 3588 2576 3342 
Q 2931 3097 2931 2656 
Q 2931 2366 2743 2164 
Q 2556 1963 2206 1888 
z
" id="DejaVuSans-437" transform="scale(0.015625)"/>
      <path d="M 2194 1759 
Q 1497 1759 1228 1600 
Q 959 1441 959 1056 
Q 959 750 1161 570 
Q 1363 391 1709 391 
Q 2188 391 2477 730 
Q 2766 1069 2766 1631 
L 2766 1759 
L 2194 1759 
z
M 3341 1997 
L 3341 0 
L 2766 0 
L 2766 531 
Q 2569 213 2275 61 
Q 1981 -91 1556 -91 
Q 1019 -91 701 211 
Q 384 513 384 1019 
Q 384 1609 779 1909 
Q 1175 2209 1959 2209 
L 2766 2209 
L 2766 2266 
Q 2766 2663 2505 2880 
Q 2244 3097 1772 3097 
Q 1472 3097 1187 3025 
Q 903 2953 641 2809 
L 641 3341 
Q 956 3463 1253 3523 
Q 1550 3584 1831 3584 
Q 2591 3584 2966 3190 
Q 3341 2797 3341 1997 
z
" id="DejaVuSans-430" transform="scale(0.015625)"/>
      <path d="M 1384 459 
L 3053 459 
L 3053 3041 
L 1844 3041 
L 1844 2603 
Q 1844 1316 1475 628 
L 1384 459 
z
M 550 459 
Q 834 584 959 850 
Q 1266 1509 1266 2838 
L 1266 3500 
L 3631 3500 
L 3631 459 
L 4091 459 
L 4091 -884 
L 3631 -884 
L 3631 0 
L 794 0 
L 794 -884 
L 334 -884 
L 334 459 
L 550 459 
z
" id="DejaVuSans-434" transform="scale(0.015625)"/>
      <path d="M 750 794 
L 1409 794 
L 1409 0 
L 750 0 
L 750 794 
z
M 750 3309 
L 1409 3309 
L 1409 2516 
L 750 2516 
L 750 3309 
z
" id="DejaVuSans-3a" transform="scale(0.015625)"/>
      <path d="M 3122 3366 
L 3122 2828 
Q 2878 2963 2633 3030 
Q 2388 3097 2138 3097 
Q 1578 3097 1268 2742 
Q 959 2388 959 1747 
Q 959 1106 1268 751 
Q 1578 397 2138 397 
Q 2388 397 2633 464 
Q 2878 531 3122 666 
L 3122 134 
Q 2881 22 2623 -34 
Q 2366 -91 2075 -91 
Q 1284 -91 818 406 
Q 353 903 353 1747 
Q 353 2603 823 3093 
Q 1294 3584 2113 3584 
Q 2378 3584 2631 3529 
Q 2884 3475 3122 3366 
z
" id="DejaVuSans-441" transform="scale(0.015625)"/>
      <path d="M 581 3500 
L 1153 3500 
L 1153 1856 
L 2775 3500 
L 3481 3500 
L 2144 2147 
L 3653 0 
L 3009 0 
L 1769 1766 
L 1153 1141 
L 1153 0 
L 581 0 
L 581 3500 
z
" id="DejaVuSans-43a" transform="scale(0.015625)"/>
     </defs>
     <use xlink:href="#DejaVuSans-412"/>
     <use x="68.603516" xlink:href="#DejaVuSans-440"/>
     <use x="132.080078" xlink:href="#DejaVuSans-435"/>
     <use x="193.603516" xlink:href="#DejaVuSans-43c"/>
     <use x="269.042969" xlink:href="#DejaVuSans-44f"/>
     <use x="329.199219" xlink:href="#DejaVuSans-20"/>
     <use x="360.986328" xlink:href="#DejaVuSans-437"/>
     <use x="414.160156" xlink:href="#DejaVuSans-430"/>
     <use x="475.439453" xlink:href="#DejaVuSans-440"/>
     <use x="538.916016" xlink:href="#DejaVuSans-44f"/>
     <use x="599.072266" xlink:href="#DejaVuSans-434"/>
     <use x="668.212891" xlink:href="#DejaVuSans-430"/>
     <use x="729.492188" xlink:href="#DejaVuSans-3a"/>
     <use x="763.183594" xlink:href="#DejaVuSans-20"/>
     <use x="794.970703" xlink:href="#DejaVuSans-35"/>
     <use x="858.59375" xlink:href="#DejaVuSans-2e"/>
     <use x="890.380859" xlink:href="#DejaVuSans-31"/>
     <use x="954.003906" xlink:href="#DejaVuSans-20"/>
     <use x="985.791016" xlink:href="#DejaVuSans-441"/>
     <use x="1040.771484" xlink:href="#DejaVuSans-435"/>
     <use x="1102.294922" xlink:href="#DejaVuSans-43a"/>
     <use x="1162.695312" xlink:href="#DejaVuSans-2e"/>
    </g>
   </g>
   <g id="text_19">
    <!-- Время разряда: 6.9 сек. -->
    <g transform="translate(295.68 208.7424)scale(0.1 -0.1)">
     <defs>
      <path d="M 703 97 
L 703 672 
Q 941 559 1184 500 
Q 1428 441 1663 441 
Q 2288 441 2617 861 
Q 2947 1281 2994 2138 
Q 2813 1869 2534 1725 
Q 2256 1581 1919 1581 
Q 1219 1581 811 2004 
Q 403 2428 403 3163 
Q 403 3881 828 4315 
Q 1253 4750 1959 4750 
Q 2769 4750 3195 4129 
Q 3622 3509 3622 2328 
Q 3622 1225 3098 567 
Q 2575 -91 1691 -91 
Q 1453 -91 1209 -44 
Q 966 3 703 97 
z
M 1959 2075 
Q 2384 2075 2632 2365 
Q 2881 2656 2881 3163 
Q 2881 3666 2632 3958 
Q 2384 4250 1959 4250 
Q 1534 4250 1286 3958 
Q 1038 3666 1038 3163 
Q 1038 2656 1286 2365 
Q 1534 2075 1959 2075 
z
" id="DejaVuSans-39" transform="scale(0.015625)"/>
     </defs>
     <use xlink:href="#DejaVuSans-412"/>
     <use x="68.603516" xlink:href="#DejaVuSans-440"/>
     <use x="132.080078" xlink:href="#DejaVuSans-435"/>
     <use x="193.603516" xlink:href="#DejaVuSans-43c"/>
     <use x="269.042969" xlink:href="#DejaVuSans-44f"/>
     <use x="329.199219" xlink:href="#DejaVuSans-20"/>
     <use x="360.986328" xlink:href="#DejaVuSans-440"/>
     <use x="424.462891" xlink:href="#DejaVuSans-430"/>
     <use x="485.742188" xlink:href="#DejaVuSans-437"/>
     <use x="538.916016" xlink:href="#DejaVuSans-440"/>
     <use x="602.392578" xlink:href="#DejaVuSans-44f"/>
     <use x="662.548828" xlink:href="#DejaVuSans-434"/>
     <use x="731.689453" xlink:href="#DejaVuSans-430"/>
     <use x="792.96875" xlink:href="#DejaVuSans-3a"/>
     <use x="826.660156" xlink:href="#DejaVuSans-20"/>
     <use x="858.447266" xlink:href="#DejaVuSans-36"/>
     <use x="922.070312" xlink:href="#DejaVuSans-2e"/>
     <use x="953.857422" xlink:href="#DejaVuSans-39"/>
     <use x="1017.480469" xlink:href="#DejaVuSans-20"/>
     <use x="1049.267578" xlink:href="#DejaVuSans-441"/>
     <use x="1104.248047" xlink:href="#DejaVuSans-435"/>
     <use x="1165.771484" xlink:href="#DejaVuSans-43a"/>
     <use x="1226.171875" xlink:href="#DejaVuSans-2e"/>
    </g>
   </g>
   <g id="text_20">
    <!-- Зарядка и разрядка RC-цепи -->
    <g transform="translate(144.78375 35.472)scale(0.12 -0.12)">
     <defs>
      <path d="M 1828 4750 
Q 2597 4750 3084 4423 
Q 3572 4097 3572 3541 
Q 3572 3153 3350 2886 
Q 3128 2619 2719 2516 
Q 3172 2419 3426 2112 
Q 3681 1806 3681 1356 
Q 3681 638 3126 273 
Q 2572 -91 1828 -91 
Q 1447 -91 1003 12 
Q 559 116 422 203 
L 422 853 
Q 900 575 1164 508 
Q 1428 441 1816 441 
Q 2403 441 2728 666 
Q 3053 891 3053 1356 
Q 3053 1769 2764 2001 
Q 2475 2234 1866 2234 
L 1228 2234 
L 1228 2753 
L 1891 2753 
Q 2450 2753 2697 2939 
Q 2944 3125 2944 3475 
Q 2944 3834 2689 4026 
Q 2434 4219 1816 4219 
Q 1397 4219 1253 4181 
Q 1109 4144 469 3903 
L 469 4519 
Q 822 4644 1190 4697 
Q 1559 4750 1828 4750 
z
" id="DejaVuSans-417" transform="scale(0.015625)"/>
      <path d="M 3578 3500 
L 3578 0 
L 3006 0 
L 3006 2809 
L 1319 0 
L 581 0 
L 581 3500 
L 1153 3500 
L 1153 697 
L 2838 3500 
L 3578 3500 
z
" id="DejaVuSans-438" transform="scale(0.015625)"/>
      <path d="M 2841 2188 
Q 3044 2119 3236 1894 
Q 3428 1669 3622 1275 
L 4263 0 
L 3584 0 
L 2988 1197 
Q 2756 1666 2539 1819 
Q 2322 1972 1947 1972 
L 1259 1972 
L 1259 0 
L 628 0 
L 628 4666 
L 2053 4666 
Q 2853 4666 3247 4331 
Q 3641 3997 3641 3322 
Q 3641 2881 3436 2590 
Q 3231 2300 2841 2188 
z
M 1259 4147 
L 1259 2491 
L 2053 2491 
Q 2509 2491 2742 2702 
Q 2975 2913 2975 3322 
Q 2975 3731 2742 3939 
Q 2509 4147 2053 4147 
L 1259 4147 
z
" id="DejaVuSans-52" transform="scale(0.015625)"/>
      <path d="M 4122 4306 
L 4122 3641 
Q 3803 3938 3442 4084 
Q 3081 4231 2675 4231 
Q 1875 4231 1450 3742 
Q 1025 3253 1025 2328 
Q 1025 1406 1450 917 
Q 1875 428 2675 428 
Q 3081 428 3442 575 
Q 3803 722 4122 1019 
L 4122 359 
Q 3791 134 3420 21 
Q 3050 -91 2638 -91 
Q 1578 -91 968 557 
Q 359 1206 359 2328 
Q 359 3453 968 4101 
Q 1578 4750 2638 4750 
Q 3056 4750 3426 4639 
Q 3797 4528 4122 4306 
z
" id="DejaVuSans-43" transform="scale(0.015625)"/>
      <path d="M 313 2009 
L 1997 2009 
L 1997 1497 
L 313 1497 
L 313 2009 
z
" id="DejaVuSans-2d" transform="scale(0.015625)"/>
      <path d="M 3603 0 
L 581 0 
L 581 3500 
L 1159 3500 
L 1159 459 
L 3025 459 
L 3025 3500 
L 3603 3500 
L 3603 459 
L 4063 459 
L 4063 -884 
L 3603 -884 
L 3603 0 
z
" id="DejaVuSans-446" transform="scale(0.015625)"/>
      <path d="M 3603 3500 
L 3603 0 
L 3025 0 
L 3025 3041 
L 1159 3041 
L 1159 0 
L 581 0 
L 581 3500 
L 3603 3500 
z
" id="DejaVuSans-43f" transform="scale(0.015625)"/>
     </defs>
     <use xlink:href="#DejaVuSans-417"/>
     <use x="64.111328" xlink:href="#DejaVuSans-430"/>
     <use x="125.390625" xlink:href="#DejaVuSans-440"/>
     <use x="188.867188" xlink:href="#DejaVuSans-44f"/>
     <use x="249.023438" xlink:href="#DejaVuSans-434"/>
     <use x="318.164062" xlink:href="#DejaVuSans-43a"/>
     <use x="378.564453" xlink:href="#DejaVuSans-430"/>
     <use x="439.84375" xlink:href="#DejaVuSans-20"/>
     <use x="471.630859" xlink:href="#DejaVuSans-438"/>
     <use x="536.621094" xlink:href="#DejaVuSans-20"/>
     <use x="568.408203" xlink:href="#DejaVuSans-440"/>
     <use x="631.884766" xlink:href="#DejaVuSans-430"/>
     <use x="693.164062" xlink:href="#DejaVuSans-437"/>
     <use x="746.337891" xlink:href="#DejaVuSans-440"/>
     <use x="809.814453" xlink:href="#DejaVuSans-44f"/>
     <use x="869.970703" xlink:href="#DejaVuSans-434"/>
     <use x="939.111328" xlink:href="#DejaVuSans-43a"/>
     <use x="999.511719" xlink:href="#DejaVuSans-430"/>
     <use x="1060.791016" xlink:href="#DejaVuSans-20"/>
     <use x="1092.578125" xlink:href="#DejaVuSans-52"/>
     <use x="1157.060547" xlink:href="#DejaVuSans-43"/>
     <use x="1226.884766" xlink:href="#DejaVuSans-2d"/>
     <use x="1262.96875" xlink:href="#DejaVuSans-446"/>
     <use x="1331.035156" xlink:href="#DejaVuSans-435"/>
     <use x="1392.558594" xlink:href="#DejaVuSans-43f"/>
     <use x="1457.939453" xlink:href="#DejaVuSans-438"/>
    </g>
   </g>
   <g id="legend_1">
    <g id="patch_7">
     <path d="M 242.504375 93.506375 
L 407.72 93.506375 
Q 409.72 93.506375 409.72 91.506375 
L 409.72 48.472 
Q 409.72 46.472 407.72 46.472 
L 242.504375 46.472 
Q 240.504375 46.472 240.504375 48.472 
L 240.504375 91.506375 
Q 240.504375 93.506375 242.504375 93.506375 
z
" style="fill:#ffffff;opacity:0.8;stroke:#cccccc;stroke-linejoin:miter;"/>
    </g>
    <g id="text_21">
     <!-- Данные о графике: -->
     <g transform="translate(274.171562 58.070438)scale(0.1 -0.1)">
      <defs>
       <path d="M 1459 531 
L 3522 531 
L 3522 4134 
L 2006 4134 
L 2006 3472 
Q 2006 1913 1656 878 
Q 1584 666 1459 531 
z
M 538 531 
Q 956 728 1075 1103 
Q 1378 2066 1378 3784 
L 1378 4666 
L 4153 4666 
L 4153 531 
L 4684 531 
L 4684 -1003 
L 4153 -1003 
L 4153 0 
L 847 0 
L 847 -1003 
L 316 -1003 
L 316 531 
L 538 531 
z
" id="DejaVuSans-414" transform="scale(0.015625)"/>
       <path d="M 581 3500 
L 1159 3500 
L 1159 2072 
L 3025 2072 
L 3025 3500 
L 3603 3500 
L 3603 0 
L 3025 0 
L 3025 1613 
L 1159 1613 
L 1159 0 
L 581 0 
L 581 3500 
z
" id="DejaVuSans-43d" transform="scale(0.015625)"/>
       <path d="M 3907 3500 
L 4482 3500 
L 4482 0 
L 3907 0 
L 3907 3500 
z
M 4195 3584 
L 4195 3584 
z
M 2781 1038 
Q 2781 1319 2576 1466 
Q 2372 1613 1978 1613 
L 1159 1613 
L 1159 459 
L 1978 459 
Q 2372 459 2576 607 
Q 2781 756 2781 1038 
z
M 581 3500 
L 1159 3500 
L 1159 2072 
L 2003 2072 
Q 2672 2072 3033 1817 
Q 3394 1563 3394 1038 
Q 3394 513 3033 256 
Q 2672 0 2003 0 
L 581 0 
L 581 3500 
z
" id="DejaVuSans-44b" transform="scale(0.015625)"/>
       <path d="M 1959 3097 
Q 1497 3097 1228 2736 
Q 959 2375 959 1747 
Q 959 1119 1226 758 
Q 1494 397 1959 397 
Q 2419 397 2687 759 
Q 2956 1122 2956 1747 
Q 2956 2369 2687 2733 
Q 2419 3097 1959 3097 
z
M 1959 3584 
Q 2709 3584 3137 3096 
Q 3566 2609 3566 1747 
Q 3566 888 3137 398 
Q 2709 -91 1959 -91 
Q 1206 -91 779 398 
Q 353 888 353 1747 
Q 353 2609 779 3096 
Q 1206 3584 1959 3584 
z
" id="DejaVuSans-43e" transform="scale(0.015625)"/>
       <path d="M 581 0 
L 581 3500 
L 3050 3500 
L 3050 3041 
L 1159 3041 
L 1159 0 
L 581 0 
z
" id="DejaVuSans-433" transform="scale(0.015625)"/>
       <path d="M 947 1747 
Q 947 1013 1173 702 
Q 1400 391 1784 391 
Q 2091 391 2447 916 
L 2447 2578 
Q 2091 3103 1784 3103 
Q 1400 3103 1173 2792 
Q 947 2481 947 1747 
z
M 2447 -1331 
L 2447 447 
Q 2269 153 2064 31 
Q 1859 -91 1600 -91 
Q 1078 -91 714 392 
Q 350 875 350 1734 
Q 350 2594 714 3089 
Q 1078 3584 1600 3584 
Q 1859 3584 2064 3465 
Q 2269 3347 2447 3053 
L 2447 4666 
L 3025 4666 
L 3025 3053 
Q 3203 3347 3408 3465 
Q 3613 3584 3872 3584 
Q 4394 3584 4758 3089 
Q 5122 2594 5122 1734 
Q 5122 875 4758 392 
Q 4394 -91 3872 -91 
Q 3613 -91 3408 31 
Q 3203 153 3025 447 
L 3025 -1331 
L 2447 -1331 
z
M 4525 1747 
Q 4525 2481 4298 2792 
Q 4072 3103 3688 3103 
Q 3381 3103 3025 2578 
L 3025 916 
Q 3381 391 3688 391 
Q 4072 391 4298 702 
Q 4525 1013 4525 1747 
z
" id="DejaVuSans-444" transform="scale(0.015625)"/>
      </defs>
      <use xlink:href="#DejaVuSans-414"/>
      <use x="78.125" xlink:href="#DejaVuSans-430"/>
      <use x="139.404297" xlink:href="#DejaVuSans-43d"/>
      <use x="204.785156" xlink:href="#DejaVuSans-43d"/>
      <use x="270.166016" xlink:href="#DejaVuSans-44b"/>
      <use x="349.121094" xlink:href="#DejaVuSans-435"/>
      <use x="410.644531" xlink:href="#DejaVuSans-20"/>
      <use x="442.431641" xlink:href="#DejaVuSans-43e"/>
      <use x="503.613281" xlink:href="#DejaVuSans-20"/>
      <use x="535.400391" xlink:href="#DejaVuSans-433"/>
      <use x="587.939453" xlink:href="#DejaVuSans-440"/>
      <use x="651.416016" xlink:href="#DejaVuSans-430"/>
      <use x="712.695312" xlink:href="#DejaVuSans-444"/>
      <use x="798.193359" xlink:href="#DejaVuSans-438"/>
      <use x="863.183594" xlink:href="#DejaVuSans-43a"/>
      <use x="923.583984" xlink:href="#DejaVuSans-435"/>
      <use x="985.107422" xlink:href="#DejaVuSans-3a"/>
     </g>
    </g>
    <g id="line2d_124">
     <path d="M 244.504375 69.248563 
L 264.504375 69.248563 
" style="fill:none;stroke:#1f77b4;stroke-linecap:square;stroke-width:1.5;"/>
    </g>
    <g id="line2d_125"/>
    <g id="text_22">
     <!-- Зависимость V(t) -->
     <g transform="translate(272.504375 72.748563)scale(0.1 -0.1)">
      <defs>
       <path d="M 1156 1613 
L 1156 459 
L 1975 459 
Q 2369 459 2575 607 
Q 2781 756 2781 1038 
Q 2781 1319 2575 1466 
Q 2369 1613 1975 1613 
L 1156 1613 
z
M 1156 3041 
L 1156 2072 
L 1913 2072 
Q 2238 2072 2444 2201 
Q 2650 2331 2650 2563 
Q 2650 2794 2444 2917 
Q 2238 3041 1913 3041 
L 1156 3041 
z
M 581 3500 
L 1950 3500 
Q 2566 3500 2897 3275 
Q 3228 3050 3228 2634 
Q 3228 2313 3059 2123 
Q 2891 1934 2559 1888 
Q 2956 1813 3175 1575 
Q 3394 1338 3394 981 
Q 3394 513 3033 256 
Q 2672 0 2003 0 
L 581 0 
L 581 3500 
z
" id="DejaVuSans-432" transform="scale(0.015625)"/>
       <path d="M 188 3500 
L 3541 3500 
L 3541 3041 
L 2147 3041 
L 2147 0 
L 1581 0 
L 1581 3041 
L 188 3041 
L 188 3500 
z
" id="DejaVuSans-442" transform="scale(0.015625)"/>
       <path d="M 2781 1038 
Q 2781 1319 2576 1466 
Q 2372 1613 1978 1613 
L 1159 1613 
L 1159 459 
L 1978 459 
Q 2372 459 2576 607 
Q 2781 756 2781 1038 
z
M 581 3500 
L 1159 3500 
L 1159 2072 
L 2003 2072 
Q 2672 2072 3033 1817 
Q 3394 1563 3394 1038 
Q 3394 513 3033 256 
Q 2672 0 2003 0 
L 581 0 
L 581 3500 
z
" id="DejaVuSans-44c" transform="scale(0.015625)"/>
       <path d="M 1831 0 
L 50 4666 
L 709 4666 
L 2188 738 
L 3669 4666 
L 4325 4666 
L 2547 0 
L 1831 0 
z
" id="DejaVuSans-56" transform="scale(0.015625)"/>
       <path d="M 1984 4856 
Q 1566 4138 1362 3434 
Q 1159 2731 1159 2009 
Q 1159 1288 1364 580 
Q 1569 -128 1984 -844 
L 1484 -844 
Q 1016 -109 783 600 
Q 550 1309 550 2009 
Q 550 2706 781 3412 
Q 1013 4119 1484 4856 
L 1984 4856 
z
" id="DejaVuSans-28" transform="scale(0.015625)"/>
       <path d="M 1172 4494 
L 1172 3500 
L 2356 3500 
L 2356 3053 
L 1172 3053 
L 1172 1153 
Q 1172 725 1289 603 
Q 1406 481 1766 481 
L 2356 481 
L 2356 0 
L 1766 0 
Q 1100 0 847 248 
Q 594 497 594 1153 
L 594 3053 
L 172 3053 
L 172 3500 
L 594 3500 
L 594 4494 
L 1172 4494 
z
" id="DejaVuSans-74" transform="scale(0.015625)"/>
       <path d="M 513 4856 
L 1013 4856 
Q 1481 4119 1714 3412 
Q 1947 2706 1947 2009 
Q 1947 1309 1714 600 
Q 1481 -109 1013 -844 
L 513 -844 
Q 928 -128 1133 580 
Q 1338 1288 1338 2009 
Q 1338 2731 1133 3434 
Q 928 4138 513 4856 
z
" id="DejaVuSans-29" transform="scale(0.015625)"/>
      </defs>
      <use xlink:href="#DejaVuSans-417"/>
      <use x="64.111328" xlink:href="#DejaVuSans-430"/>
      <use x="125.390625" xlink:href="#DejaVuSans-432"/>
      <use x="184.326172" xlink:href="#DejaVuSans-438"/>
      <use x="249.316406" xlink:href="#DejaVuSans-441"/>
      <use x="304.296875" xlink:href="#DejaVuSans-438"/>
      <use x="369.287109" xlink:href="#DejaVuSans-43c"/>
      <use x="444.726562" xlink:href="#DejaVuSans-43e"/>
      <use x="505.908203" xlink:href="#DejaVuSans-441"/>
      <use x="560.888672" xlink:href="#DejaVuSans-442"/>
      <use x="619.140625" xlink:href="#DejaVuSans-44c"/>
      <use x="678.076172" xlink:href="#DejaVuSans-20"/>
      <use x="709.863281" xlink:href="#DejaVuSans-56"/>
      <use x="778.271484" xlink:href="#DejaVuSans-28"/>
      <use x="817.285156" xlink:href="#DejaVuSans-74"/>
      <use x="856.494141" xlink:href="#DejaVuSans-29"/>
     </g>
    </g>
    <g id="PathCollection_2">
     <g>
      <use style="stroke:#000000;" x="254.504375" xlink:href="#mffb0733143" y="84.801688"/>
     </g>
    </g>
    <g id="text_23">
     <!-- Точечное представление -->
     <g transform="translate(272.504375 87.426688)scale(0.1 -0.1)">
      <defs>
       <path d="M -19 4666 
L 3928 4666 
L 3928 4134 
L 2272 4134 
L 2272 0 
L 1638 0 
L 1638 4134 
L -19 4134 
L -19 4666 
z
" id="DejaVuSans-422" transform="scale(0.015625)"/>
       <path d="M 2625 0 
L 2625 1472 
L 1553 1472 
Q 1075 1472 756 1769 
Q 469 2038 469 2613 
L 469 3500 
L 1044 3500 
L 1044 2666 
Q 1044 2300 1206 2116 
Q 1372 1931 1697 1931 
L 2625 1931 
L 2625 3500 
L 3200 3500 
L 3200 0 
L 2625 0 
z
" id="DejaVuSans-447" transform="scale(0.015625)"/>
       <path d="M 238 0 
L 238 478 
Q 806 566 981 959 
Q 1194 1513 1194 2928 
L 1194 3500 
L 3559 3500 
L 3559 0 
L 2984 0 
L 2984 3041 
L 1769 3041 
L 1769 2694 
Q 1769 1344 1494 738 
Q 1200 91 238 0 
z
" id="DejaVuSans-43b" transform="scale(0.015625)"/>
      </defs>
      <use xlink:href="#DejaVuSans-422"/>
      <use x="61.083984" xlink:href="#DejaVuSans-43e"/>
      <use x="122.265625" xlink:href="#DejaVuSans-447"/>
      <use x="181.347656" xlink:href="#DejaVuSans-435"/>
      <use x="242.871094" xlink:href="#DejaVuSans-447"/>
      <use x="301.953125" xlink:href="#DejaVuSans-43d"/>
      <use x="367.333984" xlink:href="#DejaVuSans-43e"/>
      <use x="428.515625" xlink:href="#DejaVuSans-435"/>
      <use x="490.039062" xlink:href="#DejaVuSans-20"/>
      <use x="521.826172" xlink:href="#DejaVuSans-43f"/>
      <use x="587.207031" xlink:href="#DejaVuSans-440"/>
      <use x="650.683594" xlink:href="#DejaVuSans-435"/>
      <use x="712.207031" xlink:href="#DejaVuSans-434"/>
      <use x="781.347656" xlink:href="#DejaVuSans-441"/>
      <use x="836.328125" xlink:href="#DejaVuSans-442"/>
      <use x="894.580078" xlink:href="#DejaVuSans-430"/>
      <use x="955.859375" xlink:href="#DejaVuSans-432"/>
      <use x="1014.794922" xlink:href="#DejaVuSans-43b"/>
      <use x="1078.710938" xlink:href="#DejaVuSans-435"/>
      <use x="1140.234375" xlink:href="#DejaVuSans-43d"/>
      <use x="1205.615234" xlink:href="#DejaVuSans-438"/>
      <use x="1270.605469" xlink:href="#DejaVuSans-435"/>
     </g>
    </g>
   </g>
  </g>
 </g>
 <defs>
  <clipPath id="pccb0598d0e">
   <rect height="266.112" width="357.12" x="57.6" y="41.472"/>
  </clipPath>
 </defs>
</svg>
